<?xml version="1.0" standalone="no"?>
<!DOCTYPE svg PUBLIC "-//W3C//DTD SVG 1.1//EN" "http://www.w3.org/Graphics/SVG/1.1/DTD/svg11.dtd" >
<svg xmlns="http://www.w3.org/2000/svg" xmlns:xlink="http://www.w3.org/1999/xlink" version="1.1">
<metadata></metadata>
<defs>
<font id="elektra_medium_proitalic" horiz-adv-x="1204" >
<font-face units-per-em="2048" ascent="1638" descent="-410" />
<missing-glyph horiz-adv-x="544" />
<glyph unicode="&#xfb00;" horiz-adv-x="1406" d="M82 0l174 821h-174l47 221h174l12 62q19 89 56 156.5t83 109t106 67.5t119.5 36t129.5 10q200 0 340 -60q100 60 260 60q154 0 281 -45l-101 -201q-82 29 -182 29q-80 0 -131 -38t-72 -130l-10 -56h338l-47 -221h-338l-174 -821h-254l174 821h-383l-174 -821h-254z M557 1042h383l14 70q17 81 43 125q-95 29 -186 29q-107 0 -165 -37t-79 -139z" />
<glyph unicode="&#xfb01;" horiz-adv-x="1216" d="M82 0l174 821h-174l47 221h174l12 62q19 90 57.5 157t88.5 109t119 67.5t141.5 35.5t163.5 10q211 0 375 -64l-103 -198q-122 45 -285 45q-136 0 -209.5 -36.5t-95.5 -139.5l-10 -48h637l-221 -1042h-254l174 821h-383l-174 -821h-254z" />
<glyph unicode="&#xfb02;" horiz-adv-x="1226" d="M82 0l174 821h-174l47 221h174l12 62q19 91 56.5 158t85.5 109t114 67.5t134.5 35t154.5 9.5q213 0 414 -64l-240 -1126q-17 -68 -11.5 -130.5t38.5 -115.5q-41 -16 -122 -47t-122 -47q-84 122 -39 330l205 960q-90 23 -172 23q-103 0 -162.5 -37t-81.5 -139l-10 -48h277 l-48 -221h-276l-174 -821h-254z" />
<glyph unicode="&#xfb03;" horiz-adv-x="1853" d="M82 0l174 821h-174l47 221h174l12 62q19 90 56 158t83 109.5t106.5 67t120.5 35t132 9.5q172 0 350 -70q132 70 359 70q210 0 374 -64l-102 -198q-122 45 -285 45q-136 0 -209.5 -36.5t-95.5 -139.5l-10 -48h637l-221 -1042h-254l174 821h-383l-174 -821h-254l174 821 h-383l-174 -821h-254zM557 1042h383l12 62q15 76 49 131q-91 31 -190 31q-107 0 -165 -37t-79 -139z" />
<glyph unicode="&#xfb04;" horiz-adv-x="1865" d="M82 0l174 821h-174l47 221h174l12 62q19 90 56 158t83 109.5t106.5 67t120.5 35t132 9.5q191 0 346 -68q125 68 338 68t414 -64l-240 -1126q-17 -68 -11.5 -130.5t38.5 -115.5q-41 -16 -122 -47t-122 -47q-84 122 -39 330l205 960q-90 23 -172 23q-102 0 -163 -38 t-81 -138l-10 -48h276l-47 -221h-276l-174 -821h-254l174 821h-383l-174 -821h-254zM557 1042h383l12 62q19 86 49 131q-102 31 -190 31q-115 0 -170 -43t-80 -154z" />
<glyph unicode="Th" horiz-adv-x="2217" d="M156 1194l51 233h1415l-92 -426q63 30 145 51t158 21q77 0 130.5 -12t95 -42.5t59.5 -83.5t16.5 -136.5t-25.5 -198.5l-127 -600h-253l122 580q14 66 15 112.5t-9 76t-33.5 46.5t-53.5 23t-74 6q-82 0 -145 -24.5t-72 -67.5l-160 -752h-254l252 1194h-408l-252 -1194 h-272l252 1194h-481z" />
<glyph unicode="ffk" horiz-adv-x="2445" d="M82 0l174 821h-174l47 221h174l12 62q19 90 56.5 157.5t83.5 109t106.5 66.5t119.5 34.5t130 9.5q204 0 348 -66q125 68 338 68q233 0 414 -64l-185 -868q113 78 508 491h299q-177 -187 -310 -311.5t-187 -161.5q37 -27 119 -175.5t190 -393.5h-301q-247 515 -318 551 l-116 -551h-254l264 1243q-90 23 -172 23q-102 0 -163 -38t-81 -138l-10 -48h276l-47 -221h-276l-174 -821h-254l174 821h-383l-174 -821h-254zM557 1042h383l12 62q19 86 49 131q-102 31 -190 31q-113 0 -167 -32t-73 -124z" />
<glyph unicode="fk" horiz-adv-x="1808" d="M82 0l174 821h-174l47 221h174l12 62q19 91 56.5 158t85.5 109t114 67.5t134.5 35t154.5 9.5q233 0 414 -64l-184 -868l-117 -551h-254l264 1243q-90 23 -172 23q-102 0 -163 -38t-81 -138l-10 -48h277l-48 -221h-276l-174 -821h-254zM1090 551q110 76 507 491h299 q-177 -187 -310 -311.5t-187 -161.5q37 -27 119 -175.5t190 -393.5h-301q-247 515 -317 551z" />
<glyph unicode="fj" horiz-adv-x="1216" d="M82 0l174 821h-174l47 221h174l12 62q19 90 57.5 157t88.5 109t119 67.5t141.5 35.5t163.5 10q211 0 375 -64l-103 -198q-122 45 -285 45q-136 0 -209.5 -36.5t-95.5 -139.5l-10 -48h637l-227 -1065q-24 -115 -66.5 -191.5t-108 -121t-145 -62.5t-190.5 -18l45 211 q91 0 140.5 38t68.5 138l182 850h-383l-174 -821h-254z" />
<glyph horiz-adv-x="0" />
<glyph horiz-adv-x="682" />
<glyph unicode=" "  horiz-adv-x="544" />
<glyph unicode="&#x09;" horiz-adv-x="544" />
<glyph unicode="&#xa0;" horiz-adv-x="544" />
<glyph unicode="!" horiz-adv-x="679" d="M109 150q19 90 57.5 116.5t132.5 26.5q97 0 124.5 -26.5t8.5 -116.5q-21 -98 -62 -129t-137 -31q-92 0 -118.5 31t-5.5 129zM240 457l143 970h313l-270 -970h-186z" />
<glyph unicode="&#x22;" horiz-adv-x="757" d="M211 936l82 491h229l-143 -491h-168zM557 936l86 491h223l-143 -491h-166z" />
<glyph unicode="#" horiz-adv-x="1458" d="M25 362l57 203h260l90 326h-264l57 205h264l93 331h237l-94 -331h283l94 331h235l-92 -331h281l-58 -205h-280l-90 -326h284l-57 -203h-283l-100 -362h-235l98 362h-283l-98 -362h-238l101 362h-262zM578 565h282l92 326h-282z" />
<glyph unicode="$" horiz-adv-x="1273" d="M55 63l109 228q50 -19 143 -32.5t187 -16.5l77 368q-204 24 -291 108.5t-51 252.5q42 196 167.5 298.5t340.5 127.5l64 293h180l-59 -283q227 -3 374 -55l-108 -226q-43 20 -134 33t-184 15l-73 -351q206 -30 288.5 -124t44.5 -269q-42 -197 -164.5 -294.5t-340.5 -119.5 l-64 -297h-180l63 291q-245 3 -389 53zM487 999q-14 -70 14 -103t120 -48l67 317q-173 -28 -201 -166zM674 250q86 14 136 53t67 113q14 73 -12.5 111.5t-119.5 56.5z" />
<glyph unicode="%" horiz-adv-x="1964" d="M155.5 816.5q3.5 79.5 26.5 189.5q29 136 68 224t97 139.5t129.5 72t174.5 20.5q82 0 138 -13t95.5 -43.5t55.5 -83t13.5 -130t-25.5 -186.5q-29 -137 -69 -228t-98 -146t-131 -77.5t-175 -22.5q-81 0 -137.5 14.5t-95 47t-54.5 88t-12.5 135zM317 0l1180 1427h240 l-1182 -1427h-238zM381 823.5q3 -64.5 28.5 -86.5t84.5 -22q60 0 95 23t61 84t52 182q20 92 24.5 145t-7 83.5t-35.5 40t-70 9.5q-60 0 -94 -19.5t-61 -79t-53 -179.5q-28 -116 -25 -180.5zM1112 253.5q3 79.5 27 190.5q29 135 68 223t97 139.5t129.5 72t174.5 20.5 q82 0 137.5 -13t95 -43.5t55.5 -83t13.5 -130t-25.5 -185.5q-29 -138 -69 -229t-98.5 -145.5t-131 -76.5t-174.5 -22q-82 0 -137.5 14t-94.5 46.5t-54.5 87.5t-12.5 134.5zM1336 260.5q3 -64.5 28 -86.5t84 -22q60 0 95.5 23t62 84.5t51.5 182.5q16 74 21.5 121.5t3 79.5 t-17.5 48t-36.5 22t-58.5 6q-61 0 -94.5 -19t-61.5 -78.5t-53 -179.5q-27 -117 -24 -181.5z" />
<glyph unicode="&#x26;" horiz-adv-x="1630" d="M62.5 237.5q1.5 59.5 15.5 135.5q77 351 461 368q-73 6 -122 26t-74 47.5t-33 72t-4 88.5t18 106q27 130 86.5 210.5t179.5 125.5t309 45q275 0 368 -83.5t52 -274.5q-32 -153 -123.5 -239.5t-275.5 -100.5q69 -6 138 -66t148 -192q113 138 150 305h272 q-59 -268 -301 -496q45 -80 156 -315h-307q-53 122 -70 154q-149 -96 -279.5 -139.5t-294.5 -43.5q-99 0 -173 8.5t-131.5 28t-92 50.5t-54.5 75.5t-18.5 104zM373 412q-27 -125 16 -172t189 -47q129 0 223 31.5t205 111.5q-80 154 -156 230.5t-164 76.5q-138 0 -212.5 -54 t-100.5 -177zM590 1055q-23 -109 15 -155t153 -46q118 0 186.5 46.5t91.5 152.5q21 104 -20.5 144t-163.5 40q-124 0 -181.5 -39t-80.5 -143z" />
<glyph unicode="'" horiz-adv-x="413" d="M211 936l82 491h229l-143 -491h-168z" />
<glyph unicode="(" horiz-adv-x="620" d="M143 510q41 190 98 348t121 272.5t141 203t154 144.5t162 91l78 -191q-74 -32 -137.5 -89.5t-127 -156t-119.5 -255.5t-101 -367q-44 -208 -54.5 -365t11 -256t60 -157t97.5 -90l-155 -191q-409 202 -228 1059z" />
<glyph unicode=")" horiz-adv-x="620" d="M-266 -358q73 32 135.5 89.5t126 156t119 255.5t100.5 367q45 208 55.5 365t-11 256t-60 157t-97.5 90l158 191q409 -202 225 -1059q-181 -855 -671 -1059z" />
<glyph unicode="*" horiz-adv-x="1011" d="M166 981l45 205h264l-84 231l203 103l82 -230l180 230l162 -103l-184 -231h266l-45 -205h-267l84 -231l-200 -101l-84 225l-178 -225l-160 103l180 229h-264z" />
<glyph unicode="+" horiz-adv-x="1191" d="M127 621l51 241h375l80 377h244l-80 -377h377l-52 -241h-377l-79 -377h-244l80 377h-375z" />
<glyph unicode="," horiz-adv-x="583" d="M-150 -326l271 537h303l-348 -537h-226z" />
<glyph unicode="-" horiz-adv-x="622" d="M53 455l51 241h504l-51 -241h-504z" />
<glyph unicode="." horiz-adv-x="583" d="M59 150q19 90 57 116.5t132 26.5q98 0 125.5 -26t7.5 -117q-21 -99 -61.5 -129.5t-137.5 -30.5q-92 0 -118 31t-5 129z" />
<glyph unicode="/" horiz-adv-x="956" d="M-72 0l1033 1427h274l-1032 -1427h-275z" />
<glyph unicode="0" horiz-adv-x="1282" d="M115.5 428.5q5.5 129.5 42.5 304.5q37 172 85.5 297.5t108 208.5t137 132.5t163 70t196.5 20.5t188.5 -20.5t134.5 -70t81 -132.5t20 -208.5t-41 -297.5q-46 -218 -111 -366t-153 -235t-192.5 -124t-242.5 -37q-110 0 -187.5 23t-132.5 76.5t-78.5 141t-18 217z M383 365.5q4 -60.5 29.5 -92.5t65.5 -45t106 -13q83 0 136 20t98 78.5t77.5 156.5t67.5 263q23 111 34 187t9.5 132t-13 88.5t-40 51.5t-64 25t-92.5 6q-56 0 -94 -6t-74.5 -25t-61 -51.5t-50 -88.5t-46 -132.5t-43.5 -186.5q-28 -132 -38.5 -219.5t-6.5 -148z" />
<glyph unicode="1" horiz-adv-x="1282" d="M336 1223l717 264l-316 -1487h-264l242 1139l-350 -138z" />
<glyph unicode="2" horiz-adv-x="1282" d="M-6 0l45 217q169 111 275 181.5t209 142t158.5 113t109 88.5t77 74t45.5 65t30.5 66.5t17.5 72.5q26 115 -24 157t-198 42q-95 0 -207 -16.5t-180 -39.5l-8 234q223 65 469 65q78 0 139.5 -6t114.5 -19.5t90 -36t63.5 -55t38 -76t10.5 -100t-16 -127.5 q-16 -77 -36.5 -133t-62 -117t-96 -113t-149 -122.5t-210 -144.5t-289.5 -179h669l-49 -233h-1036z" />
<glyph unicode="3" horiz-adv-x="1282" d="M4 23l100 233q62 -19 164.5 -30t192.5 -11q137 0 213 20.5t111.5 63t52.5 123.5q26 120 -21.5 166.5t-187.5 46.5h-203l49 229h197q132 0 194.5 40t83.5 143q15 67 -1.5 103t-79.5 53.5t-189 17.5q-87 0 -194.5 -12.5t-172.5 -32.5l-4 233q253 53 473 53q205 0 315 -38 t143 -116t5 -210q-16 -76 -40 -130.5t-66 -101.5t-109.5 -74.5t-161.5 -35.5q98 -4 159.5 -32.5t86 -77t26.5 -114.5t-18 -147q-49 -229 -200 -321.5t-459 -92.5q-238 0 -459 52z" />
<glyph unicode="4" horiz-adv-x="1273" d="M10 367l17 84q181 234 412.5 513t406.5 463h360l-178 -837h191l-48 -223h-190l-78 -367h-258l78 367h-713zM385 590h385l127 604q-120 -124 -270.5 -303.5t-241.5 -300.5z" />
<glyph unicode="5" horiz-adv-x="1282" d="M33 23l102 233q58 -19 155.5 -30t186.5 -11q134 0 205 19t106 62t54 130q12 67 12 111t-29 70.5t-85 37t-156 10.5q-205 0 -357 -28l170 800h885l-51 -233h-629l-67 -317q110 8 172 8q201 0 305 -44.5t133 -143.5t-8 -257q-29 -137 -77 -226t-129 -144t-188.5 -77 t-265.5 -22q-102 0 -230.5 15t-213.5 37z" />
<glyph unicode="6" horiz-adv-x="1282" d="M118 270q-10 85 1 196t43 259q31 147 69.5 257.5t90.5 193t113 137t142.5 88t173.5 47.5t212 14q95 0 201 -15t184 -40l-111 -238q-116 48 -326 48q-71 0 -123 -8t-102.5 -30.5t-87 -61.5t-67.5 -102.5t-52 -152.5q138 23 275 23q201 0 306 -44.5t135 -143.5t-7 -257 q-29 -137 -75.5 -226t-124.5 -144t-181 -77t-254 -22q-104 0 -179 15t-130.5 51t-85.5 92t-40 141zM401 454.5q-4 -74.5 6 -121.5t38 -73t65 -35.5t94 -9.5q105 0 164 21t88.5 64.5t46.5 125.5q28 128 -12.5 178.5t-194.5 50.5q-130 0 -270 -20q-21 -106 -25 -180.5z" />
<glyph unicode="7" horiz-adv-x="1282" d="M207 0q190 330 422 673t395 521h-737l51 233h1096l-19 -81q-190 -226 -465.5 -637t-437.5 -709h-305z" />
<glyph unicode="8" horiz-adv-x="1282" d="M82 385q19 86 46.5 148t74.5 113t120 78.5t173 31.5q-92 8 -148 36.5t-77 72.5t-22.5 103.5t15.5 129.5q28 130 87.5 207t180 117t316.5 40t299 -39t130 -119.5t-1 -205.5q-16 -77 -39 -131t-65 -101t-109 -74.5t-162 -35.5q99 -4 160.5 -32.5t85.5 -77t26 -114.5 t-18 -147q-47 -228 -188 -321t-435 -93q-293 0 -395 93t-55 321zM371 412q-27 -124 17 -171.5t190 -47.5q147 0 212 47.5t91 171.5q26 126 -20 178.5t-187 52.5t-208.5 -52.5t-94.5 -178.5zM528 1055q-23 -108 22 -154.5t169 -46.5t187.5 46.5t86.5 154.5q23 104 -20 143 t-172 39q-131 0 -190.5 -39t-82.5 -143z" />
<glyph unicode="9" horiz-adv-x="1282" d="M189.5 812q-3.5 72 19.5 167q58 270 200.5 376.5t438.5 106.5q110 0 188 -9.5t135.5 -33t89 -59.5t45 -92.5t8.5 -128t-26 -170.5q-25 -119 -76 -233t-115 -209t-151.5 -191.5t-172 -173.5t-189.5 -162h-336q408 324 579 559q-85 -10 -182 -10q-122 0 -206 14 t-140.5 45.5t-81 81.5t-28 122zM482 901q0 -35 10.5 -60.5t40.5 -38.5t74 -18.5t116 -5.5q120 0 225 15q34 69 49 147q13 63 17.5 107t-2.5 76t-21 50.5t-43.5 29.5t-63.5 14.5t-87 3.5q-104 0 -165 -25.5t-90 -72.5t-48 -132q-12 -55 -12 -90z" />
<glyph unicode=":" horiz-adv-x="583" d="M59 150q19 90 57 116.5t132 26.5q98 0 125.5 -26t7.5 -117q-21 -99 -61.5 -129.5t-137.5 -30.5q-92 0 -118 31t-5 129zM221 909q20 92 58 119t131 27q98 0 125.5 -27t7.5 -119q-21 -98 -60.5 -127.5t-136.5 -29.5q-93 0 -119.5 29.5t-5.5 127.5z" />
<glyph unicode=";" horiz-adv-x="583" d="M-150 -326l271 537h303l-348 -537h-226zM221 909q20 92 58 119t131 27q98 0 125.5 -27t7.5 -119q-21 -98 -60.5 -127.5t-136.5 -29.5q-93 0 -119.5 29.5t-5.5 127.5z" />
<glyph unicode="&#x3c;" horiz-adv-x="1191" d="M213 676l27 125l868 581l98 -180l-647 -461l451 -465l-172 -184z" />
<glyph unicode="=" horiz-adv-x="1191" d="M68 344l51 242h995l-51 -242h-995zM184 891l52 242h995l-51 -242h-996z" />
<glyph unicode="&#x3e;" horiz-adv-x="1191" d="M129 274l647 461l-450 467l172 182l624 -583l-26 -125l-871 -582z" />
<glyph unicode="?" horiz-adv-x="1009" d="M252 150q20 90 57.5 116.5t130.5 26.5q98 0 125.5 -26t7.5 -117q-21 -99 -60 -128.5t-136 -29.5q-93 0 -119.5 30t-5.5 128zM252 1411q72 21 184 36t197 15q281 0 384 -101.5t58 -311.5q-24 -112 -89.5 -217.5t-155.5 -195.5t-226 -196h-266q197 171 296.5 305t133.5 293 q20 90 -25.5 134.5t-183.5 44.5q-185 0 -303 -43z" />
<glyph unicode="@" horiz-adv-x="1923" d="M88 279.5q3 114.5 35 265.5q38 177 99.5 307t140 214t186 135t225 71t268.5 20q100 0 168 -8.5t125 -31t87.5 -62t45.5 -103.5t8.5 -153t-32.5 -211q-25 -116 -51 -198t-62 -142t-75.5 -95.5t-98.5 -57t-123 -28.5t-157 -7q-81 0 -139 6.5t-103 22.5t-71 41t-38.5 64.5 t-10.5 90.5t17 121q18 87 45 146.5t62 98t87.5 59.5t112 28.5t146.5 7.5q156 0 252 -21q26 129 -22 175t-209 46q-108 0 -183 -7.5t-143.5 -29t-113.5 -58t-85 -97t-68 -142.5t-53 -198q-25 -117 -31 -200t9.5 -147t51 -102.5t102 -63t152.5 -33.5t212 -9q125 0 217.5 11.5 t170.5 40t132.5 73t99.5 116t76 163t58 218.5q57 255 37 383h231q12 -140 -41 -391q-41 -191 -102.5 -330.5t-145 -235.5t-200 -153.5t-255 -82.5t-321.5 -25q-154 0 -268 14.5t-204.5 49.5t-145 92t-82.5 142.5t-25 200zM780 549q-20 -96 13.5 -128t152.5 -32q108 0 158 41 t76 160l20 96q-71 14 -190 14q-118 0 -163.5 -27.5t-66.5 -123.5z" />
<glyph unicode="A" horiz-adv-x="1396" d="M-121 0q167 320 393.5 714t425.5 713h424q36 -355 94.5 -752t116.5 -675h-299q-39 199 -63 356h-625q-76 -142 -184 -356h-283zM469 588h475q-42 283 -70 610h-55q-150 -249 -350 -610z" />
<glyph unicode="B" horiz-adv-x="1458" d="M78 0l303 1427h768q104 0 169.5 -24t91.5 -69q26 -44 30 -108q1 -10 1 -20q0 -56 -16 -121q-16 -77 -37.5 -128.5t-62 -96.5t-106 -70.5t-160.5 -33.5q99 -4 159.5 -32t83.5 -75q22 -47 24 -113q0 -5 1 -9q0 -62 -18 -136q-82 -391 -451 -391h-780zM395 227h451 q138 0 180 201q11 50 11 88q0 123 -111 123h-443zM530 858h439q65 0 102 44t55 128q10 44 10 76q0 31 -10 51q-20 41 -86 41h-438z" />
<glyph unicode="C" horiz-adv-x="1212" d="M160 727q37 175 91 301t122.5 210t162.5 133.5t201 70t248 20.5q98 0 209.5 -15t189.5 -38l-110 -238q-50 20 -135 33t-158 13q-63 0 -109 -3t-92.5 -12t-80 -25t-66.5 -42t-57.5 -62t-48 -86.5t-42.5 -114.5t-36 -147q-23 -109 -31 -189q-3 -32 -4 -61q0 -42 7 -76 q11 -57 35 -91.5t71 -54.5t102.5 -27t138.5 -7q74 0 164 12.5t149 32.5l9 -241q-87 -23 -204 -37.5t-216 -14.5q-140 0 -239.5 23t-171 75.5t-104.5 140.5q-33 86 -33 211q0 130 38 306z" />
<glyph unicode="D" horiz-adv-x="1507" d="M78 0l303 1427h545q117 0 204.5 -14t158 -46t113 -85.5t64.5 -131.5q18 -65 17 -150v-36q-4 -107 -35 -245q-44 -206 -113.5 -345.5t-174 -221.5t-233 -117t-304.5 -35h-545zM397 233h248q99 0 166.5 12t124.5 42t96 86t70 138.5t57 205.5q17 80 25 141q8 57 8 105v5 q0 50 -8.5 84.5t-29 60.5t-46 41t-67 24.5t-86 12.5t-107.5 3h-248z" />
<glyph unicode="E" horiz-adv-x="1269" d="M78 0l303 1427h1036l-51 -233h-766l-70 -330h547l-49 -231h-547l-84 -400h766l-49 -233h-1036z" />
<glyph unicode="F" horiz-adv-x="1196" d="M78 0l303 1427h1016l-51 -233h-746l-84 -403h547l-49 -232h-547l-119 -559h-270z" />
<glyph unicode="G" horiz-adv-x="1433" d="M160 727q31 145 74.5 257t102 193t127.5 136.5t157.5 88t185 46.5t217.5 14q99 0 221.5 -15t198.5 -38l-107 -235q-49 19 -156 31t-188 12q-88 0 -147 -6t-117 -24.5t-96 -51.5t-73.5 -88t-61.5 -133.5t-49 -188.5q-24 -110 -31 -189q-4 -33 -4 -61q0 -42 7 -76 q11 -57 35 -92t71 -55.5t102.5 -27.5t138.5 -7q94 0 188 21l78 368h-311l49 228h588l-170 -801q-92 -27 -242 -44.5t-278 -17.5q-140 0 -239.5 23t-171 75.5t-104.5 140.5q-33 86 -33 211q0 130 38 306z" />
<glyph unicode="H" horiz-adv-x="1507" d="M78 0l303 1427h270l-116 -544h610l117 544h266l-303 -1427h-267l134 633h-611l-133 -633h-270z" />
<glyph unicode="I" horiz-adv-x="630" d="M78 0l303 1427h270l-303 -1427h-270z" />
<glyph unicode="J" horiz-adv-x="944" d="M-86 27l104 241q100 -43 236 -43q86 0 145.5 45t83.5 158l213 999h273l-219 -1034q-21 -99 -61.5 -174.5t-90.5 -121.5t-114 -75t-125.5 -40t-131.5 -11q-170 0 -313 56z" />
<glyph unicode="K" horiz-adv-x="1355" d="M78 0l303 1427h270l-303 -1427h-270zM510 754q86 54 279 236t421 437h328q-234 -252 -418.5 -427t-259.5 -228q58 -46 177.5 -251t242.5 -521h-332q-128 326 -251 525.5t-187 228.5z" />
<glyph unicode="L" horiz-adv-x="1128" d="M78 0l303 1427h270l-254 -1191h674l-49 -236h-944z" />
<glyph unicode="M" horiz-adv-x="1875" d="M78 0l303 1427h369q115 -423 206 -913q270 459 590 913h350l-303 -1427h-264l225 1063q-265 -398 -596 -932h-210q-121 665 -185 932l-225 -1063h-260z" />
<glyph unicode="N" horiz-adv-x="1585" d="M78 0l303 1427h354q205 -487 381 -1030l219 1030h269l-304 -1427h-329q-183 548 -402 1075l-227 -1075h-264z" />
<glyph unicode="O" horiz-adv-x="1576" d="M123 466q6 114 37 261q46 215 117.5 359t177.5 226.5t234.5 116t305.5 33.5q117 0 205 -14t159 -47.5t114 -88.5q43 -54 65 -136q17 -66 17 -152q0 -20 -1 -42q-5 -112 -36 -255q-46 -219 -118.5 -366.5t-178.5 -233t-235 -121t-306 -35.5q-117 0 -205.5 15t-159 50 t-113.5 92q-42 56 -64 140q-17 65 -16 150q0 23 1 48zM412 400q6 -58 25.5 -92.5t61.5 -56t96 -29t136 -7.5t139.5 7.5t108.5 29t85 56t65.5 93t54.5 135t47 187.5q17 83 27 145q9 62 10 114v14q0 43 -6 74q-6 36 -24 63t-42 43t-63 26t-83 13.5t-106 3.5q-84 0 -140 -6.5 t-107 -26.5t-84.5 -52.5t-64.5 -90t-53.5 -133.5t-45.5 -187t-33 -187q-6 -47 -6 -88q0 -25 2 -48z" />
<glyph unicode="P" horiz-adv-x="1378" d="M78 0l303 1427h743q314 0 315 -308q0 -80 -22 -181q-20 -95 -61 -177t-101 -148t-145 -104t-184 -38h-480l-98 -471h-270zM496 696h397q85 0 143 61.5t84 182.5q14 63 14 111q0 147 -128 147h-404z" />
<glyph unicode="Q" horiz-adv-x="1603" d="M137 423.5q0 128.5 37 303.5q37 173 91.5 299t124.5 210t165 134t203.5 71t249.5 21q117 0 205 -14t159 -47.5t114 -88.5t65 -136q18 -67 18 -153q0 -20 -1 -41q-5 -111 -36 -255q-70 -331 -202.5 -494t-344.5 -202q138 -41 334 -424h-315q-75 172 -160 264t-156 100 q-140 0 -239.5 22.5t-172 75t-106 139.5t-33.5 215.5zM426 400q5 -58 24.5 -92.5t61 -56t95.5 -29t136 -7.5q83 0 140.5 7.5t109 29t85.5 56t65.5 93t54.5 135t47 187.5q23 111 32 187q5 43 5 80q0 28 -3 54q-7 57 -26.5 89.5t-62.5 52.5t-96.5 26.5t-137.5 6.5t-139.5 -6.5 t-107 -26.5t-84.5 -52.5t-63.5 -90t-53 -133.5t-45.5 -187q-24 -111 -33 -187q-7 -49 -7 -90q0 -24 3 -46z" />
<glyph unicode="R" horiz-adv-x="1445" d="M78 0l303 1427h743q88 0 152 -21.5t101 -58.5t54.5 -90.5t17.5 -113.5t-15 -131q-18 -81 -51 -147t-87 -121t-135.5 -87t-185.5 -36q68 -26 146.5 -167t199.5 -454h-334q-104 288 -184 416.5t-150 128.5h-190l-115 -545h-270zM510 768h403q79 0 133.5 53t77.5 156 q10 49 10 87q0 49 -16 79q-30 55 -106 55h-410z" />
<glyph unicode="S" horiz-adv-x="1273" d="M23 35l108 233q64 -22 166.5 -36.5t204.5 -14.5q176 0 261 41t109 148q7 24 7 45q1 13 -3 27q-8 32 -36 57t-90.5 42.5t-161.5 26.5q-239 24 -329 112q-62 61 -62 172q0 49 12 109q53 246 226 355.5t480 109.5q115 0 230 -17.5t194 -45.5l-110 -234q-57 22 -158.5 37 t-206.5 15q-172 0 -255.5 -42t-106.5 -145q-5 -24 -5 -44q-1 -27 9 -47q16 -33 80 -56t190 -35q246 -26 338 -126q64 -69 65 -186q0 -53 -14 -116q-27 -125 -82.5 -211.5t-145.5 -139t-206.5 -75.5t-275.5 -23q-118 0 -235 17.5t-197 46.5z" />
<glyph unicode="T" horiz-adv-x="1247" d="M156 1194l51 233h1235l-51 -233h-482l-252 -1194h-272l252 1194h-481z" />
<glyph unicode="U" horiz-adv-x="1519" d="M130 304q2 58 17 128l213 995h273l-203 -954q-11 -48 -10 -87q0 -74 39 -111q60 -56 243 -56q180 0 267 54t118 200l203 954h269l-211 -995q-24 -111 -68.5 -192t-103.5 -132.5t-142.5 -82t-174 -42.5t-208.5 -12q-73 0 -132.5 4.5t-115 15t-97.5 28t-77 42.5t-57 61 q-20 35 -32 80q-10 38 -10 86v16z" />
<glyph unicode="V" horiz-adv-x="1327" d="M162 1427h299q48 -245 94.5 -571t67.5 -582q308 499 639 1153h284q-168 -321 -395.5 -715t-429.5 -712h-346q-36 364 -94 760t-119 667z" />
<glyph unicode="W" horiz-adv-x="1996" d="M197 1427h295q61 -509 73 -1091q355 689 520 1091h250q47 -728 47 -1044v-47q279 521 531 1091h278q-353 -763 -716 -1427h-345q3 126 3 262q0 332 -19 717q-158 -379 -469 -979h-342q-37 931 -106 1427z" />
<glyph unicode="X" horiz-adv-x="1380" d="M-111 0q265 262 697 721q-214 408 -385 706h346q99 -173 258 -471q235 254 428 471h332q-192 -215 -643 -700q246 -480 362 -727h-336q-192 392 -243 494q-430 -440 -484 -494h-332z" />
<glyph unicode="Y" horiz-adv-x="1306" d="M123 1427h352q146 -253 281 -544q300 314 493 544h328q-370 -420 -750 -811l-129 -616h-270l129 614q-254 516 -434 813z" />
<glyph unicode="Z" horiz-adv-x="1271" d="M-68 0l13 66q230 242 523 566t499 562h-738l52 233h1157l-15 -61q-216 -260 -519.5 -598t-502.5 -535h768l-49 -233h-1188z" />
<glyph unicode="[" horiz-adv-x="698" d="M-33 -532l443 2078h553l-48 -221h-288l-348 -1638h288l-47 -219h-553z" />
<glyph unicode="\" horiz-adv-x="956" d="M141 1427h275l426 -1427h-275z" />
<glyph unicode="]" horiz-adv-x="698" d="M-254 -532l47 219h287l348 1638h-289l47 221h553l-442 -2078h-551z" />
<glyph unicode="^" horiz-adv-x="1087" d="M51 606l570 821h243l221 -821h-274l-131 545l-361 -545h-268z" />
<glyph unicode="_" horiz-adv-x="962" d="M-115 -340l49 242h844l-51 -242h-842z" />
<glyph unicode="`" horiz-adv-x="985" d="M391 1427h271l192 -264h-225z" />
<glyph unicode="a" d="M84 283q0 88 29 233q33 160 84.5 267.5t128.5 171.5t173.5 91t229.5 27q116 0 240.5 -21.5t199.5 -56.5l-145 -676q-10 -48 -10 -81q0 -83 61 -150l-217 -125q-40 14 -70 52.5t-38 78.5q-56 -54 -139.5 -86.5t-176.5 -32.5q-178 0 -264 69t-86 239zM350 348 q0 -87 43.5 -120t145.5 -33q88 0 154.5 33.5t78.5 90.5l109 510q-84 35 -195 35q-72 0 -116.5 -12t-83 -49.5t-63.5 -104t-48 -178.5q-25 -113 -25 -172z" />
<glyph unicode="b" d="M47 47l305 1432h254l-100 -475q124 69 285 69q90 0 153 -16t108.5 -54t65.5 -101q18 -56 18 -135v-21q-2 -92 -30 -218q-34 -160 -85.5 -267.5t-128.5 -171.5t-173.5 -91t-229.5 -27q-115 0 -240 21.5t-202 54.5zM338 213q76 -33 194 -33q58 0 96.5 7.5t73 28t59 59.5 t45.5 99t40 150q21 103 21 170q-1 59 -17 90q-36 66 -170 66q-88 0 -153 -27t-74 -71z" />
<glyph unicode="c" horiz-adv-x="962" d="M89 336q2 84 24 190q33 156 91.5 264.5t141.5 169.5t179 87t220 26q77 0 166 -14t142 -35l-105 -217q-106 45 -231 45q-76 0 -124 -11t-92 -45t-73.5 -100.5t-52.5 -173.5q-17 -82 -19 -140v-12q0 -50 10 -83q12 -37 42.5 -57.5t69 -28.5t97.5 -8q123 0 254 49l11 -217 q-64 -24 -158 -39t-170 -15q-82 0 -146 11.5t-118 37t-88 68.5q-35 44 -54 104q-17 55 -17 128v16z" />
<glyph unicode="d" d="M85 300.5q0 93.5 28 221.5q26 125 66.5 219.5t91 157t116 102t137 56t158.5 16.5q145 0 238 -59l98 465h254l-305 -1432q-90 -33 -222.5 -54.5t-246.5 -21.5q-107 0 -181.5 16.5t-128.5 54.5t-78.5 101.5t-24.5 157zM353 381q-1 -20 -1 -38q0 -34 4 -59q8 -39 33.5 -59.5 t61 -28.5t92.5 -8q109 0 207 31l114 539q2 7 2 14q0 34 -44 58q-52 28 -140 28q-135 0 -200.5 -69.5t-106.5 -262.5q-18 -87 -22 -145z" />
<glyph unicode="e" horiz-adv-x="1130" d="M90 336q2 84 23 190q32 154 87.5 261.5t133.5 169.5t170.5 89t210.5 27q104 0 173 -16t118.5 -56t67.5 -110q12 -48 11 -114q0 -30 -2 -63q-8 -107 -45 -259h-673q-11 -55 -13 -97v-12q0 -34 8 -60q9 -30 26 -49.5t46 -30.5t63.5 -15.5t82.5 -4.5q58 0 148.5 12.5 t152.5 30.5l-2 -200q-82 -26 -188 -42t-187 -16q-78 0 -140 11.5t-114.5 37t-87.5 68.5q-34 44 -53 104q-18 56 -18 132q1 6 1 12zM408 649h438q9 53 9 92q0 59 -21 87q-35 44 -148 44q-120 0 -179 -47t-99 -176z" />
<glyph unicode="f" horiz-adv-x="770" d="M82 0l174 821h-174l47 221h174l14 70q18 88 52.5 154.5t76.5 107t97.5 65.5t110 34.5t120.5 9.5q152 0 279 -45l-101 -201q-82 29 -182 29q-82 0 -132 -37t-71 -131l-10 -56h338l-47 -221h-338l-174 -821h-254z" />
<glyph unicode="g" d="M-41 -356l94 204q148 -51 301 -51q155 0 242.5 54t116.5 192q-128 -68 -279 -68q-89 0 -152.5 15.5t-110.5 53.5t-68 100q-20 59 -20 147v8q1 93 28 219q34 159 86 266.5t129.5 171t174.5 90.5t230 27q115 0 239 -21.5t199 -56.5l-194 -915q-26 -120 -72 -208.5 t-104 -143.5t-137.5 -88t-162.5 -45.5t-188 -12.5q-89 0 -189.5 18t-162.5 44zM350 360v-11q0 -54 19 -89q21 -37 61 -51t109 -14q88 0 152.5 26t74.5 72l115 536q-84 35 -195 35q-58 0 -96.5 -7.5t-73 -28t-58.5 -59.5t-45 -99t-40 -150q-21 -99 -23 -160z" />
<glyph unicode="h" horiz-adv-x="1193" d="M39 0l313 1479h254l-102 -478q64 30 146.5 51t156.5 21q77 0 130.5 -12t95 -42.5t59.5 -83.5q17 -49 17 -124q-1 -7 -1 -13q-2 -84 -25 -198l-127 -600h-254l123 580q14 65 14 113q0 53 -17 87q-32 64 -150 64q-83 0 -146.5 -24.5t-72.5 -67.5l-160 -752h-254z" />
<glyph unicode="i" horiz-adv-x="536" d="M39 0l221 1042h254l-221 -1042h-254zM307 1352q17 79 51.5 102t122.5 23q87 0 111 -23q14 -14 15 -47q0 -23 -7 -55q-20 -88 -55 -115t-121 -27q-88 0 -112 27q-13 15 -14 48q0 27 9 67z" />
<glyph unicode="j" horiz-adv-x="536" d="M-223 -416l45 211q91 0 140.5 38t68.5 138l229 1071h254l-227 -1065q-24 -115 -66.5 -191.5t-108 -121t-145 -62.5t-190.5 -18zM307 1352q17 79 51.5 102t122.5 23q87 0 111 -23q15 -14 15 -47q0 -23 -7 -55q-20 -88 -55 -115t-121 -27q-88 0 -112 27q-14 15 -14 48 q0 27 9 67z" />
<glyph unicode="k" horiz-adv-x="1128" d="M39 0l313 1479h254l-196 -928q113 78 508 491h301q-178 -187 -312 -311.5t-188 -161.5q37 -27 120.5 -176.5t188.5 -392.5h-299q-247 516 -319 551l-117 -551h-254z" />
<glyph unicode="l" horiz-adv-x="548" d="M98 283l254 1196h254l-252 -1186q-11 -48 -11 -93q0 -82 38 -153l-244 -96q-54 84 -54 200q0 62 15 132z" />
<glyph unicode="m" horiz-adv-x="1804" d="M39 0l209 983q109 39 245 64.5t255 25.5q176 0 251 -69q204 69 385 69q90 0 152 -15t105 -49.5t61 -92.5q15 -50 15 -119q-1 -10 -1 -20q-2 -82 -26 -195l-123 -582h-254l117 555q20 89 22 143v14q0 44 -15 74q-17 34 -53.5 46t-101.5 12q-105 0 -209 -29q2 -22 2 -47 q0 -80 -22 -186l-123 -582h-254l117 555q19 89 21 143q0 7 1 14q0 44 -15 74q-17 34 -53.5 46t-101.5 12q-83 0 -178 -25l-174 -819h-254z" />
<glyph unicode="n" horiz-adv-x="1193" d="M39 0l209 983q107 38 249.5 64t262.5 26q90 0 153.5 -15t108 -49.5t64.5 -91.5q19 -53 18 -128v-11q-2 -82 -25 -196l-123 -582h-254l117 555q19 89 21 143v11q0 47 -16 77q-18 34 -57.5 46t-109.5 12q-92 0 -190 -25l-174 -819h-254z" />
<glyph unicode="o" d="M86 307q0 93 27 219q33 158 86 265t131 168.5t172 87.5t223 26q86 0 151 -11t116.5 -36t83.5 -66q30 -42 46 -102q12 -48 13 -111q0 -17 -1 -33q-4 -82 -26 -188q-34 -159 -86.5 -267t-130 -171.5t-173 -90t-226.5 -26.5q-103 0 -176 16.5t-126.5 55.5t-77.5 103 q-26 65 -26 161zM352 375q-2 -24 -3 -45q1 -30 5 -54q6 -40 30.5 -61.5t59.5 -30t91 -8.5q96 0 150 26.5t92 100t69 219.5q19 91 24 151q2 26 2 48q0 29 -4 51q-6 40 -32 60.5t-61 28t-93 7.5q-57 0 -94.5 -7.5t-71.5 -28t-57.5 -60t-44 -99.5t-39.5 -151q-19 -88 -23 -147z " />
<glyph unicode="p" d="M-45 -393l295 1388q91 35 224 56.5t249 21.5q106 0 181 -16.5t128 -54.5t78 -102q24 -63 24 -153q0 -95 -28 -225q-33 -156 -86.5 -264.5t-127.5 -170.5t-160 -89t-195 -27q-132 0 -238 60l-90 -424h-254zM352 287q-1 -6 -1 -13q0 -36 45 -60q54 -28 141 -28 q135 0 200.5 69t106.5 261q19 87 23 146q1 20 1 38q0 33 -4 58q-8 39 -34 59.5t-61.5 28.5t-92.5 8q-121 0 -209 -31z" />
<glyph unicode="q" d="M82 298q2 93 29 220q34 159 86 266.5t129.5 171t174.5 90.5t230 27q115 0 239 -21.5t199 -56.5l-295 -1388h-253l92 434q-132 -70 -285 -70q-90 0 -153 16t-109 54t-66 101q-18 57 -18 139v17zM350 360v-11q0 -54 19 -89q21 -37 61 -51t109 -14q88 0 152.5 26t74.5 72 l115 536q-84 35 -195 35q-58 0 -96.5 -7.5t-73 -28t-58.5 -59.5t-45 -99t-40 -150q-21 -99 -23 -160z" />
<glyph unicode="r" horiz-adv-x="776" d="M39 0l221 1042h254l-16 -77q93 108 288 108q52 0 105 -6l-51 -242q-66 15 -129 15q-101 0 -178 -31.5t-87 -85.5l-153 -723h-254z" />
<glyph unicode="s" horiz-adv-x="1005" d="M2 27l96 200q54 -21 138.5 -35t160.5 -14q112 0 164 25t68 102q3 14 3 26q0 37 -30 59q-40 28 -170 40q-179 14 -250 78q-49 44 -49 132q0 39 10 87q21 99 67.5 167.5t116.5 107t151.5 55t185.5 16.5q181 0 337 -57l-98 -199q-138 49 -293 49q-104 0 -150.5 -22.5 t-62.5 -98.5q-3 -13 -3 -24q0 -36 30 -53q39 -23 164 -35q189 -21 259 -91q48 -48 48 -135q0 -40 -10 -88q-21 -99 -67 -168t-115.5 -107.5t-151 -55.5t-186.5 -17q-88 0 -192.5 15.5t-170.5 40.5z" />
<glyph unicode="t" horiz-adv-x="849" d="M92 821l47 221h174l37 177l277 104l-60 -281h346l-47 -221h-346l-96 -448q-10 -46 -10 -79q0 -40 14 -62q25 -42 115 -42q88 0 184 29l2 -201q-136 -47 -295 -47q-74 0 -124.5 10t-89 34.5t-56.5 67.5q-18 44 -18 112q0 65 20 155l100 471h-174z" />
<glyph unicode="u" horiz-adv-x="1193" d="M104 266q2 82 25 195l125 581h254l-119 -555q-15 -72 -19 -119q-2 -18 -2 -34q0 -26 4 -48q6 -34 29 -52.5t58 -26.5t90 -8q99 0 194 26l175 817h253l-208 -983q-109 -38 -251.5 -64t-262.5 -26q-90 0 -153.5 15t-108.5 50t-65 92q-19 53 -19 128q1 6 1 12z" />
<glyph unicode="v" horiz-adv-x="1046" d="M119 1042h264q65 -370 90 -786q269 454 426 786h258q-240 -472 -596 -1042h-313q-46 616 -129 1042z" />
<glyph unicode="w" horiz-adv-x="1699" d="M119 1042h268q57 -354 70 -782q84 150 205 392t188 390h248q18 -148 30.5 -379t12.5 -403q260 450 409 782h258q-265 -540 -577 -1042h-316q1 60 1 116q0 341 -21 582q-152 -344 -348 -698h-314q-42 609 -114 1042z" />
<glyph unicode="x" horiz-adv-x="1067" d="M-90 0q209 197 514 520q-151 304 -291 522h303q84 -142 172 -319q108 116 283 319h283q-211 -238 -469 -514q121 -243 249 -528h-286q-45 111 -150 330q-166 -175 -325 -330h-283z" />
<glyph unicode="y" horiz-adv-x="1046" d="M12 -393q90 116 242 342q-37 592 -135 1093h264q63 -334 90 -790q267 450 426 790h258q-248 -491 -627 -1085q-129 -203 -235 -350h-283z" />
<glyph unicode="z" horiz-adv-x="1017" d="M-66 0l11 51q179 179 387.5 407t320.5 363h-510l47 221h900l-13 -51q-145 -175 -355 -406t-345 -364h522l-45 -221h-920z" />
<glyph unicode="{" horiz-adv-x="692" d="M45 403l45 211q49 0 91 19t84 63.5t77.5 127.5t60.5 202q92 432 453 545l80 -191q-58 -19 -99.5 -45.5t-81 -74.5t-70 -125.5t-54.5 -190.5q-19 -93 -47.5 -167.5t-56.5 -120t-60.5 -78t-58 -47t-50.5 -21.5q21 -7 40 -22t38 -48t28 -79t5.5 -121t-23.5 -168 q-24 -113 -27.5 -190.5t15 -125.5t49 -74.5t82.5 -46.5l-162 -188q-311 112 -219 547q88 412 -137 412z" />
<glyph unicode="|" horiz-adv-x="759" d="M31 -524l440 2070h268l-440 -2070h-268z" />
<glyph unicode="}" horiz-adv-x="692" d="M-231 -360q57 19 98 45.5t80 74.5t69 125.5t54 190.5q25 114 61 199.5t75 132t72 70t64 32.5q-21 7 -39.5 22t-37 48t-27.5 79t-5.5 121t23.5 168q24 112 27.5 189t-15 125t-49.5 74.5t-82 45.5q27 32 81 95t81 94q311 -112 219 -545q-88 -412 137 -412l-10 -53l-33 -155 q-49 0 -91 -19t-84 -63.5t-77.5 -127.5t-60.5 -202q-92 -431 -451 -545q-10 23 -36.5 89t-42.5 102z" />
<glyph unicode="~" horiz-adv-x="1191" d="M131 741q78 97 155.5 148t168.5 51q59 0 122.5 -26.5t108.5 -58.5t97 -58.5t91 -26.5q48 0 87 31t83 110l138 -129q-62 -104 -158 -169.5t-207 -65.5q-52 0 -112 27.5t-104.5 60.5t-98 60.5t-94.5 27.5q-78 0 -158 -123z" />
<glyph unicode="&#xa1;" horiz-adv-x="679" d="M4 -365l270 971h185l-140 -971h-315zM268 913q21 98 61.5 129t135.5 31q93 0 119.5 -31t5.5 -129q-19 -90 -58 -116.5t-133 -26.5q-96 0 -123.5 26.5t-7.5 116.5z" />
<glyph unicode="&#xa2;" horiz-adv-x="937" d="M144 544.5q-3 98.5 24 239.5q29 136 77 235.5t115 161.5t144 95.5t174 44.5l45 217h201l-45 -213q126 -11 211 -43l-101 -201q-61 30 -155 33l-144 -672q96 7 170 37l17 -196q-95 -39 -230 -50l-53 -247h-201l53 247q-92 13 -155 47.5t-103.5 100t-43.5 164zM401.5 561.5 q20.5 -68.5 94.5 -90.5l131 616q-83 -21 -133.5 -90t-83.5 -219q-29 -148 -8.5 -216.5z" />
<glyph unicode="&#xa3;" horiz-adv-x="1249" d="M92 0l127 600h-121l45 215h121l35 162q52 244 215 363.5t459 119.5q118 0 232 -17t190 -46l-109 -232q-57 21 -158.5 35t-205.5 14q-167 0 -245.5 -51.5t-103.5 -169.5l-38 -178h403l-45 -215h-404l-77 -367h694l-49 -233h-965z" />
<glyph unicode="&#xa4;" horiz-adv-x="1380" d="M39 154l209 211q-43 125 8 362q49 224 137 344l-114 209l266 147l102 -190q85 35 219 35t203 -31l166 186l203 -145l-183 -199q44 -125 -4 -356q-51 -238 -149 -362l106 -211l-260 -154l-102 201q-95 -31 -213 -31q-134 0 -205 35l-207 -205zM484.5 575.5 q-3.5 -58.5 5.5 -96t35.5 -57.5t62 -27.5t92.5 -7.5q58 0 97.5 7.5t75 27.5t60 57.5t45.5 96t39 145.5q17 76 23 129.5t0.5 91t-18 59.5t-40.5 34t-59.5 16t-81.5 4q-49 0 -81 -4t-64.5 -16t-54.5 -34t-43.5 -59.5t-38 -91t-33.5 -129.5q-18 -87 -21.5 -145.5z" />
<glyph unicode="&#xa5;" horiz-adv-x="1306" d="M109 221l41 189h364l35 159h-365l39 189h262q-204 408 -362 669h352q146 -253 281 -544q300 314 493 544h328q-294 -334 -614 -669h245l-39 -189h-350l-35 -159h351l-41 -189h-351l-45 -221h-270l45 221h-364z" />
<glyph unicode="&#xa6;" horiz-adv-x="759" d="M31 -524l159 751h269l-160 -751h-268zM311 795l160 751h268l-159 -751h-269z" />
<glyph unicode="&#xa7;" horiz-adv-x="1273" d="M-23 -354l103 221q52 -22 149.5 -35.5t200.5 -13.5q165 0 246.5 41.5t101.5 136.5q11 53 -5.5 83.5t-77 52t-181.5 32.5q-241 24 -344 116t-64 273q29 137 142 250q-50 76 -23 215q94 444 697 444q110 0 218.5 -16.5t182.5 -44.5l-102 -221q-54 21 -152.5 35t-198.5 14 q-164 0 -246 -42t-104 -138q-11 -53 6 -83.5t78.5 -51t183.5 -31.5q241 -26 343 -117.5t65 -273.5q-29 -129 -147 -244q57 -77 26 -221q-94 -443 -696 -443q-109 0 -218.5 17t-183.5 45zM379 567q-11 -55 9.5 -86.5t90.5 -53.5t207 -34q98 -5 172 -33q49 49 62 117 q12 56 -8 88t-90.5 53.5t-209.5 32.5q-114 10 -172 33q-45 -48 -61 -117z" />
<glyph unicode="&#xa8;" horiz-adv-x="946" d="M293 1282q15 71 43 92t100 21t93.5 -21t7.5 -92q-18 -79 -49 -103t-103 -24t-91 24t-1 103zM729 1282q15 71 43.5 92t101.5 21q71 0 92 -21t7 -92q-18 -79 -48.5 -103t-101.5 -24q-73 0 -92.5 24t-1.5 103z" />
<glyph unicode="&#xa9;" horiz-adv-x="1714" d="M139 466q4 114 35 261q37 173 94 299.5t132 210t177.5 134t218.5 71t267 20.5q126 0 220.5 -14t172 -47.5t125.5 -88.5t73 -136.5t22 -193t-34 -255.5q-37 -176 -95 -305.5t-133.5 -215.5t-178 -138.5t-219.5 -74.5t-268 -22q-125 0 -220 15t-172 49.5t-124 92t-72 141 t-21 197.5zM365.5 517q-7.5 -87 5.5 -150.5t41.5 -103t83.5 -63t123 -32t167 -8.5q100 0 171.5 8.5t137 32t111 63t86 103t70 150.5t55.5 208q25 120 32.5 205.5t-6.5 147.5t-42.5 99.5t-85 59.5t-123.5 29.5t-168 7.5t-171 -7.5t-135.5 -29.5t-110.5 -59.5t-85 -99 t-69 -147.5t-54 -206q-26 -121 -33.5 -208zM503.5 539q-0.5 77 22.5 184q28 133 71.5 219.5t109.5 135t145.5 67t194.5 18.5q155 0 258 -39l-86 -184q-81 33 -201 33q-62 0 -100 -8.5t-70.5 -35.5t-53 -76t-38.5 -132q-13 -63 -15 -106.5t6 -73t30.5 -45.5t54 -22.5 t79.5 -6.5q120 0 215 37l9 -182q-133 -46 -277 -46q-91 0 -154 12t-110.5 42t-68.5 81t-21.5 128z" />
<glyph unicode="&#xaa;" horiz-adv-x="890" d="M217 930q13 61 36.5 105t52.5 70t70 41t82 20t97 5q92 0 176 -20q20 96 -9 127t-140 31q-119 0 -228 -33v147q169 39 299 39q168 0 232 -61.5t30 -218.5l-94 -441q-72 -26 -171 -41.5t-179 -15.5q-176 0 -230 51t-24 195zM408 938q-14 -67 8 -92t100 -25q73 0 150 25 l39 182q-52 14 -140 14q-72 0 -108 -20t-49 -84z" />
<glyph unicode="&#xab;" horiz-adv-x="1368" d="M88 639l674 571l115 -149l-451 -418l270 -426l-176 -154zM647 639l674 571l115 -149l-451 -418l270 -426l-176 -154z" />
<glyph unicode="&#xac;" horiz-adv-x="1062" d="M92 637l49 240h936l-184 -877h-268l135 637h-668z" />
<glyph unicode="&#xad;" horiz-adv-x="622" d="M53 455l51 241h504l-51 -241h-504z" />
<glyph unicode="&#xae;" horiz-adv-x="1169" d="M172 750.5q-3 86.5 25 203.5q31 148 81 246.5t125 155.5t167 80.5t221 23.5q86 0 150 -10t115.5 -33t82.5 -61t46.5 -94t12.5 -132.5t-24 -175.5q-31 -146 -81 -244.5t-125.5 -157t-169.5 -83.5t-223 -25q-103 0 -175.5 15.5t-126 51.5t-76 94.5t-25.5 145zM347 805.5 q-2 -60.5 11 -101.5t47 -64t82 -32.5t121 -9.5q94 0 155.5 15t110 55t79 108t53.5 178q16 78 20.5 133.5t-3.5 95.5t-26 64.5t-53 39t-77.5 19.5t-106.5 5q-94 0 -152 -12.5t-107 -51t-79.5 -108.5t-54.5 -185q-18 -88 -20 -148.5zM403 684l117 545h334q73 0 99 -51t8 -129 q-19 -90 -62 -127t-113 -37q82 -44 82 -201h-174q2 56 -16 106t-41 50h-39l-35 -156h-160zM627 979h110q46 0 56 61q14 58 -31 58h-111z" />
<glyph unicode="&#xaf;" horiz-adv-x="1064" d="M399 1180l39 184h570l-39 -184h-570z" />
<glyph unicode="&#xb0;" horiz-adv-x="888" d="M155.5 816.5q3.5 79.5 26.5 189.5q29 136 68 224t97 139.5t129.5 72t174.5 20.5q82 0 138 -13t95.5 -43.5t55.5 -83t13.5 -130t-25.5 -186.5q-29 -137 -69 -228t-98 -146t-131 -77.5t-175 -22.5q-81 0 -137.5 14.5t-95 47t-54.5 88t-12.5 135zM381 823.5 q3 -64.5 28.5 -86.5t84.5 -22q60 0 95 23t61 84t52 182q20 92 24.5 145t-7 83.5t-35.5 40t-70 9.5q-60 0 -94 -19.5t-61 -79t-53 -179.5q-28 -116 -25 -180.5z" />
<glyph unicode="&#xb1;" horiz-adv-x="1191" d="M4 39l51 242h996l-52 -242h-995zM160 778l51 242h375l80 377h243l-80 -377h377l-51 -242h-377l-80 -377h-243l80 377h-375z" />
<glyph unicode="&#xb2;" horiz-adv-x="878" d="M90 561q39 135 92 222t121.5 137.5t175.5 91.5q99 36 149.5 71t61.5 88t-21.5 74t-127.5 21q-56 0 -130 -10.5t-116 -24.5l6 190q129 39 297 39q194 0 271.5 -62.5t45.5 -209.5q-47 -214 -245 -279q-159 -52 -201 -75q-66 -35 -86 -91h440l-39 -182h-694z" />
<glyph unicode="&#xb3;" horiz-adv-x="866" d="M104 571l70 174q93 -28 221 -28q109 0 151 22t56 84q13 65 -14.5 86t-118.5 21h-107l37 170h103q84 0 117 20t45 76q11 52 -18 69t-132 17q-133 0 -225 -29l4 174q150 33 293 33q192 0 268 -52.5t51 -172.5q-22 -101 -74.5 -152.5t-166.5 -60.5q118 -6 154 -62.5 t13 -166.5q-30 -138 -138 -197t-304 -59q-152 0 -285 34z" />
<glyph unicode="&#xb4;" horiz-adv-x="985" d="M334 1163l305 264h272l-354 -264h-223z" />
<glyph unicode="&#xb5;" horiz-adv-x="1193" d="M-63 -393l188 829l129 606h254l-119 -555q-19 -92 -19 -156t43 -98t136 -34q96 0 194 26l175 817h253l-208 -983q-108 -38 -249.5 -63t-262.5 -25q-130 0 -189 33l-78 -397h-247z" />
<glyph unicode="&#xb6;" horiz-adv-x="1378" d="M137 795q1 68 17 143q103 489 499 489h744l-303 -1427h-238l98 471h-176l-98 -471h-240l99 471h-95q-81 0 -141 25t-95.5 68.5t-53.5 103t-17 127.5z" />
<glyph unicode="&#xb7;" horiz-adv-x="608" d="M160 621q21 97 62 126t140 29q105 0 135 -29t9 -126q-23 -106 -66 -139t-147 -33q-99 0 -127.5 33.5t-5.5 138.5z" />
<glyph unicode="&#xb8;" horiz-adv-x="1312" d="M336 -383l67 111q48 -25 142 -25q48 0 68 11t26 42q9 38 -29 49t-151 5l114 190h101l-19 -86q122 0 166.5 -35.5t24.5 -124.5q-20 -96 -91 -133t-227 -37q-127 0 -192 33z" />
<glyph unicode="&#xb9;" horiz-adv-x="772" d="M248 1292l504 193l-195 -916h-213l133 627l-213 -84z" />
<glyph unicode="&#xba;" horiz-adv-x="942" d="M219 875.5q-4 76.5 17 189.5q45 218 152 307.5t288 89.5q73 0 125.5 -12t92 -40.5t56.5 -74t20 -113t-18 -157.5q-46 -218 -154 -309.5t-292 -91.5q-89 0 -148.5 20.5t-97 67.5t-41.5 123.5zM427 871q22 -46 114 -46q94 0 138.5 47.5t74.5 190.5q13 62 16 103t-1.5 68 t-22.5 41t-42 19.5t-63 5.5q-64 0 -99 -17t-60.5 -67.5t-47.5 -152.5q-29 -146 -7 -192z" />
<glyph unicode="&#xbb;" horiz-adv-x="1368" d="M-2 215l451 418l-271 428l174 151l436 -573l-675 -573zM557 215l451 418l-271 428l174 151l437 -573l-676 -573z" />
<glyph unicode="&#xbc;" horiz-adv-x="1761" d="M121 0l1184 1427h249l-1183 -1427h-250zM217 1292l506 193l-195 -916h-215l133 627l-210 -84zM815 201l19 88q246 307 524 596h280l-104 -498h117l-41 -186h-117l-41 -201h-211l41 201h-467zM1098 387h225l70 330q-171 -168 -295 -330z" />
<glyph unicode="&#xbd;" horiz-adv-x="1761" d="M113 0l1183 1427h250l-1184 -1427h-249zM209 1292l506 193l-195 -916h-215l133 627l-211 -84zM905 0q56 198 142.5 294t244.5 157q100 36 151 71t62 88t-21.5 74t-127.5 21q-56 0 -130 -10.5t-116 -24.5l6 190q129 39 297 39q194 0 271 -62.5t47 -209.5 q-47 -214 -246 -279q-159 -52 -200 -74q-69 -35 -89 -92h440l-37 -182h-694z" />
<glyph unicode="&#xbe;" horiz-adv-x="1761" d="M68 571l69 174q93 -28 221 -28q109 0 151 22t56 84q13 65 -14.5 86t-118.5 21h-106l36 170h103q84 0 117 20t45 76q11 52 -18 69t-132 17q-133 0 -225 -29l4 174q150 33 293 33q192 0 268 -52.5t51 -172.5q-22 -101 -74.5 -152.5t-166.5 -60.5q118 -6 154.5 -62.5 t13.5 -166.5q-30 -138 -138.5 -197t-304.5 -59q-151 0 -284 34zM250 0l1186 1427h250l-1186 -1427h-250zM844 201l18 88q267 329 527 596h278l-104 -498h118l-41 -186h-118l-41 -201h-211l41 201h-467zM1126 387h226l69 330q-168 -168 -295 -330z" />
<glyph unicode="&#xbf;" horiz-adv-x="1009" d="M-45 16q24 112 90 218t155.5 195t225.5 196h266q-132 -115 -213.5 -204t-137.5 -187.5t-79 -206.5q-18 -90 27.5 -134.5t183.5 -44.5q183 0 301 43l6 -237q-72 -21 -185 -36t-198 -15q-281 0 -383.5 101t-58.5 312zM459 915q21 99 60 128.5t136 29.5q93 0 119.5 -30 t5.5 -128q-20 -90 -57.5 -116.5t-130.5 -26.5q-98 0 -125.5 26t-7.5 117z" />
<glyph unicode="&#xc0;" horiz-adv-x="1396" d="M-121 0q167 320 393.5 714t425.5 713h424q36 -355 94.5 -752t116.5 -675h-299q-39 199 -63 356h-625q-76 -142 -184 -356h-283zM469 588h475q-42 283 -70 610h-55q-150 -249 -350 -610zM614 1794h281l219 -264h-233z" />
<glyph unicode="&#xc1;" horiz-adv-x="1396" d="M-121 0q167 320 393.5 714t425.5 713h424q36 -355 94.5 -752t116.5 -675h-299q-39 199 -63 356h-625q-76 -142 -184 -356h-283zM469 588h475q-42 283 -70 610h-55q-150 -249 -350 -610zM729 1530l322 264h280l-381 -264h-221z" />
<glyph unicode="&#xc2;" horiz-adv-x="1396" d="M-121 0q167 320 393.5 714t425.5 713h424q36 -355 94.5 -752t116.5 -675h-299q-39 199 -63 356h-625q-76 -142 -184 -356h-283zM469 588h475q-42 283 -70 610h-55q-150 -249 -350 -610zM545 1530l307 264h250l201 -264h-238l-113 160l-178 -160h-229z" />
<glyph unicode="&#xc3;" horiz-adv-x="1396" d="M-121 0q167 320 393.5 714t425.5 713h424q36 -355 94.5 -752t116.5 -675h-299q-39 199 -63 356h-625q-76 -142 -184 -356h-283zM469 588h475q-42 283 -70 610h-55q-150 -249 -350 -610zM555 1628q62 79 123 120.5t131 41.5q38 0 72.5 -11t60 -27t48.5 -31.5t48.5 -26.5 t51.5 -11q36 0 67 25.5t68 91.5l104 -102q-48 -84 -124 -137.5t-163 -53.5q-41 0 -80 17.5t-64.5 38t-59.5 38t-66 17.5q-64 0 -125 -102z" />
<glyph unicode="&#xc4;" horiz-adv-x="1396" d="M-121 0q167 320 393.5 714t425.5 713h424q36 -355 94.5 -752t116.5 -675h-299q-39 199 -63 356h-625q-76 -142 -184 -356h-283zM469 588h475q-42 283 -70 610h-55q-150 -249 -350 -610zM602 1655q14 71 45 92.5t103 21.5q71 0 91 -21.5t5 -92.5q-17 -77 -47 -101 t-101 -24q-72 0 -92.5 24t-3.5 101zM1038 1655q15 71 45 92.5t103 21.5q71 0 91 -21.5t5 -92.5q-17 -77 -46.5 -101t-100.5 -24q-73 0 -93.5 24t-3.5 101z" />
<glyph unicode="&#xc5;" horiz-adv-x="1396" d="M-121 0q167 320 393.5 714t425.5 713h123q-79 12 -108.5 59.5t-10.5 135.5q23 109 90 155t199 46q126 0 175 -46.5t26 -154.5q-19 -90 -68 -136.5t-133 -58.5h131q36 -355 94.5 -752t116.5 -675h-299q-39 199 -63 356h-625q-76 -142 -184 -356h-283zM469 588h475 q-42 283 -70 610h-55q-150 -249 -350 -610zM846 1620q-11 -47 5.5 -67.5t76.5 -20.5t86 20.5t37 67.5q10 48 -7 68t-77 20t-85.5 -20.5t-35.5 -67.5z" />
<glyph unicode="&#xc6;" horiz-adv-x="1984" d="M-397 0q292 337 649 729t655 698h1223l-51 -233h-766l-70 -330h455l-49 -229h-455l-84 -402h766l-49 -233h-1034l73 356h-637q-164 -187 -303 -356h-323zM432 588h486l129 610h-58q-328 -351 -557 -610z" />
<glyph unicode="&#xc7;" horiz-adv-x="1212" d="M122.5 444.5q3.5 121.5 37.5 282.5q37 175 91 301t122.5 210t162.5 133.5t201 70t248 20.5q98 0 209.5 -15t189.5 -38l-110 -238q-50 20 -135 33t-158 13q-63 0 -109 -3t-92.5 -12t-80 -25t-66.5 -42t-57.5 -62t-48 -86.5t-42.5 -114.5t-36 -147q-24 -110 -31.5 -189.5 t3.5 -136.5t35 -91.5t71 -54.5t102.5 -27t138.5 -7q74 0 164 12.5t149 32.5l9 -241q-85 -22 -198 -36t-210 -16l-12 -57q122 0 166 -35.5t24 -124.5q-20 -96 -91 -133t-226 -37q-128 0 -193 33l68 111q48 -25 141 -25q48 0 68 11t26 42q9 38 -29 49t-151 5l98 165 q-117 8 -200.5 36.5t-141.5 84t-84 141.5t-22.5 207.5z" />
<glyph unicode="&#xc8;" horiz-adv-x="1269" d="M78 0l303 1427h1036l-51 -233h-766l-70 -330h547l-49 -231h-547l-84 -400h766l-49 -233h-1036zM690 1794h281l219 -264h-234z" />
<glyph unicode="&#xc9;" horiz-adv-x="1269" d="M78 0l303 1427h1036l-51 -233h-766l-70 -330h547l-49 -231h-547l-84 -400h766l-49 -233h-1036zM737 1530l322 264h280l-381 -264h-221z" />
<glyph unicode="&#xca;" horiz-adv-x="1269" d="M78 0l303 1427h1036l-51 -233h-766l-70 -330h547l-49 -231h-547l-84 -400h766l-49 -233h-1036zM559 1530l307 264h250l201 -264h-238l-112 160l-179 -160h-229z" />
<glyph unicode="&#xcb;" horiz-adv-x="1269" d="M78 0l303 1427h1036l-51 -233h-766l-70 -330h547l-49 -231h-547l-84 -400h766l-49 -233h-1036zM618 1655q14 71 45 92.5t103 21.5q71 0 91 -21.5t5 -92.5q-17 -77 -46.5 -101t-100.5 -24q-72 0 -93 24t-4 101zM1055 1655q15 71 44.5 92.5t102.5 21.5q71 0 91 -21.5 t5 -92.5q-17 -77 -46.5 -101t-100.5 -24q-73 0 -93 24t-3 101z" />
<glyph unicode="&#xcc;" horiz-adv-x="630" d="M78 0l303 1427h270l-303 -1427h-270zM217 1794h281l219 -264h-234z" />
<glyph unicode="&#xcd;" horiz-adv-x="630" d="M78 0l303 1427h270l-303 -1427h-270zM365 1530l321 264h281l-381 -264h-221z" />
<glyph unicode="&#xce;" horiz-adv-x="630" d="M78 0l303 1427h270l-303 -1427h-270zM160 1530l307 264h250l201 -264h-238l-113 160l-178 -160h-229z" />
<glyph unicode="&#xcf;" horiz-adv-x="630" d="M78 0l303 1427h270l-303 -1427h-270zM225 1655q14 71 45 92.5t103 21.5q71 0 91 -21.5t5 -92.5q-17 -77 -46.5 -101t-100.5 -24q-72 0 -93 24t-4 101zM662 1655q15 71 44.5 92.5t102.5 21.5q71 0 91 -21.5t5 -92.5q-17 -77 -46.5 -101t-100.5 -24q-73 0 -93 24t-3 101z " />
<glyph unicode="&#xd0;" horiz-adv-x="1507" d="M78 0l135 637h-107l39 188h107l129 602h545q117 0 204.5 -14t158 -46t113 -85.5t64 -132t17 -185.5t-34.5 -245q-44 -206 -113.5 -345.5t-174 -221.5t-233 -117t-304.5 -35h-545zM397 233h248q99 0 166.5 12t124.5 42t96 86t70 138.5t57 205.5q17 80 25.5 141t7.5 110 t-9 83.5t-28.5 60t-46 41t-67 24.5t-86 12t-107.5 3h-248l-78 -367h326l-39 -188h-326z" />
<glyph unicode="&#xd1;" horiz-adv-x="1585" d="M78 0l303 1427h354q205 -487 381 -1030l219 1030h269l-304 -1427h-329q-183 548 -402 1075l-227 -1075h-264zM664 1628q62 79 123 120.5t131 41.5q47 0 89 -16.5t68 -37t59 -37t64 -16.5q36 0 67 25.5t68 91.5l105 -102q-48 -84 -124 -137.5t-163 -53.5q-41 0 -80 17.5 t-64.5 38t-59.5 38t-66 17.5q-64 0 -125 -102z" />
<glyph unicode="&#xd2;" horiz-adv-x="1576" d="M123 466q6 114 37 261q46 215 117.5 359t177.5 226.5t234.5 116t305.5 33.5q117 0 205 -14t159 -47.5t114 -88.5t64.5 -136.5t16.5 -193t-36 -255.5q-46 -219 -118.5 -366.5t-178.5 -233t-235 -121t-306 -35.5q-117 0 -205.5 15t-159 50t-113 92t-64 140.5t-15.5 197.5z M412 400.5q6 -58.5 25.5 -93t61.5 -56t96 -29t136 -7.5t139.5 7.5t108.5 29t85 56t65.5 93t54.5 135t47 187.5q17 83 26.5 145.5t10.5 114t-5.5 87.5t-24.5 63t-42 43t-63 26t-83 13.5t-106 3.5q-84 0 -140 -6.5t-107 -26.5t-84.5 -52.5t-64.5 -90t-53.5 -133.5t-45.5 -187 q-24 -111 -33.5 -187.5t-3.5 -135zM713 1794h280l219 -264h-233z" />
<glyph unicode="&#xd3;" horiz-adv-x="1576" d="M123 466q6 114 37 261q46 215 117.5 359t177.5 226.5t234.5 116t305.5 33.5q117 0 205 -14t159 -47.5t114 -88.5t64.5 -136.5t16.5 -193t-36 -255.5q-46 -219 -118.5 -366.5t-178.5 -233t-235 -121t-306 -35.5q-117 0 -205.5 15t-159 50t-113 92t-64 140.5t-15.5 197.5z M412 400.5q6 -58.5 25.5 -93t61.5 -56t96 -29t136 -7.5t139.5 7.5t108.5 29t85 56t65.5 93t54.5 135t47 187.5q17 83 26.5 145.5t10.5 114t-5.5 87.5t-24.5 63t-42 43t-63 26t-83 13.5t-106 3.5q-84 0 -140 -6.5t-107 -26.5t-84.5 -52.5t-64.5 -90t-53.5 -133.5t-45.5 -187 q-24 -111 -33.5 -187.5t-3.5 -135zM737 1530l322 264h280l-381 -264h-221z" />
<glyph unicode="&#xd4;" horiz-adv-x="1576" d="M123 466q6 114 37 261q46 215 117.5 359t177.5 226.5t234.5 116t305.5 33.5q117 0 205 -14t159 -47.5t114 -88.5t64.5 -136.5t16.5 -193t-36 -255.5q-46 -219 -118.5 -366.5t-178.5 -233t-235 -121t-306 -35.5q-117 0 -205.5 15t-159 50t-113 92t-64 140.5t-15.5 197.5z M412 400.5q6 -58.5 25.5 -93t61.5 -56t96 -29t136 -7.5t139.5 7.5t108.5 29t85 56t65.5 93t54.5 135t47 187.5q17 83 26.5 145.5t10.5 114t-5.5 87.5t-24.5 63t-42 43t-63 26t-83 13.5t-106 3.5q-84 0 -140 -6.5t-107 -26.5t-84.5 -52.5t-64.5 -90t-53.5 -133.5t-45.5 -187 q-24 -111 -33.5 -187.5t-3.5 -135zM629 1530l307 264h250l200 -264h-237l-113 160l-178 -160h-229z" />
<glyph unicode="&#xd5;" horiz-adv-x="1576" d="M123 466q6 114 37 261q46 215 117.5 359t177.5 226.5t234.5 116t305.5 33.5q117 0 205 -14t159 -47.5t114 -88.5t64.5 -136.5t16.5 -193t-36 -255.5q-46 -219 -118.5 -366.5t-178.5 -233t-235 -121t-306 -35.5q-117 0 -205.5 15t-159 50t-113 92t-64 140.5t-15.5 197.5z M412 400.5q6 -58.5 25.5 -93t61.5 -56t96 -29t136 -7.5t139.5 7.5t108.5 29t85 56t65.5 93t54.5 135t47 187.5q17 83 26.5 145.5t10.5 114t-5.5 87.5t-24.5 63t-42 43t-63 26t-83 13.5t-106 3.5q-84 0 -140 -6.5t-107 -26.5t-84.5 -52.5t-64.5 -90t-53.5 -133.5t-45.5 -187 q-24 -111 -33.5 -187.5t-3.5 -135zM647 1628q62 79 123 120.5t131 41.5q38 0 72.5 -11t60 -27t48.5 -31.5t48.5 -26.5t51.5 -11q36 0 67 25.5t68 91.5l104 -102q-49 -84 -124 -137.5t-162 -53.5q-41 0 -80 17.5t-65 38t-60 38t-66 17.5q-64 0 -125 -102z" />
<glyph unicode="&#xd6;" horiz-adv-x="1576" d="M123 466q6 114 37 261q46 215 117.5 359t177.5 226.5t234.5 116t305.5 33.5q117 0 205 -14t159 -47.5t114 -88.5t64.5 -136.5t16.5 -193t-36 -255.5q-46 -219 -118.5 -366.5t-178.5 -233t-235 -121t-306 -35.5q-117 0 -205.5 15t-159 50t-113 92t-64 140.5t-15.5 197.5z M412 400.5q6 -58.5 25.5 -93t61.5 -56t96 -29t136 -7.5t139.5 7.5t108.5 29t85 56t65.5 93t54.5 135t47 187.5q17 83 26.5 145.5t10.5 114t-5.5 87.5t-24.5 63t-42 43t-63 26t-83 13.5t-106 3.5q-84 0 -140 -6.5t-107 -26.5t-84.5 -52.5t-64.5 -90t-53.5 -133.5t-45.5 -187 q-24 -111 -33.5 -187.5t-3.5 -135zM692 1655q14 71 45 92.5t103 21.5q71 0 91 -21.5t5 -92.5q-17 -77 -47 -101t-101 -24q-72 0 -92.5 24t-3.5 101zM1128 1655q15 71 45 92.5t103 21.5q71 0 91 -21.5t5 -92.5q-17 -77 -46.5 -101t-100.5 -24q-73 0 -93.5 24t-3.5 101z" />
<glyph unicode="&#xd7;" horiz-adv-x="1191" d="M156 477l321 266l-211 265l209 172l209 -267l324 269l135 -174l-324 -267l211 -266l-209 -170l-209 266l-321 -266z" />
<glyph unicode="&#xd8;" horiz-adv-x="1576" d="M-68 0l224 207q-69 171 4 520q46 215 117.5 359t177.5 226.5t234.5 116t305.5 33.5q287 0 410 -96l65 61h277l-225 -206q65 -170 -4 -494q-46 -219 -118.5 -366.5t-178.5 -233t-235 -121t-306 -35.5q-281 0 -406 92l-67 -63h-275zM418 446l768 719q-62 54 -242 54 q-78 0 -132.5 -6t-105 -23.5t-85 -47.5t-65 -78t-52.5 -114.5t-41 -158.5q-48 -213 -45 -345zM496 268q61 -53 235 -53q93 0 157 11t118.5 38t92 78t67 126t53.5 187q41 200 38 322z" />
<glyph unicode="&#xd9;" horiz-adv-x="1519" d="M130 304.5q2 57.5 17 127.5l213 995h273l-203 -954q-31 -142 29 -198t243 -56q180 0 267 54t118 200l203 954h269l-211 -995q-24 -111 -68.5 -192t-103.5 -132.5t-142.5 -82t-174 -42.5t-208.5 -12q-73 0 -132.5 4.5t-115 15t-97.5 28t-77 42.5t-56.5 60.5t-33 80.5 t-9.5 102.5zM717 1794h280l220 -264h-234z" />
<glyph unicode="&#xda;" horiz-adv-x="1519" d="M130 304.5q2 57.5 17 127.5l213 995h273l-203 -954q-31 -142 29 -198t243 -56q180 0 267 54t118 200l203 954h269l-211 -995q-24 -111 -68.5 -192t-103.5 -132.5t-142.5 -82t-174 -42.5t-208.5 -12q-73 0 -132.5 4.5t-115 15t-97.5 28t-77 42.5t-56.5 60.5t-33 80.5 t-9.5 102.5zM762 1530l321 264h281l-381 -264h-221z" />
<glyph unicode="&#xdb;" horiz-adv-x="1519" d="M130 304.5q2 57.5 17 127.5l213 995h273l-203 -954q-31 -142 29 -198t243 -56q180 0 267 54t118 200l203 954h269l-211 -995q-24 -111 -68.5 -192t-103.5 -132.5t-142.5 -82t-174 -42.5t-208.5 -12q-73 0 -132.5 4.5t-115 15t-97.5 28t-77 42.5t-56.5 60.5t-33 80.5 t-9.5 102.5zM598 1530l307 264h250l201 -264h-238l-112 160l-179 -160h-229z" />
<glyph unicode="&#xdc;" horiz-adv-x="1519" d="M130 304.5q2 57.5 17 127.5l213 995h273l-203 -954q-31 -142 29 -198t243 -56q180 0 267 54t118 200l203 954h269l-211 -995q-24 -111 -68.5 -192t-103.5 -132.5t-142.5 -82t-174 -42.5t-208.5 -12q-73 0 -132.5 4.5t-115 15t-97.5 28t-77 42.5t-56.5 60.5t-33 80.5 t-9.5 102.5zM662 1655q14 71 44.5 92.5t102.5 21.5q71 0 91 -21.5t5 -92.5q-17 -77 -46.5 -101t-100.5 -24q-72 0 -92.5 24t-3.5 101zM1098 1655q15 71 44.5 92.5t102.5 21.5q71 0 91 -21.5t5 -92.5q-17 -77 -46.5 -101t-100.5 -24q-73 0 -93 24t-3 101z" />
<glyph unicode="&#xdd;" horiz-adv-x="1306" d="M123 1427h352q146 -253 281 -544q300 314 493 544h328q-370 -420 -750 -811l-129 -616h-270l129 614q-254 516 -434 813zM684 1530l322 264h280l-381 -264h-221z" />
<glyph unicode="&#xde;" horiz-adv-x="1378" d="M78 0l303 1427h270l-45 -210h473q397 0 293 -490q-20 -95 -61 -177t-101 -148t-145 -104t-184 -38h-480l-53 -260h-270zM451 485h397q85 0 143 61.5t84 182.5q54 256 -114 256h-404z" />
<glyph unicode="&#xdf;" horiz-adv-x="1339" d="M39 0l229 1079q80 383 602 383q281 0 391.5 -86t69.5 -278q-16 -76 -39 -130.5t-64.5 -101.5t-108.5 -74.5t-161 -35.5q98 -4 159.5 -32.5t86 -77t26.5 -114.5t-18 -147q-49 -229 -200 -321.5t-459 -92.5q-73 0 -141 6l75 222q74 -9 121 -9q165 0 234 49t94 173 q27 129 -20.5 180t-190.5 51h-78l45 211h72q136 0 200 48.5t87 152.5q22 101 -28.5 140.5t-199.5 39.5q-133 0 -210.5 -50t-96.5 -141l-221 -1044h-256z" />
<glyph unicode="&#xe0;" d="M84 283q0 88 29 233q33 160 84.5 267.5t128.5 171.5t173.5 91t229.5 27q116 0 240.5 -21.5t199.5 -56.5l-145 -676q-10 -48 -10 -81q0 -83 61 -150l-217 -125q-40 14 -70 52.5t-38 78.5q-56 -54 -139.5 -86.5t-176.5 -32.5q-178 0 -264 69t-86 239zM350 348 q0 -87 43.5 -120t145.5 -33q88 0 154.5 33.5t78.5 90.5l109 510q-84 35 -195 35q-72 0 -116.5 -12t-83 -49.5t-63.5 -104t-48 -178.5q-25 -113 -25 -172zM436 1427h271l192 -264h-225z" />
<glyph unicode="&#xe1;" d="M84 283q0 88 29 233q33 160 84.5 267.5t128.5 171.5t173.5 91t229.5 27q116 0 240.5 -21.5t199.5 -56.5l-145 -676q-10 -48 -10 -81q0 -83 61 -150l-217 -125q-40 14 -70 52.5t-38 78.5q-56 -54 -139.5 -86.5t-176.5 -32.5q-178 0 -264 69t-86 239zM350 348 q0 -87 43.5 -120t145.5 -33q88 0 154.5 33.5t78.5 90.5l109 510q-84 35 -195 35q-72 0 -116.5 -12t-83 -49.5t-63.5 -104t-48 -178.5q-25 -113 -25 -172zM571 1163l306 264h272l-354 -264h-224z" />
<glyph unicode="&#xe2;" d="M84 283q0 88 29 233q33 160 84.5 267.5t128.5 171.5t173.5 91t229.5 27q116 0 240.5 -21.5t199.5 -56.5l-145 -676q-10 -48 -10 -81q0 -83 61 -150l-217 -125q-40 14 -70 52.5t-38 78.5q-56 -54 -139.5 -86.5t-176.5 -32.5q-178 0 -264 69t-86 239zM350 348 q0 -87 43.5 -120t145.5 -33q88 0 154.5 33.5t78.5 90.5l109 510q-84 35 -195 35q-72 0 -116.5 -12t-83 -49.5t-63.5 -104t-48 -178.5q-25 -113 -25 -172zM383 1163l307 264h250l201 -264h-240l-113 156l-174 -156h-231z" />
<glyph unicode="&#xe3;" d="M84 283q0 88 29 233q33 160 84.5 267.5t128.5 171.5t173.5 91t229.5 27q116 0 240.5 -21.5t199.5 -56.5l-145 -676q-10 -48 -10 -81q0 -83 61 -150l-217 -125q-40 14 -70 52.5t-38 78.5q-56 -54 -139.5 -86.5t-176.5 -32.5q-178 0 -264 69t-86 239zM348 1262 q65 82 126.5 123.5t133.5 41.5q47 0 86.5 -17t62.5 -37t54 -37t63 -17q37 0 67 25.5t69 93.5l104 -103q-48 -88 -119.5 -139t-160.5 -51q-41 0 -79 17t-62 37t-57.5 37t-66.5 17q-65 0 -129 -104zM350 348q0 -87 43.5 -120t145.5 -33q88 0 154.5 33.5t78.5 90.5l109 510 q-84 35 -195 35q-72 0 -116.5 -12t-83 -49.5t-63.5 -104t-48 -178.5q-25 -113 -25 -172z" />
<glyph unicode="&#xe4;" d="M84 283q0 88 29 233q33 160 84.5 267.5t128.5 171.5t173.5 91t229.5 27q116 0 240.5 -21.5t199.5 -56.5l-145 -676q-10 -48 -10 -81q0 -83 61 -150l-217 -125q-40 14 -70 52.5t-38 78.5q-56 -54 -139.5 -86.5t-176.5 -32.5q-178 0 -264 69t-86 239zM350 348 q0 -87 43.5 -120t145.5 -33q88 0 154.5 33.5t78.5 90.5l109 510q-84 35 -195 35q-72 0 -116.5 -12t-83 -49.5t-63.5 -104t-48 -178.5q-25 -113 -25 -172zM434 1282q15 71 43.5 92t100.5 21t93 -21t7 -92q-18 -79 -49 -103t-103 -24t-91 24t-1 103zM870 1282q15 71 44 92 t102 21q71 0 91.5 -21t6.5 -92q-18 -79 -48.5 -103t-100.5 -24q-73 0 -93 24t-2 103z" />
<glyph unicode="&#xe5;" d="M84 283q0 88 29 233q33 160 84.5 267.5t128.5 171.5t173.5 91t229.5 27q116 0 240.5 -21.5t199.5 -56.5l-145 -676q-10 -48 -10 -81q0 -83 61 -150l-217 -125q-40 14 -70 52.5t-38 78.5q-56 -54 -139.5 -86.5t-176.5 -32.5q-178 0 -264 69t-86 239zM350 348 q0 -87 43.5 -120t145.5 -33q88 0 154.5 33.5t78.5 90.5l109 510q-84 35 -195 35q-72 0 -116.5 -12t-83 -49.5t-63.5 -104t-48 -178.5q-25 -113 -25 -172zM506 1317q23 109 90 155t199 46q126 0 174.5 -46.5t25.5 -154.5q-23 -110 -91 -155.5t-195 -45.5t-176.5 45.5 t-26.5 155.5zM649 1313q-10 -47 7 -67.5t77 -20.5t85.5 21t35.5 67q10 48 -7 68t-77 20q-61 0 -86.5 -20t-34.5 -68z" />
<glyph unicode="&#xe6;" horiz-adv-x="1777" d="M66 319q18 86 51 148.5t74 100t100 59t118 28.5t138 7q117 0 252 -29q12 58 13.5 93.5t-8 63t-37.5 41t-70 19.5t-111 6q-183 0 -326 -47l-2 209q218 55 428 55q135 0 211.5 -28.5t108.5 -96.5q62 66 148.5 95.5t207.5 29.5q104 0 173 -16t119 -56t67.5 -110t9.5 -177 t-45 -259h-674q-11 -56 -12.5 -97.5t7.5 -71.5t26 -49.5t46 -30.5t63.5 -15.5t82.5 -4.5q58 0 148.5 12.5t152.5 30.5l-2 -200q-82 -26 -188 -42t-187 -16q-198 0 -289 74q-80 -35 -202 -54.5t-226 -19.5q-251 0 -330.5 73t-35.5 275zM327 229.5q9 -36.5 45.5 -50 t121.5 -13.5q59 0 135.5 14t118.5 35q-20 104 10 246q-76 18 -197 18q-114 0 -159 -27t-66 -122q-18 -64 -9 -100.5zM1055 649h438q23 134 -12 178.5t-148 44.5q-119 0 -179 -46.5t-99 -176.5z" />
<glyph unicode="&#xe7;" horiz-adv-x="962" d="M89 324.5q0 88.5 24 201.5q33 156 91.5 264.5t141.5 169.5t179 87t220 26q77 0 166 -14t142 -35l-105 -217q-106 45 -231 45q-76 0 -124 -11t-92 -45t-73.5 -100.5t-52.5 -173.5q-18 -82 -19.5 -140t11 -95t42.5 -57.5t68.5 -28.5t97.5 -8q123 0 254 49l11 -217 q-61 -23 -151 -37.5t-165 -16.5l-12 -57q122 0 166 -35.5t24 -124.5q-20 -96 -91 -133t-226 -37q-127 0 -192 33l67 111q48 -25 141 -25q48 0 68.5 11.5t26.5 41.5q9 38 -29 49t-152 5l101 167q-79 8 -138 30t-102.5 64t-65 103.5t-21.5 150z" />
<glyph unicode="&#xe8;" horiz-adv-x="1130" d="M89.5 336.5q1.5 84.5 23.5 189.5q32 154 87.5 261.5t133.5 169.5t170.5 89t210.5 27q104 0 173 -16t118.5 -56t67 -110t9.5 -177t-45 -259h-673q-11 -56 -12.5 -97.5t7.5 -71.5t26 -49.5t46 -30.5t63.5 -15.5t82.5 -4.5q58 0 148.5 12.5t152.5 30.5l-2 -200 q-82 -26 -188 -42t-187 -16q-78 0 -140 11.5t-114.5 37t-87 68.5t-53.5 103.5t-17.5 145zM408 649h438q23 134 -12 178.5t-148 44.5q-120 0 -179 -47t-99 -176zM479 1427h271l192 -264h-225z" />
<glyph unicode="&#xe9;" horiz-adv-x="1130" d="M89.5 336.5q1.5 84.5 23.5 189.5q32 154 87.5 261.5t133.5 169.5t170.5 89t210.5 27q104 0 173 -16t118.5 -56t67 -110t9.5 -177t-45 -259h-673q-11 -56 -12.5 -97.5t7.5 -71.5t26 -49.5t46 -30.5t63.5 -15.5t82.5 -4.5q58 0 148.5 12.5t152.5 30.5l-2 -200 q-82 -26 -188 -42t-187 -16q-78 0 -140 11.5t-114.5 37t-87 68.5t-53.5 103.5t-17.5 145zM408 649h438q23 134 -12 178.5t-148 44.5q-120 0 -179 -47t-99 -176zM555 1163l305 264h273l-355 -264h-223z" />
<glyph unicode="&#xea;" horiz-adv-x="1130" d="M89.5 336.5q1.5 84.5 23.5 189.5q32 154 87.5 261.5t133.5 169.5t170.5 89t210.5 27q104 0 173 -16t118.5 -56t67 -110t9.5 -177t-45 -259h-673q-11 -56 -12.5 -97.5t7.5 -71.5t26 -49.5t46 -30.5t63.5 -15.5t82.5 -4.5q58 0 148.5 12.5t152.5 30.5l-2 -200 q-82 -26 -188 -42t-187 -16q-78 0 -140 11.5t-114.5 37t-87 68.5t-53.5 103.5t-17.5 145zM371 1163l307 264h250l200 -264h-239l-113 156l-174 -156h-231zM408 649h438q23 134 -12 178.5t-148 44.5q-120 0 -179 -47t-99 -176z" />
<glyph unicode="&#xeb;" horiz-adv-x="1130" d="M89.5 336.5q1.5 84.5 23.5 189.5q32 154 87.5 261.5t133.5 169.5t170.5 89t210.5 27q104 0 173 -16t118.5 -56t67 -110t9.5 -177t-45 -259h-673q-11 -56 -12.5 -97.5t7.5 -71.5t26 -49.5t46 -30.5t63.5 -15.5t82.5 -4.5q58 0 148.5 12.5t152.5 30.5l-2 -200 q-82 -26 -188 -42t-187 -16q-78 0 -140 11.5t-114.5 37t-87 68.5t-53.5 103.5t-17.5 145zM408 649h438q23 134 -12 178.5t-148 44.5q-120 0 -179 -47t-99 -176zM430 1282q15 71 43 92t100 21t93.5 -21t7.5 -92q-18 -79 -49 -103t-103 -24t-91 24t-1 103zM866 1282 q15 71 44 92t102 21q71 0 91.5 -21t6.5 -92q-18 -79 -48.5 -103t-100.5 -24q-73 0 -93 24t-2 103z" />
<glyph unicode="&#xec;" horiz-adv-x="536" d="M39 0l221 1042h254l-221 -1042h-254zM119 1427h270l193 -264h-226z" />
<glyph unicode="&#xed;" horiz-adv-x="536" d="M39 0l221 1042h254l-221 -1042h-254zM233 1163l306 264h272l-354 -264h-224z" />
<glyph unicode="&#xee;" horiz-adv-x="536" d="M35 1163l307 264h250l201 -264h-240l-113 156l-174 -156h-231zM39 0l221 1042h254l-221 -1042h-254z" />
<glyph unicode="&#xef;" horiz-adv-x="536" d="M39 0l221 1042h254l-221 -1042h-254zM100 1282q15 71 43.5 92t100.5 21t93 -21t7 -92q-18 -79 -48.5 -103t-102.5 -24t-91.5 24t-1.5 103zM537 1282q15 71 43.5 92t101.5 21q71 0 91.5 -21t6.5 -92q-18 -79 -48.5 -103t-100.5 -24q-73 0 -92.5 24t-1.5 103z" />
<glyph unicode="&#xf0;" horiz-adv-x="1282" d="M96 446q51 241 185.5 336t433.5 95q90 0 176 -11q-28 102 -96 209l-166 -92l-74 133l164 90q-23 34 -50 69.5t-64.5 83t-53.5 68.5h336q14 -17 76 -92l141 78l70 -133l-127 -72q216 -359 133 -749q-25 -119 -58.5 -199.5t-81.5 -140t-119.5 -92t-165 -47.5t-225.5 -15 q-297 0 -394.5 106.5t-39.5 374.5zM377 434q-28 -126 12.5 -176.5t192.5 -50.5q64 0 104.5 5.5t77 21t59.5 47t42.5 81t35.5 125.5q17 87 12 148q-92 14 -217 14q-118 0 -178 -18t-91 -61.5t-50 -135.5z" />
<glyph unicode="&#xf1;" horiz-adv-x="1193" d="M39 0l209 983q107 38 249.5 64t262.5 26q90 0 153.5 -15t108 -49.5t64.5 -91.5t18.5 -139.5t-25.5 -195.5l-123 -582h-254l117 555q19 90 21 143.5t-16.5 87.5t-57.5 46t-109 12q-92 0 -190 -25l-174 -819h-254zM383 1262q65 82 126.5 123.5t133.5 41.5q47 0 86.5 -17 t62.5 -37t54 -37t63 -17q37 0 66.5 25.5t68.5 93.5l105 -103q-48 -87 -120 -138.5t-161 -51.5q-41 0 -79 17t-62 37t-57 37t-66 17q-65 0 -129 -104z" />
<glyph unicode="&#xf2;" d="M86.5 304q-0.5 94 26.5 222q33 158 86 265t131 168.5t172 87.5t223 26q86 0 151 -11t116.5 -36t83 -66.5t47 -102t11.5 -143t-26 -188.5q-34 -159 -86.5 -267t-130 -171.5t-173 -90t-226.5 -26.5q-103 0 -176 16.5t-126.5 55.5t-78 103t-25 158zM351.5 375 q-4.5 -59 2 -99t31 -61.5t59.5 -30t91 -8.5q96 0 150 26.5t92 100t69 219.5q19 91 24 151t-1.5 99.5t-32.5 60t-61 28t-93 7.5q-57 0 -94.5 -7.5t-71.5 -28t-57.5 -60t-44 -99.5t-39.5 -151q-19 -88 -23.5 -147zM494 1427h270l192 -264h-225z" />
<glyph unicode="&#xf3;" d="M86.5 304q-0.5 94 26.5 222q33 158 86 265t131 168.5t172 87.5t223 26q86 0 151 -11t116.5 -36t83 -66.5t47 -102t11.5 -143t-26 -188.5q-34 -159 -86.5 -267t-130 -171.5t-173 -90t-226.5 -26.5q-103 0 -176 16.5t-126.5 55.5t-78 103t-25 158zM351.5 375 q-4.5 -59 2 -99t31 -61.5t59.5 -30t91 -8.5q96 0 150 26.5t92 100t69 219.5q19 91 24 151t-1.5 99.5t-32.5 60t-61 28t-93 7.5q-57 0 -94.5 -7.5t-71.5 -28t-57.5 -60t-44 -99.5t-39.5 -151q-19 -88 -23.5 -147zM549 1163l305 264h272l-354 -264h-223z" />
<glyph unicode="&#xf4;" d="M86.5 304q-0.5 94 26.5 222q33 158 86 265t131 168.5t172 87.5t223 26q86 0 151 -11t116.5 -36t83 -66.5t47 -102t11.5 -143t-26 -188.5q-34 -159 -86.5 -267t-130 -171.5t-173 -90t-226.5 -26.5q-103 0 -176 16.5t-126.5 55.5t-78 103t-25 158zM351.5 375 q-4.5 -59 2 -99t31 -61.5t59.5 -30t91 -8.5q96 0 150 26.5t92 100t69 219.5q19 91 24 151t-1.5 99.5t-32.5 60t-61 28t-93 7.5q-57 0 -94.5 -7.5t-71.5 -28t-57.5 -60t-44 -99.5t-39.5 -151q-19 -88 -23.5 -147zM362 1163l308 264h250l200 -264h-239l-113 156l-174 -156 h-232z" />
<glyph unicode="&#xf5;" d="M86.5 304q-0.5 94 26.5 222q33 158 86 265t131 168.5t172 87.5t223 26q86 0 151 -11t116.5 -36t83 -66.5t47 -102t11.5 -143t-26 -188.5q-34 -159 -86.5 -267t-130 -171.5t-173 -90t-226.5 -26.5q-103 0 -176 16.5t-126.5 55.5t-78 103t-25 158zM351.5 375 q-4.5 -59 2 -99t31 -61.5t59.5 -30t91 -8.5q96 0 150 26.5t92 100t69 219.5q19 91 24 151t-1.5 99.5t-32.5 60t-61 28t-93 7.5q-57 0 -94.5 -7.5t-71.5 -28t-57.5 -60t-44 -99.5t-39.5 -151q-19 -88 -23.5 -147zM387 1262q65 82 126.5 123.5t133.5 41.5q47 0 86.5 -17 t62.5 -37t54 -37t63 -17q37 0 67 25.5t69 93.5l104 -103q-48 -87 -120 -138.5t-161 -51.5q-41 0 -79 17t-62 37t-57 37t-66 17q-65 0 -129 -104z" />
<glyph unicode="&#xf6;" d="M86.5 304q-0.5 94 26.5 222q33 158 86 265t131 168.5t172 87.5t223 26q86 0 151 -11t116.5 -36t83 -66.5t47 -102t11.5 -143t-26 -188.5q-34 -159 -86.5 -267t-130 -171.5t-173 -90t-226.5 -26.5q-103 0 -176 16.5t-126.5 55.5t-78 103t-25 158zM351.5 375 q-4.5 -59 2 -99t31 -61.5t59.5 -30t91 -8.5q96 0 150 26.5t92 100t69 219.5q19 91 24 151t-1.5 99.5t-32.5 60t-61 28t-93 7.5q-57 0 -94.5 -7.5t-71.5 -28t-57.5 -60t-44 -99.5t-39.5 -151q-19 -88 -23.5 -147zM430 1282q15 71 43 92t100 21t93.5 -21t7.5 -92 q-18 -79 -49 -103t-103 -24t-91 24t-1 103zM866 1282q15 71 44 92t102 21q71 0 91.5 -21t6.5 -92q-18 -79 -48.5 -103t-100.5 -24q-73 0 -93 24t-2 103z" />
<glyph unicode="&#xf7;" horiz-adv-x="1191" d="M127 621l51 241h996l-52 -241h-995zM397 313q20 91 58 118.5t131 27.5q97 0 125 -27.5t8 -118.5q-21 -98 -60.5 -127.5t-136.5 -29.5q-93 0 -119.5 29.5t-5.5 127.5zM582 1178q20 90 57.5 116.5t130.5 26.5q98 0 125.5 -26t7.5 -117q-21 -98 -61 -128t-137 -30 q-93 0 -118.5 30t-4.5 128z" />
<glyph unicode="&#xf8;" d="M-70 0l174 162q-43 124 9 364q33 158 86 265t131 168.5t172 87.5t223 26q199 0 291 -63l39 32h237l-176 -161q40 -125 -8 -355q-34 -159 -86.5 -267t-130 -171.5t-173 -90t-226.5 -26.5q-188 0 -289 64l-37 -35h-236zM362 395l465 439q-40 32 -147 32q-68 0 -110.5 -10.5 t-79 -42t-60 -89t-45.5 -153.5q-23 -115 -23 -176zM393 209q36 -31 142 -31q138 0 200.5 69t100.5 247q18 98 20 149z" />
<glyph unicode="&#xf9;" horiz-adv-x="1193" d="M103.5 265.5q1.5 82.5 25.5 195.5l125 581h254l-119 -555q-15 -72 -19 -119t2.5 -81.5t29 -53t57.5 -26.5t90 -8q99 0 194 26l175 817h253l-208 -983q-109 -38 -251.5 -64t-262.5 -26q-90 0 -153.5 15t-108.5 50t-65 92t-18.5 139.5zM479 1427h271l192 -264h-225z" />
<glyph unicode="&#xfa;" horiz-adv-x="1193" d="M103.5 265.5q1.5 82.5 25.5 195.5l125 581h254l-119 -555q-15 -72 -19 -119t2.5 -81.5t29 -53t57.5 -26.5t90 -8q99 0 194 26l175 817h253l-208 -983q-109 -38 -251.5 -64t-262.5 -26q-90 0 -153.5 15t-108.5 50t-65 92t-18.5 139.5zM553 1163l305 264h272l-354 -264 h-223z" />
<glyph unicode="&#xfb;" horiz-adv-x="1193" d="M103.5 265.5q1.5 82.5 25.5 195.5l125 581h254l-119 -555q-15 -72 -19 -119t2.5 -81.5t29 -53t57.5 -26.5t90 -8q99 0 194 26l175 817h253l-208 -983q-109 -38 -251.5 -64t-262.5 -26q-90 0 -153.5 15t-108.5 50t-65 92t-18.5 139.5zM373 1163l307 264h250l200 -264h-239 l-113 156l-174 -156h-231z" />
<glyph unicode="&#xfc;" horiz-adv-x="1193" d="M103.5 265.5q1.5 82.5 25.5 195.5l125 581h254l-119 -555q-15 -72 -19 -119t2.5 -81.5t29 -53t57.5 -26.5t90 -8q99 0 194 26l175 817h253l-208 -983q-109 -38 -251.5 -64t-262.5 -26q-90 0 -153.5 15t-108.5 50t-65 92t-18.5 139.5zM432 1282q15 71 43 92t100 21 t93.5 -21t7.5 -92q-18 -79 -49 -103t-103 -24t-91 24t-1 103zM868 1282q15 71 44 92t102 21q71 0 91.5 -21t6.5 -92q-18 -79 -48.5 -103t-100.5 -24q-73 0 -93 24t-2 103z" />
<glyph unicode="&#xfd;" horiz-adv-x="1046" d="M12 -393q90 116 242 342q-37 592 -135 1093h264q63 -334 90 -790q267 450 426 790h258q-248 -491 -627 -1085q-129 -203 -235 -350h-283zM510 1163l305 264h272l-354 -264h-223z" />
<glyph unicode="&#xfe;" d="M-45 -393l391 1845h254l-84 -399q117 20 207 20q106 0 181 -16.5t128 -54.5t77.5 -102t24 -157t-27.5 -221q-33 -156 -86.5 -264.5t-127.5 -170.5t-160 -89t-195 -27q-132 0 -238 60l-90 -424h-254zM352 287q-9 -45 44.5 -73t140.5 -28q135 0 200.5 69t106.5 261 q19 87 23 145.5t-3.5 97t-33.5 59t-61.5 28.5t-92.5 8q-121 0 -209 -31z" />
<glyph unicode="&#xff;" horiz-adv-x="1046" d="M12 -393q90 116 242 342q-37 592 -135 1093h264q63 -334 90 -790q267 450 426 790h258q-248 -491 -627 -1085q-129 -203 -235 -350h-283zM360 1282q15 71 43.5 92t100.5 21t93 -21t7 -92q-18 -79 -48.5 -103t-102.5 -24t-91.5 24t-1.5 103zM797 1282q15 71 43.5 92 t101.5 21q71 0 91.5 -21t6.5 -92q-18 -79 -48.5 -103t-100.5 -24q-73 0 -92.5 24t-1.5 103z" />
<glyph unicode="&#x100;" horiz-adv-x="1396" d="M-121 0q167 320 393.5 714t425.5 713h424q36 -355 94.5 -752t116.5 -675h-299q-39 199 -63 356h-625q-76 -142 -184 -356h-283zM469 588h475q-42 283 -70 610h-55q-150 -249 -350 -610zM639 1542l39 189h569l-39 -189h-569z" />
<glyph unicode="&#x101;" d="M84 283q0 88 29 233q33 160 84.5 267.5t128.5 171.5t173.5 91t229.5 27q116 0 240.5 -21.5t199.5 -56.5l-145 -676q-10 -48 -10 -81q0 -83 61 -150l-217 -125q-40 14 -70 52.5t-38 78.5q-56 -54 -139.5 -86.5t-176.5 -32.5q-178 0 -264 69t-86 239zM350 348 q0 -87 43.5 -120t145.5 -33q88 0 154.5 33.5t78.5 90.5l109 510q-84 35 -195 35q-72 0 -116.5 -12t-83 -49.5t-63.5 -104t-48 -178.5q-25 -113 -25 -172zM430 1180l39 184h569l-39 -184h-569z" />
<glyph unicode="&#x102;" horiz-adv-x="1396" d="M-121 0q167 320 393.5 714t425.5 713h424q36 -355 94.5 -752t116.5 -675h-299q-39 199 -63 356h-625q-76 -142 -184 -356h-283zM469 588h475q-42 283 -70 610h-55q-150 -249 -350 -610zM666 1784h174q-14 -69 11.5 -94t96.5 -25t110.5 25.5t53.5 93.5h164 q-62 -281 -367 -281t-243 281z" />
<glyph unicode="&#x103;" d="M84 283q0 88 29 233q33 160 84.5 267.5t128.5 171.5t173.5 91t229.5 27q116 0 240.5 -21.5t199.5 -56.5l-145 -676q-10 -48 -10 -81q0 -83 61 -150l-217 -125q-40 14 -70 52.5t-38 78.5q-56 -54 -139.5 -86.5t-176.5 -32.5q-178 0 -264 69t-86 239zM350 348 q0 -87 43.5 -120t145.5 -33q88 0 154.5 33.5t78.5 90.5l109 510q-84 35 -195 35q-72 0 -116.5 -12t-83 -49.5t-63.5 -104t-48 -178.5q-25 -113 -25 -172zM504 1427h174q-14 -69 11.5 -93.5t96.5 -24.5t110.5 25t53.5 93h164q-32 -144 -123 -212t-243 -68q-306 0 -244 280z " />
<glyph unicode="&#x104;" horiz-adv-x="1396" d="M-121 0q167 320 393.5 714t425.5 713h424q36 -355 94.5 -752t116.5 -675h-106q-90 -52 -125.5 -92.5t-46.5 -95.5q-9 -45 11.5 -63.5t92.5 -18.5q107 0 182 55l45 -129q-54 -35 -132.5 -53.5t-151.5 -18.5q-151 0 -201.5 44t-30.5 139q15 73 77 133.5t167 99.5h-80 q-39 199 -63 356h-625q-76 -142 -184 -356h-283zM469 588h475q-42 283 -70 610h-55q-150 -249 -350 -610z" />
<glyph unicode="&#x105;" d="M84 283q0 88 29 233q33 160 84.5 267.5t128.5 171.5t173.5 91t229.5 27q116 0 240.5 -21.5t199.5 -56.5l-145 -676q-10 -48 -10 -81q0 -83 61 -150l-110 -63l-91 -52l-16 -10q-30 12 -55 37q62 20 82 25h80q-117 -62 -160.5 -107t-56.5 -106q-9 -45 11.5 -63.5 t92.5 -18.5q107 0 182 55l45 -129q-54 -35 -132.5 -53.5t-151.5 -18.5q-151 0 -201.5 44t-30.5 139q15 71 76 132t164 101q-43 37 -53 94q-56 -54 -139.5 -86.5t-176.5 -32.5q-178 0 -264 69t-86 239zM350 348q0 -87 43.5 -120t145.5 -33q88 0 154.5 33.5t78.5 90.5l109 510 q-84 35 -195 35q-72 0 -116.5 -12t-83 -49.5t-63.5 -104t-48 -178.5q-25 -113 -25 -172z" />
<glyph unicode="&#x106;" horiz-adv-x="1212" d="M122.5 425q0.5 128 37.5 302q37 175 91 301t122.5 210t162.5 133.5t201 70t248 20.5q98 0 209.5 -15t189.5 -38l-110 -238q-50 20 -135 33t-158 13q-63 0 -109 -3t-92.5 -12t-80 -25t-66.5 -42t-57.5 -62t-48 -86.5t-42.5 -114.5t-36 -147q-24 -110 -31.5 -189.5 t3.5 -136.5t35 -91.5t71 -54.5t102.5 -27t138.5 -7q74 0 164 12.5t149 32.5l9 -241q-87 -23 -204 -37.5t-216 -14.5q-140 0 -239.5 23t-171 75.5t-104.5 140t-32.5 215.5zM723 1530l321 264h281l-381 -264h-221z" />
<glyph unicode="&#x107;" horiz-adv-x="962" d="M89 336q2 84 24 190q33 156 91.5 264.5t141.5 169.5t179 87t220 26q77 0 166 -14t142 -35l-105 -217q-106 45 -231 45q-76 0 -124 -11t-92 -45t-73.5 -100.5t-52.5 -173.5q-18 -82 -19.5 -140t11 -95t42.5 -57.5t68.5 -28.5t97.5 -8q123 0 254 49l11 -217 q-64 -24 -158 -39t-170 -15q-82 0 -146 11.5t-118 37t-88.5 68.5t-53.5 103.5t-17 144.5zM528 1163l306 264h272l-354 -264h-224z" />
<glyph unicode="&#x108;" horiz-adv-x="1212" d="M122.5 425q0.5 128 37.5 302q37 175 91 301t122.5 210t162.5 133.5t201 70t248 20.5q98 0 209.5 -15t189.5 -38l-110 -238q-50 20 -135 33t-158 13q-63 0 -109 -3t-92.5 -12t-80 -25t-66.5 -42t-57.5 -62t-48 -86.5t-42.5 -114.5t-36 -147q-24 -110 -31.5 -189.5 t3.5 -136.5t35 -91.5t71 -54.5t102.5 -27t138.5 -7q74 0 164 12.5t149 32.5l9 -241q-87 -23 -204 -37.5t-216 -14.5q-140 0 -239.5 23t-171 75.5t-104.5 140t-32.5 215.5zM610 1530l308 264h249l201 -264h-238l-112 160l-178 -160h-230z" />
<glyph unicode="&#x109;" horiz-adv-x="962" d="M89 336q2 84 24 190q33 156 91.5 264.5t141.5 169.5t179 87t220 26q77 0 166 -14t142 -35l-105 -217q-106 45 -231 45q-76 0 -124 -11t-92 -45t-73.5 -100.5t-52.5 -173.5q-18 -82 -19.5 -140t11 -95t42.5 -57.5t68.5 -28.5t97.5 -8q123 0 254 49l11 -217 q-64 -24 -158 -39t-170 -15q-82 0 -146 11.5t-118 37t-88.5 68.5t-53.5 103.5t-17 144.5zM362 1163l308 264h250l200 -264h-239l-113 156l-174 -156h-232z" />
<glyph unicode="&#x10a;" horiz-adv-x="1212" d="M122.5 425q0.5 128 37.5 302q37 175 91 301t122.5 210t162.5 133.5t201 70t248 20.5q98 0 209.5 -15t189.5 -38l-110 -238q-50 20 -135 33t-158 13q-63 0 -109 -3t-92.5 -12t-80 -25t-66.5 -42t-57.5 -62t-48 -86.5t-42.5 -114.5t-36 -147q-24 -110 -31.5 -189.5 t3.5 -136.5t35 -91.5t71 -54.5t102.5 -27t138.5 -7q74 0 164 12.5t149 32.5l9 -241q-87 -23 -204 -37.5t-216 -14.5q-140 0 -239.5 23t-171 75.5t-104.5 140t-32.5 215.5zM897 1661q15 71 44 93t101 22t93 -22t6 -93q-17 -77 -47.5 -101t-102.5 -24q-71 0 -91 24t-3 101z " />
<glyph unicode="&#x10b;" horiz-adv-x="962" d="M89 336q2 84 24 190q33 156 91.5 264.5t141.5 169.5t179 87t220 26q77 0 166 -14t142 -35l-105 -217q-106 45 -231 45q-76 0 -124 -11t-92 -45t-73.5 -100.5t-52.5 -173.5q-18 -82 -19.5 -140t11 -95t42.5 -57.5t68.5 -28.5t97.5 -8q123 0 254 49l11 -217 q-64 -24 -158 -39t-170 -15q-82 0 -146 11.5t-118 37t-88.5 68.5t-53.5 103.5t-17 144.5zM651 1282q15 71 43.5 92t100.5 21t93 -21t7 -92q-18 -79 -49 -103t-103 -24t-91 24t-1 103z" />
<glyph unicode="&#x10c;" horiz-adv-x="1212" d="M122.5 425q0.5 128 37.5 302q37 175 91 301t122.5 210t162.5 133.5t201 70t248 20.5q98 0 209.5 -15t189.5 -38l-110 -238q-50 20 -135 33t-158 13q-63 0 -109 -3t-92.5 -12t-80 -25t-66.5 -42t-57.5 -62t-48 -86.5t-42.5 -114.5t-36 -147q-24 -110 -31.5 -189.5 t3.5 -136.5t35 -91.5t71 -54.5t102.5 -27t138.5 -7q74 0 164 12.5t149 32.5l9 -241q-87 -23 -204 -37.5t-216 -14.5q-140 0 -239.5 23t-171 75.5t-104.5 140t-32.5 215.5zM641 1794h236l114 -160l178 160h230l-307 -264h-250z" />
<glyph unicode="&#x10d;" horiz-adv-x="962" d="M89 336q2 84 24 190q33 156 91.5 264.5t141.5 169.5t179 87t220 26q77 0 166 -14t142 -35l-105 -217q-106 45 -231 45q-76 0 -124 -11t-92 -45t-73.5 -100.5t-52.5 -173.5q-18 -82 -19.5 -140t11 -95t42.5 -57.5t68.5 -28.5t97.5 -8q123 0 254 49l11 -217 q-64 -24 -158 -39t-170 -15q-82 0 -146 11.5t-118 37t-88.5 68.5t-53.5 103.5t-17 144.5zM418 1427h239l111 -155l176 155h232l-308 -264h-250z" />
<glyph unicode="&#x10e;" horiz-adv-x="1507" d="M78 0l303 1427h545q117 0 204.5 -14t158 -46t113 -85.5t64 -132t17 -185.5t-34.5 -245q-44 -206 -113.5 -345.5t-174 -221.5t-233 -117t-304.5 -35h-545zM397 233h248q99 0 166.5 12t124.5 42t96 86t70 138.5t57 205.5q17 80 25 141t7.5 110.5t-8.5 84t-28.5 60.5t-46 41 t-67 24.5t-86 12.5t-107.5 3h-248zM598 1794h236l114 -160l178 160h230l-307 -264h-250z" />
<glyph unicode="&#x10f;" d="M85 300.5q0 93.5 28 221.5q26 125 66.5 219.5t91 157t116 102t137 56t158.5 16.5q145 0 238 -59l98 465h254l-305 -1432q-90 -33 -222.5 -54.5t-246.5 -21.5q-107 0 -181.5 16.5t-128.5 54.5t-78.5 101.5t-24.5 157zM353 381q-4 -58 3.5 -97t33 -59.5t61 -28.5t92.5 -8 q109 0 207 31l114 539q10 45 -42 72.5t-140 27.5q-135 0 -200.5 -69.5t-106.5 -262.5q-18 -87 -22 -145zM1262 1085l124 394h226l-201 -394h-149z" />
<glyph unicode="&#x110;" horiz-adv-x="1507" d="M78 0l303 1427h545q117 0 204.5 -14t158 -46t113 -85.5t64 -132t17 -185.5t-34.5 -245q-44 -206 -113.5 -345.5t-174 -221.5t-233 -117t-304.5 -35h-545zM397 233h248q99 0 166.5 12t124.5 42t96 86t70 138.5t57 205.5q17 80 25 141t7.5 110.5t-8.5 84t-28.5 60.5t-46 41 t-67 24.5t-86 12.5t-107.5 3h-248zM659 1542l39 189h570l-39 -189h-570z" />
<glyph unicode="&#x111;" d="M85 300.5q0 93.5 28 221.5q26 125 66.5 219.5t91 157t116 102t137 56t158.5 16.5q145 0 238 -59l34 168h-182l39 182h182l25 115h254l-25 -115h101l-39 -182h-101l-241 -1135q-90 -33 -222.5 -54.5t-246.5 -21.5q-107 0 -181.5 16.5t-128.5 54.5t-78.5 101.5t-24.5 157z M353 381q-4 -58 3.5 -97t33 -59.5t61 -28.5t92.5 -8q109 0 207 31l114 539q10 45 -42 72.5t-140 27.5q-135 0 -200.5 -69.5t-106.5 -262.5q-18 -87 -22 -145z" />
<glyph unicode="&#x112;" horiz-adv-x="1269" d="M78 0l303 1427h1036l-51 -233h-766l-70 -330h547l-49 -231h-547l-84 -400h766l-49 -233h-1036zM641 1542l39 189h569l-39 -189h-569z" />
<glyph unicode="&#x113;" horiz-adv-x="1130" d="M89.5 336.5q1.5 84.5 23.5 189.5q32 154 87.5 261.5t133.5 169.5t170.5 89t210.5 27q104 0 173 -16t118.5 -56t67 -110t9.5 -177t-45 -259h-673q-11 -56 -12.5 -97.5t7.5 -71.5t26 -49.5t46 -30.5t63.5 -15.5t82.5 -4.5q58 0 148.5 12.5t152.5 30.5l-2 -200 q-82 -26 -188 -42t-187 -16q-78 0 -140 11.5t-114.5 37t-87 68.5t-53.5 103.5t-17.5 145zM408 649h438q23 134 -12 178.5t-148 44.5q-120 0 -179 -47t-99 -176zM467 1180l39 184h569l-39 -184h-569z" />
<glyph unicode="&#x114;" horiz-adv-x="1269" d="M78 0l303 1427h1036l-51 -233h-766l-70 -330h547l-49 -231h-547l-84 -400h766l-49 -233h-1036zM690 1784h174q-14 -69 12 -94t97 -25t110.5 25.5t53.5 93.5h163q-62 -281 -366 -281q-306 0 -244 281z" />
<glyph unicode="&#x115;" horiz-adv-x="1130" d="M89.5 336.5q1.5 84.5 23.5 189.5q32 154 87.5 261.5t133.5 169.5t170.5 89t210.5 27q104 0 173 -16t118.5 -56t67 -110t9.5 -177t-45 -259h-673q-11 -56 -12.5 -97.5t7.5 -71.5t26 -49.5t46 -30.5t63.5 -15.5t82.5 -4.5q58 0 148.5 12.5t152.5 30.5l-2 -200 q-82 -26 -188 -42t-187 -16q-78 0 -140 11.5t-114.5 37t-87 68.5t-53.5 103.5t-17.5 145zM408 649h438q23 134 -12 178.5t-148 44.5q-120 0 -179 -47t-99 -176zM489 1427h175q-14 -69 11.5 -93.5t96.5 -24.5t110.5 25t53.5 93h164q-32 -144 -123.5 -212t-243.5 -68 q-306 0 -244 280z" />
<glyph unicode="&#x116;" horiz-adv-x="1269" d="M78 0l303 1427h1036l-51 -233h-766l-70 -330h547l-49 -231h-547l-84 -400h766l-49 -233h-1036zM870 1661q15 71 44.5 93t101.5 22t92.5 -22t5.5 -93q-17 -77 -47.5 -101t-101.5 -24q-72 0 -92 24t-3 101z" />
<glyph unicode="&#x117;" horiz-adv-x="1130" d="M89.5 336.5q1.5 84.5 23.5 189.5q32 154 87.5 261.5t133.5 169.5t170.5 89t210.5 27q104 0 173 -16t118.5 -56t67 -110t9.5 -177t-45 -259h-673q-11 -56 -12.5 -97.5t7.5 -71.5t26 -49.5t46 -30.5t63.5 -15.5t82.5 -4.5q58 0 148.5 12.5t152.5 30.5l-2 -200 q-82 -26 -188 -42t-187 -16q-78 0 -140 11.5t-114.5 37t-87 68.5t-53.5 103.5t-17.5 145zM408 649h438q23 134 -12 178.5t-148 44.5q-120 0 -179 -47t-99 -176zM645 1282q15 71 43 92t100 21t93.5 -21t7.5 -92q-18 -79 -49 -103t-103 -24t-91 24t-1 103z" />
<glyph unicode="&#x118;" horiz-adv-x="1269" d="M78 0l303 1427h1036l-51 -233h-766l-70 -330h547l-49 -231h-547l-84 -400h766l-49 -233h-98q-90 -52 -125.5 -92.5t-46.5 -95.5q-9 -45 11.5 -63.5t92.5 -18.5q107 0 182 55l46 -129q-54 -35 -133 -53.5t-152 -18.5q-151 0 -201.5 44t-30.5 139q15 73 77 133.5t167 99.5 h-825z" />
<glyph unicode="&#x119;" horiz-adv-x="1130" d="M89.5 336.5q1.5 84.5 23.5 189.5q32 154 87.5 261.5t133.5 169.5t170.5 89t210.5 27q104 0 173 -16t118.5 -56t67 -110t9.5 -177t-45 -259h-673q-11 -56 -12.5 -97.5t7.5 -71.5t26 -49.5t46 -30.5t63.5 -15.5t82.5 -4.5q58 0 148.5 12.5t152.5 30.5l-2 -200 q-47 -16 -95 -25q-94 -54 -130.5 -95t-47.5 -97q-9 -45 12 -63.5t93 -18.5q107 0 182 55l45 -129q-54 -35 -133 -53.5t-152 -18.5q-151 0 -201 44t-30 139q29 133 190 210q-58 -6 -108 -6q-78 0 -140 11.5t-114.5 37t-87 68.5t-53.5 103.5t-17.5 145zM408 649h438 q23 134 -12 178.5t-148 44.5q-120 0 -179 -47t-99 -176z" />
<glyph unicode="&#x11a;" horiz-adv-x="1269" d="M78 0l303 1427h1036l-51 -233h-766l-70 -330h547l-49 -231h-547l-84 -400h766l-49 -233h-1036zM616 1794h236l115 -160l178 160h229l-307 -264h-250z" />
<glyph unicode="&#x11b;" horiz-adv-x="1130" d="M89.5 336.5q1.5 84.5 23.5 189.5q32 154 87.5 261.5t133.5 169.5t170.5 89t210.5 27q104 0 173 -16t118.5 -56t67 -110t9.5 -177t-45 -259h-673q-11 -56 -12.5 -97.5t7.5 -71.5t26 -49.5t46 -30.5t63.5 -15.5t82.5 -4.5q58 0 148.5 12.5t152.5 30.5l-2 -200 q-82 -26 -188 -42t-187 -16q-78 0 -140 11.5t-114.5 37t-87 68.5t-53.5 103.5t-17.5 145zM408 649h438q23 134 -12 178.5t-148 44.5q-120 0 -179 -47t-99 -176zM416 1427h239l111 -155l176 155h232l-308 -264h-250z" />
<glyph unicode="&#x11c;" horiz-adv-x="1433" d="M122.5 425q0.5 128 37.5 302q31 145 74.5 257t102 193t127.5 136.5t157.5 88t185 46.5t217.5 14q99 0 221.5 -15t198.5 -38l-107 -235q-49 19 -156 31t-188 12q-88 0 -147 -6t-117 -24.5t-96 -51.5t-73.5 -88t-61.5 -133.5t-49 -188.5q-24 -110 -31.5 -189.5t3.5 -136.5 t35 -92t71 -55.5t102.5 -27.5t138.5 -7q94 0 188 21l78 368h-311l49 228h588l-170 -801q-92 -27 -242 -44.5t-278 -17.5q-140 0 -239.5 23t-171 75.5t-104.5 140t-32.5 215.5zM629 1530l307 264h250l200 -264h-237l-113 160l-178 -160h-229z" />
<glyph unicode="&#x11d;" d="M-41 -356l94 204q148 -51 301 -51q155 0 242.5 54t116.5 192q-128 -68 -279 -68q-89 0 -152.5 15.5t-110.5 53.5t-68 100t-20 155t28 219q34 159 86 266.5t129.5 171t174.5 90.5t230 27q115 0 239 -21.5t199 -56.5l-194 -915q-26 -120 -72 -208.5t-104 -143.5t-137.5 -88 t-162.5 -45.5t-188 -12.5q-89 0 -189.5 18t-162.5 44zM350 359.5q-2 -61.5 19 -99t61 -51.5t109 -14q88 0 152.5 26t74.5 72l115 536q-84 35 -195 35q-58 0 -96.5 -7.5t-73 -28t-58.5 -59.5t-45 -99t-40 -150q-21 -99 -23 -160.5zM383 1163l307 264h250l201 -264h-240 l-113 156l-174 -156h-231z" />
<glyph unicode="&#x11e;" horiz-adv-x="1433" d="M122.5 425q0.5 128 37.5 302q31 145 74.5 257t102 193t127.5 136.5t157.5 88t185 46.5t217.5 14q99 0 221.5 -15t198.5 -38l-107 -235q-49 19 -156 31t-188 12q-88 0 -147 -6t-117 -24.5t-96 -51.5t-73.5 -88t-61.5 -133.5t-49 -188.5q-24 -110 -31.5 -189.5t3.5 -136.5 t35 -92t71 -55.5t102.5 -27.5t138.5 -7q94 0 188 21l78 368h-311l49 228h588l-170 -801q-92 -27 -242 -44.5t-278 -17.5q-140 0 -239.5 23t-171 75.5t-104.5 140t-32.5 215.5zM750 1784h174q-14 -69 11.5 -94t96.5 -25t110.5 25.5t53.5 93.5h164q-62 -281 -367 -281 t-243 281z" />
<glyph unicode="&#x11f;" d="M-41 -356l94 204q148 -51 301 -51q155 0 242.5 54t116.5 192q-128 -68 -279 -68q-89 0 -152.5 15.5t-110.5 53.5t-68 100t-20 155t28 219q34 159 86 266.5t129.5 171t174.5 90.5t230 27q115 0 239 -21.5t199 -56.5l-194 -915q-26 -120 -72 -208.5t-104 -143.5t-137.5 -88 t-162.5 -45.5t-188 -12.5q-89 0 -189.5 18t-162.5 44zM350 359.5q-2 -61.5 19 -99t61 -51.5t109 -14q88 0 152.5 26t74.5 72l115 536q-84 35 -195 35q-58 0 -96.5 -7.5t-73 -28t-58.5 -59.5t-45 -99t-40 -150q-21 -99 -23 -160.5zM510 1427h174q-14 -69 12 -93.5t97 -24.5 t110 25t53 93h164q-32 -144 -123 -212t-243 -68q-306 0 -244 280z" />
<glyph unicode="&#x120;" horiz-adv-x="1433" d="M122.5 425q0.5 128 37.5 302q31 145 74.5 257t102 193t127.5 136.5t157.5 88t185 46.5t217.5 14q99 0 221.5 -15t198.5 -38l-107 -235q-49 19 -156 31t-188 12q-88 0 -147 -6t-117 -24.5t-96 -51.5t-73.5 -88t-61.5 -133.5t-49 -188.5q-24 -110 -31.5 -189.5t3.5 -136.5 t35 -92t71 -55.5t102.5 -27.5t138.5 -7q94 0 188 21l78 368h-311l49 228h588l-170 -801q-92 -27 -242 -44.5t-278 -17.5q-140 0 -239.5 23t-171 75.5t-104.5 140t-32.5 215.5zM930 1661q15 71 44 93t101 22t93 -22t6 -93q-17 -77 -47.5 -101t-102.5 -24q-71 0 -91 24t-3 101 z" />
<glyph unicode="&#x121;" d="M-41 -356l94 204q148 -51 301 -51q155 0 242.5 54t116.5 192q-128 -68 -279 -68q-89 0 -152.5 15.5t-110.5 53.5t-68 100t-20 155t28 219q34 159 86 266.5t129.5 171t174.5 90.5t230 27q115 0 239 -21.5t199 -56.5l-194 -915q-26 -120 -72 -208.5t-104 -143.5t-137.5 -88 t-162.5 -45.5t-188 -12.5q-89 0 -189.5 18t-162.5 44zM350 359.5q-2 -61.5 19 -99t61 -51.5t109 -14q88 0 152.5 26t74.5 72l115 536q-84 35 -195 35q-58 0 -96.5 -7.5t-73 -28t-58.5 -59.5t-45 -99t-40 -150q-21 -99 -23 -160.5zM651 1282q15 71 43.5 92t100.5 21t93 -21 t7 -92q-18 -79 -49 -103t-103 -24t-91 24t-1 103z" />
<glyph unicode="&#x122;" horiz-adv-x="1433" d="M122 436q2 124 38 291q31 145 74.5 257t102 193t127.5 136.5t157.5 88t185 46.5t217.5 14q99 0 221.5 -15t198.5 -38l-107 -235q-49 19 -156 31t-188 12q-88 0 -147 -6t-117 -24.5t-96 -51.5t-73.5 -88t-61.5 -133.5t-49 -188.5q-24 -110 -31.5 -189.5t3.5 -136.5t35 -92 t71 -55.5t102.5 -27.5t138.5 -7q94 0 188 21l78 368h-311l49 228h588l-170 -801q-83 -24 -213 -40.5t-252 -19.5l-12 -59q122 0 166 -35.5t24 -124.5q-20 -96 -91 -133t-226 -37q-128 0 -193 33l68 111q48 -25 141 -25q48 0 68 11t26 42q9 38 -29 49t-151 5l98 163 q-127 4 -217.5 30t-154.5 81t-93 141.5t-27 210.5z" />
<glyph unicode="&#x123;" d="M-41 -356l94 204q148 -51 301 -51q155 0 242.5 54t116.5 192q-128 -68 -279 -68q-89 0 -152.5 15.5t-110.5 53.5t-68 100t-20 155t28 219q34 159 86 266.5t129.5 171t174.5 90.5t230 27q115 0 239 -21.5t199 -56.5l-194 -915q-26 -120 -72 -208.5t-104 -143.5t-137.5 -88 t-162.5 -45.5t-188 -12.5q-89 0 -189.5 18t-162.5 44zM350 359.5q-2 -61.5 19 -99t61 -51.5t109 -14q88 0 152.5 26t74.5 72l115 536q-84 35 -195 35q-58 0 -96.5 -7.5t-73 -28t-58.5 -59.5t-45 -99t-40 -150q-21 -99 -23 -160.5zM604 1196l219 342h275l-295 -342h-199z" />
<glyph unicode="&#x124;" horiz-adv-x="1507" d="M78 0l303 1427h270l-116 -544h610l117 544h266l-303 -1427h-267l134 633h-611l-133 -633h-270zM590 1530l307 264h250l201 -264h-238l-113 160l-178 -160h-229z" />
<glyph unicode="&#x125;" horiz-adv-x="1193" d="M39 0l313 1479h254l-102 -478q64 30 146.5 51t156.5 21q77 0 130.5 -12t95 -42.5t59.5 -83.5t16.5 -136.5t-25.5 -198.5l-127 -600h-254l123 580q29 136 -3 200t-150 64q-83 0 -146.5 -24.5t-72.5 -67.5l-160 -752h-254zM262 1530l307 264h250l201 -264h-238l-112 160 l-178 -160h-230z" />
<glyph unicode="&#x126;" horiz-adv-x="1507" d="M78 0l225 1065h-121l45 215h121l33 147h270l-33 -147h611l33 147h266l-33 -147h123l-45 -215h-123l-225 -1065h-267l134 633h-611l-133 -633h-270zM535 883h610l39 182h-611z" />
<glyph unicode="&#x127;" horiz-adv-x="1193" d="M39 0l252 1190h-105l37 178h105l24 111h254l-24 -111h211l-37 -178h-211l-41 -189q64 30 146.5 51t156.5 21q77 0 130.5 -12t95 -42.5t59.5 -83.5t16.5 -136.5t-25.5 -198.5l-127 -600h-254l123 580q14 66 15 112.5t-8.5 76t-33 46.5t-53 23t-73.5 6q-83 0 -146.5 -24.5 t-72.5 -67.5l-160 -752h-254z" />
<glyph unicode="&#x128;" horiz-adv-x="630" d="M78 0l303 1427h270l-303 -1427h-270zM178 1628q62 79 123 120.5t131 41.5q38 0 72.5 -11t60 -27t48.5 -31.5t48.5 -26.5t51.5 -11q36 0 67 25.5t68 91.5l104 -102q-49 -84 -124 -137.5t-162 -53.5q-41 0 -80 17.5t-65 38t-60 38t-66 17.5q-64 0 -125 -102z" />
<glyph unicode="&#x129;" horiz-adv-x="536" d="M39 0l221 1042h254l-221 -1042h-254zM57 1262q65 82 126.5 123.5t133.5 41.5q47 0 87 -17t63 -37t54 -37t63 -17q37 0 66.5 25.5t68.5 93.5l104 -103q-48 -88 -119.5 -139t-160.5 -51q-41 0 -79 17t-62 37t-57 37t-66 17q-65 0 -129 -104z" />
<glyph unicode="&#x12a;" horiz-adv-x="630" d="M78 0l303 1427h270l-303 -1427h-270zM258 1542l39 189h569l-39 -189h-569z" />
<glyph unicode="&#x12b;" horiz-adv-x="536" d="M39 0l221 1042h254l-221 -1042h-254zM133 1180l39 184h569l-39 -184h-569z" />
<glyph unicode="&#x12c;" horiz-adv-x="630" d="M78 0l303 1427h270l-303 -1427h-270zM291 1784h174q-14 -69 11.5 -94t96.5 -25t110.5 25.5t53.5 93.5h164q-62 -281 -366 -281q-306 0 -244 281z" />
<glyph unicode="&#x12d;" horiz-adv-x="536" d="M39 0l221 1042h254l-221 -1042h-254zM166 1427h174q-14 -69 12 -93.5t97 -24.5t110 25t53 93h164q-32 -144 -123 -212t-243 -68q-306 0 -244 280z" />
<glyph unicode="&#x12e;" horiz-adv-x="630" d="M-106 -233q18 74 78.5 134.5t164.5 98.5h-59l303 1427h270l-303 -1427h-98q-90 -52 -125.5 -92.5t-46.5 -95.5q-9 -45 11.5 -63.5t92.5 -18.5q108 0 183 55l45 -129q-54 -35 -133 -53.5t-152 -18.5q-151 0 -201 44t-30 139z" />
<glyph unicode="&#x12f;" horiz-adv-x="536" d="M-135 -233q18 73 79 134t165 99h-70l221 1042h254l-221 -1042h-72q-90 -52 -125.5 -92.5t-46.5 -95.5q-9 -45 12 -63.5t93 -18.5q107 0 182 55l45 -129q-54 -35 -133 -53.5t-152 -18.5q-151 0 -201 44t-30 139zM307 1352q17 79 51.5 102t122.5 23q87 0 111.5 -23 t7.5 -102q-20 -88 -55 -115t-121 -27q-88 0 -112.5 27t-4.5 115z" />
<glyph unicode="&#x130;" horiz-adv-x="630" d="M78 0l303 1427h270l-303 -1427h-270zM444 1661q15 71 44.5 93t101.5 22t92.5 -22t5.5 -93q-17 -77 -47.5 -101t-101.5 -24q-72 0 -92 24t-3 101z" />
<glyph unicode="&#x131;" horiz-adv-x="536" d="M39 0l221 1042h254l-221 -1042h-254z" />
<glyph unicode="&#x132;" horiz-adv-x="1572" d="M78 0l303 1427h270l-303 -1427h-270zM543 27l104 241q97 -43 236 -43q86 0 145.5 45t83.5 158l213 999h272l-221 -1034q-21 -99 -61.5 -174.5t-90.5 -121.5t-113.5 -75t-124.5 -40t-130 -11q-174 0 -313 56z" />
<glyph unicode="&#x133;" horiz-adv-x="1073" d="M39 0l221 1042h254l-221 -1042h-254zM307 1352q17 79 51.5 102t122.5 23q87 0 111.5 -23t7.5 -102q-20 -88 -55 -115t-121 -27q-88 0 -112.5 27t-4.5 115zM311 -416l45 211q91 0 140.5 38t68.5 138l230 1071h254l-228 -1065q-24 -115 -66.5 -191.5t-108 -121t-145 -62.5 t-190.5 -18zM842 1352q17 79 51.5 102t122.5 23q87 0 111.5 -23t7.5 -102q-20 -88 -55.5 -115t-121.5 -27q-88 0 -112 27t-4 115z" />
<glyph unicode="&#x134;" horiz-adv-x="944" d="M-86 27l104 241q100 -43 236 -43q86 0 145.5 45t83.5 158l213 999h273l-219 -1034q-21 -99 -61.5 -174.5t-90.5 -121.5t-114 -75t-125.5 -40t-131.5 -11q-170 0 -313 56zM471 1530l307 264h250l201 -264h-238l-112 160l-179 -160h-229z" />
<glyph unicode="&#x135;" horiz-adv-x="536" d="M-223 -416l45 211q91 0 140.5 38t68.5 138l229 1071h254l-227 -1065q-24 -115 -66.5 -191.5t-108 -121t-145 -62.5t-190.5 -18zM33 1163l307 264h250l201 -264h-240l-113 156l-174 -156h-231z" />
<glyph unicode="&#x136;" horiz-adv-x="1355" d="M78 0l303 1427h270l-303 -1427h-270zM238 -446l219 342h274l-295 -342h-198zM510 754q86 54 279 236t421 437h328q-234 -252 -418.5 -427t-259.5 -228q58 -46 177.5 -251t242.5 -521h-332q-128 326 -251 525.5t-187 228.5z" />
<glyph unicode="&#x137;" horiz-adv-x="1128" d="M39 0l313 1479h254l-196 -928q113 78 508 491h301q-178 -187 -312 -311.5t-188 -161.5q37 -27 120.5 -176.5t188.5 -392.5h-299q-247 516 -319 551l-117 -551h-254zM127 -446l219 342h275l-295 -342h-199z" />
<glyph unicode="&#x139;" horiz-adv-x="1128" d="M78 0l303 1427h270l-254 -1191h674l-49 -236h-944zM424 1530l321 264h281l-381 -264h-221z" />
<glyph unicode="&#x13a;" horiz-adv-x="548" d="M98 283l254 1196h254l-252 -1186q-32 -137 27 -246l-244 -96q-83 129 -39 332zM340 1530l322 264h280l-381 -264h-221z" />
<glyph unicode="&#x13b;" horiz-adv-x="1128" d="M78 0l303 1427h270l-254 -1191h674l-49 -236h-944zM190 -446l220 342h274l-295 -342h-199z" />
<glyph unicode="&#x13c;" horiz-adv-x="548" d="M-123 -446l219 342h275l-295 -342h-199zM98 283l254 1196h254l-252 -1186q-32 -137 27 -246l-244 -96q-83 129 -39 332z" />
<glyph unicode="&#x13d;" horiz-adv-x="1128" d="M78 0l303 1427h270l-254 -1191h674l-49 -236h-944zM735 1085l125 394h225l-200 -394h-150z" />
<glyph unicode="&#x13e;" horiz-adv-x="548" d="M98 283l254 1196h254l-252 -1186q-32 -137 27 -246l-244 -96q-83 129 -39 332zM610 1085l125 394h226l-201 -394h-150z" />
<glyph unicode="&#x13f;" horiz-adv-x="1128" d="M78 0l303 1427h270l-254 -1191h674l-49 -236h-944zM678 834q15 71 44 92.5t101 21.5t93 -21.5t6 -92.5q-17 -77 -47.5 -101t-102.5 -24q-71 0 -91 24t-3 101z" />
<glyph unicode="&#x140;" horiz-adv-x="548" d="M98 283l254 1196h254l-252 -1186q-32 -137 27 -246l-244 -96q-83 129 -39 332zM539 809q15 71 43 92t100 21t93 -21t7 -92q-18 -79 -48.5 -103t-102.5 -24t-91 24t-1 103z" />
<glyph unicode="&#x141;" horiz-adv-x="1128" d="M-4 268l53 252l164 119l168 788h270l-121 -565l379 279l-53 -254l-379 -277l-80 -374h674l-49 -236h-944l82 387z" />
<glyph unicode="&#x142;" horiz-adv-x="548" d="M-20 344l53 252q26 23 80.5 70t81.5 71l157 742h254l-98 -467l172 153l-53 -254l-174 -153l-99 -465q-6 -24 -6 -49q-9 -60 -1.5 -105t34.5 -92q-14 -6 -104 -41t-138 -53q-39 54 -51 116t2 160q10 67 23 119l28 137q-26 -23 -80.5 -70t-80.5 -71z" />
<glyph unicode="&#x143;" horiz-adv-x="1585" d="M78 0l303 1427h354q205 -487 381 -1030l219 1030h269l-304 -1427h-329q-183 548 -402 1075l-227 -1075h-264zM831 1530l322 264h281l-381 -264h-222z" />
<glyph unicode="&#x144;" horiz-adv-x="1193" d="M39 0l209 983q107 38 249.5 64t262.5 26q90 0 153.5 -15t108 -49.5t64.5 -91.5t18.5 -139.5t-25.5 -195.5l-123 -582h-254l117 555q19 90 21 143.5t-16.5 87.5t-57.5 46t-109 12q-92 0 -190 -25l-174 -819h-254zM516 1163l305 264h273l-355 -264h-223z" />
<glyph unicode="&#x145;" horiz-adv-x="1585" d="M78 0l303 1427h354q205 -487 381 -1030l219 1030h269l-304 -1427h-329q-183 548 -402 1075l-227 -1075h-264zM324 -446l219 342h274l-295 -342h-198z" />
<glyph unicode="&#x146;" horiz-adv-x="1193" d="M39 0l209 983q107 38 249.5 64t262.5 26q90 0 153.5 -15t108 -49.5t64.5 -91.5t18.5 -139.5t-25.5 -195.5l-123 -582h-254l117 555q19 90 21 143.5t-16.5 87.5t-57.5 46t-109 12q-92 0 -190 -25l-174 -819h-254zM127 -446l219 342h275l-295 -342h-199z" />
<glyph unicode="&#x147;" horiz-adv-x="1585" d="M78 0l303 1427h354q205 -487 381 -1030l219 1030h269l-304 -1427h-329q-183 548 -402 1075l-227 -1075h-264zM715 1794h235l115 -160l178 160h230l-308 -264h-250z" />
<glyph unicode="&#x148;" horiz-adv-x="1193" d="M39 0l209 983q107 38 249.5 64t262.5 26q90 0 153.5 -15t108 -49.5t64.5 -91.5t18.5 -139.5t-25.5 -195.5l-123 -582h-254l117 555q19 90 21 143.5t-16.5 87.5t-57.5 46t-109 12q-92 0 -190 -25l-174 -819h-254zM414 1427h239l111 -155l176 155h231l-307 -264h-250z" />
<glyph unicode="&#x14c;" horiz-adv-x="1576" d="M123 466q6 114 37 261q46 215 117.5 359t177.5 226.5t234.5 116t305.5 33.5q117 0 205 -14t159 -47.5t114 -88.5t64.5 -136.5t16.5 -193t-36 -255.5q-46 -219 -118.5 -366.5t-178.5 -233t-235 -121t-306 -35.5q-117 0 -205.5 15t-159 50t-113 92t-64 140.5t-15.5 197.5z M412 400.5q6 -58.5 25.5 -93t61.5 -56t96 -29t136 -7.5t139.5 7.5t108.5 29t85 56t65.5 93t54.5 135t47 187.5q17 83 26.5 145.5t10.5 114t-5.5 87.5t-24.5 63t-42 43t-63 26t-83 13.5t-106 3.5q-84 0 -140 -6.5t-107 -26.5t-84.5 -52.5t-64.5 -90t-53.5 -133.5t-45.5 -187 q-24 -111 -33.5 -187.5t-3.5 -135zM729 1542l39 189h569l-39 -189h-569z" />
<glyph unicode="&#x14d;" d="M86.5 304q-0.5 94 26.5 222q33 158 86 265t131 168.5t172 87.5t223 26q86 0 151 -11t116.5 -36t83 -66.5t47 -102t11.5 -143t-26 -188.5q-34 -159 -86.5 -267t-130 -171.5t-173 -90t-226.5 -26.5q-103 0 -176 16.5t-126.5 55.5t-78 103t-25 158zM351.5 375 q-4.5 -59 2 -99t31 -61.5t59.5 -30t91 -8.5q96 0 150 26.5t92 100t69 219.5q19 91 24 151t-1.5 99.5t-32.5 60t-61 28t-93 7.5q-57 0 -94.5 -7.5t-71.5 -28t-57.5 -60t-44 -99.5t-39.5 -151q-19 -88 -23.5 -147zM463 1180l39 184h569l-39 -184h-569z" />
<glyph unicode="&#x14e;" horiz-adv-x="1576" d="M123 466q6 114 37 261q46 215 117.5 359t177.5 226.5t234.5 116t305.5 33.5q117 0 205 -14t159 -47.5t114 -88.5t64.5 -136.5t16.5 -193t-36 -255.5q-46 -219 -118.5 -366.5t-178.5 -233t-235 -121t-306 -35.5q-117 0 -205.5 15t-159 50t-113 92t-64 140.5t-15.5 197.5z M412 400.5q6 -58.5 25.5 -93t61.5 -56t96 -29t136 -7.5t139.5 7.5t108.5 29t85 56t65.5 93t54.5 135t47 187.5q17 83 26.5 145.5t10.5 114t-5.5 87.5t-24.5 63t-42 43t-63 26t-83 13.5t-106 3.5q-84 0 -140 -6.5t-107 -26.5t-84.5 -52.5t-64.5 -90t-53.5 -133.5t-45.5 -187 q-24 -111 -33.5 -187.5t-3.5 -135zM760 1784h174q-14 -69 11.5 -94t96.5 -25t110.5 25.5t53.5 93.5h164q-62 -281 -366 -281q-306 0 -244 281z" />
<glyph unicode="&#x14f;" d="M86.5 304q-0.5 94 26.5 222q33 158 86 265t131 168.5t172 87.5t223 26q86 0 151 -11t116.5 -36t83 -66.5t47 -102t11.5 -143t-26 -188.5q-34 -159 -86.5 -267t-130 -171.5t-173 -90t-226.5 -26.5q-103 0 -176 16.5t-126.5 55.5t-78 103t-25 158zM351.5 375 q-4.5 -59 2 -99t31 -61.5t59.5 -30t91 -8.5q96 0 150 26.5t92 100t69 219.5q19 91 24 151t-1.5 99.5t-32.5 60t-61 28t-93 7.5q-57 0 -94.5 -7.5t-71.5 -28t-57.5 -60t-44 -99.5t-39.5 -151q-19 -88 -23.5 -147zM496 1427h174q-14 -69 11.5 -93.5t96.5 -24.5t110.5 25 t53.5 93h164q-32 -144 -123.5 -212t-243.5 -68q-305 0 -243 280z" />
<glyph unicode="&#x150;" horiz-adv-x="1576" d="M123 466q6 114 37 261q46 215 117.5 359t177.5 226.5t234.5 116t305.5 33.5q117 0 205 -14t159 -47.5t114 -88.5t64.5 -136.5t16.5 -193t-36 -255.5q-46 -219 -118.5 -366.5t-178.5 -233t-235 -121t-306 -35.5q-117 0 -205.5 15t-159 50t-113 92t-64 140.5t-15.5 197.5z M412 400.5q6 -58.5 25.5 -93t61.5 -56t96 -29t136 -7.5t139.5 7.5t108.5 29t85 56t65.5 93t54.5 135t47 187.5q17 83 26.5 145.5t10.5 114t-5.5 87.5t-24.5 63t-42 43t-63 26t-83 13.5t-106 3.5q-84 0 -140 -6.5t-107 -26.5t-84.5 -52.5t-64.5 -90t-53.5 -133.5t-45.5 -187 q-24 -111 -33.5 -187.5t-3.5 -135zM682 1530l244 264h223l-293 -264h-174zM1018 1530l244 264h223l-291 -264h-176z" />
<glyph unicode="&#x151;" d="M86.5 304q-0.5 94 26.5 222q33 158 86 265t131 168.5t172 87.5t223 26q86 0 151 -11t116.5 -36t83 -66.5t47 -102t11.5 -143t-26 -188.5q-34 -159 -86.5 -267t-130 -171.5t-173 -90t-226.5 -26.5q-103 0 -176 16.5t-126.5 55.5t-78 103t-25 158zM351.5 375 q-4.5 -59 2 -99t31 -61.5t59.5 -30t91 -8.5q96 0 150 26.5t92 100t69 219.5q19 91 24 151t-1.5 99.5t-32.5 60t-61 28t-93 7.5q-57 0 -94.5 -7.5t-71.5 -28t-57.5 -60t-44 -99.5t-39.5 -151q-19 -88 -23.5 -147zM422 1163l244 264h223l-293 -264h-174zM758 1163l243 264h224 l-291 -264h-176z" />
<glyph unicode="&#x152;" horiz-adv-x="2248" d="M123 466q6 114 37 261q46 215 117.5 359t177.5 226.5t234.5 116t305.5 33.5q180 0 295 -35h1106l-51 -233h-825q53 -108 22 -330h422l-49 -229h-422q-63 -273 -186 -402h835l-49 -233h-1135q-122 -29 -278 -29q-117 0 -205.5 15t-159 50t-113 92t-64 140.5t-15.5 197.5z M412 400.5q6 -58.5 25.5 -93t61.5 -56t96 -29t136 -7.5t139.5 7.5t108.5 29t85 56t65.5 93t54.5 135t47 187.5q17 83 26.5 145.5t10.5 114t-5.5 87.5t-24.5 63t-42 43t-63 26t-83 13.5t-106 3.5q-84 0 -140 -6.5t-107 -26.5t-84.5 -52.5t-64.5 -90t-53.5 -133.5t-45.5 -187 q-24 -111 -33.5 -187.5t-3.5 -135z" />
<glyph unicode="&#x153;" horiz-adv-x="1857" d="M86.5 304q-0.5 94 26.5 222q33 158 86 265t131 168.5t172 87.5t223 26q135 0 217 -31t121 -102q133 133 377 133q104 0 173 -16t119 -56t67.5 -110t9.5 -177.5t-46 -258.5h-673q-11 -56 -12 -97.5t8.5 -71.5t26.5 -49.5t45.5 -30.5t63 -15.5t81.5 -4.5q60 0 150 12.5 t151 30.5v-200q-84 -26 -189 -42t-188 -16q-129 0 -212.5 33.5t-123.5 108.5q-69 -76 -164.5 -109t-234.5 -33q-103 0 -176 16.5t-126.5 55.5t-78 103t-25 158zM351.5 375q-4.5 -59 2 -99t31 -61.5t59.5 -30t91 -8.5q96 0 150 26.5t92 100t69 219.5q19 91 24 151t-1.5 99.5 t-32.5 60t-61 28t-93 7.5q-57 0 -94.5 -7.5t-71.5 -28t-57.5 -60t-44 -99.5t-39.5 -151q-19 -88 -23.5 -147zM1133 649h438q24 134 -10.5 178.5t-147.5 44.5q-119 0 -179.5 -46.5t-100.5 -176.5z" />
<glyph unicode="&#x154;" horiz-adv-x="1445" d="M78 0l303 1427h743q88 0 152 -21.5t101 -58.5t54.5 -90.5t17.5 -113.5t-15 -131q-18 -81 -51 -147t-87 -121t-135.5 -87t-185.5 -36q68 -26 146.5 -167t199.5 -454h-334q-104 288 -184 416.5t-150 128.5h-190l-115 -545h-270zM510 768h403q79 0 133.5 53t77.5 156 q23 111 -6.5 166t-105.5 55h-410zM702 1530l322 264h281l-381 -264h-222z" />
<glyph unicode="&#x155;" horiz-adv-x="776" d="M39 0l221 1042h254l-16 -77q93 108 288 108q52 0 105 -6l-51 -242q-66 15 -129 15q-101 0 -178 -31.5t-87 -85.5l-153 -723h-254zM442 1163l306 264h272l-354 -264h-224z" />
<glyph unicode="&#x156;" horiz-adv-x="1445" d="M78 0l303 1427h743q88 0 152 -21.5t101 -58.5t54.5 -90.5t17.5 -113.5t-15 -131q-18 -81 -51 -147t-87 -121t-135.5 -87t-185.5 -36q68 -26 146.5 -167t199.5 -454h-334q-104 288 -184 416.5t-150 128.5h-190l-115 -545h-270zM276 -446l220 342h274l-295 -342h-199z M510 768h403q79 0 133.5 53t77.5 156q23 111 -6.5 166t-105.5 55h-410z" />
<glyph unicode="&#x157;" horiz-adv-x="776" d="M-160 -446l219 342h275l-295 -342h-199zM39 0l221 1042h254l-16 -77q93 108 288 108q52 0 105 -6l-51 -242q-66 15 -129 15q-101 0 -178 -31.5t-87 -85.5l-153 -723h-254z" />
<glyph unicode="&#x158;" horiz-adv-x="1445" d="M78 0l303 1427h743q88 0 152 -21.5t101 -58.5t54.5 -90.5t17.5 -113.5t-15 -131q-18 -81 -51 -147t-87 -121t-135.5 -87t-185.5 -36q68 -26 146.5 -167t199.5 -454h-334q-104 288 -184 416.5t-150 128.5h-190l-115 -545h-270zM510 768h403q79 0 133.5 53t77.5 156 q23 111 -6.5 166t-105.5 55h-410zM606 1794h236l114 -160l179 160h229l-307 -264h-250z" />
<glyph unicode="&#x159;" horiz-adv-x="776" d="M39 0l221 1042h254l-16 -77q93 108 288 108q52 0 105 -6l-51 -242q-66 15 -129 15q-101 0 -178 -31.5t-87 -85.5l-153 -723h-254zM293 1427h239l111 -155l176 155h232l-308 -264h-249z" />
<glyph unicode="&#x15a;" horiz-adv-x="1273" d="M23 35l108 233q64 -22 166.5 -36.5t204.5 -14.5q176 0 261 41t109 148q11 40 3.5 72.5t-35.5 57t-90.5 42t-161.5 26.5q-239 24 -329 112t-50 281q53 246 226 355.5t480 109.5q115 0 230 -17.5t194 -45.5l-110 -234q-57 22 -158.5 37t-206.5 15q-172 0 -255.5 -42 t-106.5 -145q-12 -58 4.5 -91t80 -56t189.5 -35q246 -26 338.5 -126.5t50.5 -301.5q-27 -125 -82.5 -211.5t-145.5 -139t-206.5 -75.5t-275.5 -23q-118 0 -235 17.5t-197 46.5zM657 1530l322 264h281l-381 -264h-222z" />
<glyph unicode="&#x15b;" horiz-adv-x="1005" d="M2 27l96 200q54 -21 138.5 -35t160.5 -14q112 0 164 25t68 102q13 58 -27.5 85.5t-169.5 39.5q-179 14 -250 78.5t-39 218.5q21 99 67.5 167.5t116.5 107t151.5 55t185.5 16.5q181 0 337 -57l-98 -199q-138 49 -293 49q-104 0 -150.5 -22.5t-62.5 -98.5q-12 -54 27 -77 t164 -35q189 -21 259 -91t38 -223q-21 -99 -67 -168t-115.5 -107.5t-151 -55.5t-186.5 -17q-88 0 -192.5 15.5t-170.5 40.5zM446 1163l306 264h272l-354 -264h-224z" />
<glyph unicode="&#x15c;" horiz-adv-x="1273" d="M23 35l108 233q64 -22 166.5 -36.5t204.5 -14.5q176 0 261 41t109 148q11 40 3.5 72.5t-35.5 57t-90.5 42t-161.5 26.5q-239 24 -329 112t-50 281q53 246 226 355.5t480 109.5q115 0 230 -17.5t194 -45.5l-110 -234q-57 22 -158.5 37t-206.5 15q-172 0 -255.5 -42 t-106.5 -145q-12 -58 4.5 -91t80 -56t189.5 -35q246 -26 338.5 -126.5t50.5 -301.5q-27 -125 -82.5 -211.5t-145.5 -139t-206.5 -75.5t-275.5 -23q-118 0 -235 17.5t-197 46.5zM516 1530l307 264h250l201 -264h-238l-112 160l-179 -160h-229z" />
<glyph unicode="&#x15d;" horiz-adv-x="1005" d="M2 27l96 200q54 -21 138.5 -35t160.5 -14q112 0 164 25t68 102q13 58 -27.5 85.5t-169.5 39.5q-179 14 -250 78.5t-39 218.5q21 99 67.5 167.5t116.5 107t151.5 55t185.5 16.5q181 0 337 -57l-98 -199q-138 49 -293 49q-104 0 -150.5 -22.5t-62.5 -98.5q-12 -54 27 -77 t164 -35q189 -21 259 -91t38 -223q-21 -99 -67 -168t-115.5 -107.5t-151 -55.5t-186.5 -17q-88 0 -192.5 15.5t-170.5 40.5zM293 1163l307 264h250l201 -264h-240l-113 156l-174 -156h-231z" />
<glyph unicode="&#x15e;" horiz-adv-x="1273" d="M23 35l108 233q64 -22 166.5 -36.5t204.5 -14.5q176 0 261 41t109 148q11 40 3.5 72.5t-35.5 57t-90.5 42t-161.5 26.5q-239 24 -329 112t-50 281q53 246 226 355.5t480 109.5q115 0 230 -17.5t194 -45.5l-110 -234q-57 22 -158.5 37t-206.5 15q-172 0 -255.5 -42 t-106.5 -145q-12 -58 4.5 -91t80 -56t189.5 -35q246 -26 338.5 -126.5t50.5 -301.5q-48 -224 -192.5 -327t-407.5 -118l-12 -61q122 0 166 -35.5t24 -124.5q-20 -96 -91 -133t-226 -37q-128 0 -193 33l68 111q48 -25 141 -25q48 0 68.5 11.5t26.5 41.5q9 38 -29 49t-152 5 l97 161q-118 0 -234 17.5t-196 46.5z" />
<glyph unicode="&#x15f;" horiz-adv-x="1005" d="M2 27l96 200q54 -21 138.5 -35t160.5 -14q112 0 164 25t68 102q13 58 -27.5 85.5t-169.5 39.5q-179 14 -250 78.5t-39 218.5q21 99 67.5 167.5t116.5 107t151.5 55t185.5 16.5q181 0 337 -57l-98 -199q-138 49 -293 49q-104 0 -150.5 -22.5t-62.5 -98.5q-12 -54 27 -77 t164 -35q189 -21 259 -91t38 -223q-38 -178 -154.5 -257t-304.5 -89l-12 -59q122 0 166 -35.5t24 -124.5q-20 -96 -91 -133t-226 -37q-128 0 -193 33l68 111q48 -25 141 -25q48 0 68 11t26 42q9 38 -29 49t-151 5l98 163q-80 3 -168 18t-145 36z" />
<glyph unicode="&#x160;" horiz-adv-x="1273" d="M23 35l108 233q64 -22 166.5 -36.5t204.5 -14.5q176 0 261 41t109 148q11 40 3.5 72.5t-35.5 57t-90.5 42t-161.5 26.5q-239 24 -329 112t-50 281q53 246 226 355.5t480 109.5q115 0 230 -17.5t194 -45.5l-110 -234q-57 22 -158.5 37t-206.5 15q-172 0 -255.5 -42 t-106.5 -145q-12 -58 4.5 -91t80 -56t189.5 -35q246 -26 338.5 -126.5t50.5 -301.5q-27 -125 -82.5 -211.5t-145.5 -139t-206.5 -75.5t-275.5 -23q-118 0 -235 17.5t-197 46.5zM555 1794h236l114 -160l178 160h230l-307 -264h-250z" />
<glyph unicode="&#x161;" horiz-adv-x="1005" d="M2 27l96 200q54 -21 138.5 -35t160.5 -14q112 0 164 25t68 102q13 58 -27.5 85.5t-169.5 39.5q-179 14 -250 78.5t-39 218.5q21 99 67.5 167.5t116.5 107t151.5 55t185.5 16.5q181 0 337 -57l-98 -199q-138 49 -293 49q-104 0 -150.5 -22.5t-62.5 -98.5q-12 -54 27 -77 t164 -35q189 -21 259 -91t38 -223q-21 -99 -67 -168t-115.5 -107.5t-151 -55.5t-186.5 -17q-88 0 -192.5 15.5t-170.5 40.5zM336 1427h239l111 -155l176 155h232l-308 -264h-249z" />
<glyph unicode="&#x162;" horiz-adv-x="1247" d="M156 1194l51 233h1235l-51 -233h-482l-252 -1194h-272l252 1194h-481zM195 -446l219 342h274l-295 -342h-198z" />
<glyph unicode="&#x163;" horiz-adv-x="849" d="M-2 -446l219 342h275l-295 -342h-199zM92 821l47 221h174l37 177l277 104l-60 -281h346l-47 -221h-346l-96 -448q-21 -100 4 -141.5t115 -41.5q88 0 184 29l2 -201q-136 -47 -295 -47q-74 0 -124.5 10t-89 34.5t-56 67.5t-18 109t19.5 158l100 471h-174z" />
<glyph unicode="&#x164;" horiz-adv-x="1247" d="M156 1194l51 233h1235l-51 -233h-482l-252 -1194h-272l252 1194h-481zM530 1794h236l115 -160l178 160h229l-307 -264h-250z" />
<glyph unicode="&#x165;" horiz-adv-x="849" d="M92 821l47 221h174l37 177l277 104l-60 -281h346l-47 -221h-346l-96 -448q-21 -100 4 -141.5t115 -41.5q88 0 184 29l2 -201q-136 -47 -295 -47q-74 0 -124.5 10t-89 34.5t-56 67.5t-18 109t19.5 158l100 471h-174zM743 1184l125 393h226l-201 -393h-150z" />
<glyph unicode="&#x166;" horiz-adv-x="1247" d="M156 1190l51 237h1235l-51 -237h-482l-110 -520h141l-41 -189h-141l-101 -481h-272l100 481h-157l41 189h157l111 520h-481z" />
<glyph unicode="&#x167;" horiz-adv-x="849" d="M70 444l34 168h117l45 211h-174l47 219h174l37 177l277 104l-60 -281h346l-47 -219h-346l-45 -211h199l-35 -168h-199l-16 -71q-21 -99 6 -141t117 -42q84 0 180 29l2 -201q-136 -47 -293 -47q-60 0 -105 6.5t-82.5 23t-59.5 44.5t-33.5 69.5t-8.5 100t19 135.5l20 94 h-116z" />
<glyph unicode="&#x168;" horiz-adv-x="1519" d="M130 304.5q2 57.5 17 127.5l213 995h273l-203 -954q-31 -142 29 -198t243 -56q180 0 267 54t118 200l203 954h269l-211 -995q-24 -111 -68.5 -192t-103.5 -132.5t-142.5 -82t-174 -42.5t-208.5 -12q-73 0 -132.5 4.5t-115 15t-97.5 28t-77 42.5t-56.5 60.5t-33 80.5 t-9.5 102.5zM625 1628q62 79 123 120.5t131 41.5q47 0 89 -16.5t68 -37t59 -37t64 -16.5q36 0 67 25.5t68 91.5l105 -102q-48 -84 -124 -137.5t-163 -53.5q-41 0 -80 17.5t-64.5 38t-59.5 38t-66 17.5q-64 0 -125 -102z" />
<glyph unicode="&#x169;" horiz-adv-x="1193" d="M103.5 265.5q1.5 82.5 25.5 195.5l125 581h254l-119 -555q-15 -72 -19 -119t2.5 -81.5t29 -53t57.5 -26.5t90 -8q99 0 194 26l175 817h253l-208 -983q-109 -38 -251.5 -64t-262.5 -26q-90 0 -153.5 15t-108.5 50t-65 92t-18.5 139.5zM387 1262q65 82 126.5 123.5 t133.5 41.5q47 0 86.5 -17t62.5 -37t54 -37t63 -17q37 0 67 25.5t69 93.5l104 -103q-48 -87 -120 -138.5t-161 -51.5q-41 0 -79 17t-62 37t-57 37t-66 17q-65 0 -129 -104z" />
<glyph unicode="&#x16a;" horiz-adv-x="1519" d="M130 304.5q2 57.5 17 127.5l213 995h273l-203 -954q-31 -142 29 -198t243 -56q180 0 267 54t118 200l203 954h269l-211 -995q-24 -111 -68.5 -192t-103.5 -132.5t-142.5 -82t-174 -42.5t-208.5 -12q-73 0 -132.5 4.5t-115 15t-97.5 28t-77 42.5t-56.5 60.5t-33 80.5 t-9.5 102.5zM694 1542l39 189h570l-39 -189h-570z" />
<glyph unicode="&#x16b;" horiz-adv-x="1193" d="M103.5 265.5q1.5 82.5 25.5 195.5l125 581h254l-119 -555q-15 -72 -19 -119t2.5 -81.5t29 -53t57.5 -26.5t90 -8q99 0 194 26l175 817h253l-208 -983q-109 -38 -251.5 -64t-262.5 -26q-90 0 -153.5 15t-108.5 50t-65 92t-18.5 139.5zM453 1180l39 184h569l-39 -184h-569z " />
<glyph unicode="&#x16c;" horiz-adv-x="1519" d="M130 304.5q2 57.5 17 127.5l213 995h273l-203 -954q-31 -142 29 -198t243 -56q180 0 267 54t118 200l203 954h269l-211 -995q-24 -111 -68.5 -192t-103.5 -132.5t-142.5 -82t-174 -42.5t-208.5 -12q-73 0 -132.5 4.5t-115 15t-97.5 28t-77 42.5t-56.5 60.5t-33 80.5 t-9.5 102.5zM731 1784h174q-14 -69 12 -94t97 -25t110.5 25.5t53.5 93.5h163q-62 -281 -366 -281q-306 0 -244 281z" />
<glyph unicode="&#x16d;" horiz-adv-x="1193" d="M103.5 265.5q1.5 82.5 25.5 195.5l125 581h254l-119 -555q-15 -72 -19 -119t2.5 -81.5t29 -53t57.5 -26.5t90 -8q99 0 194 26l175 817h253l-208 -983q-109 -38 -251.5 -64t-262.5 -26q-90 0 -153.5 15t-108.5 50t-65 92t-18.5 139.5zM487 1427h175q-14 -69 11.5 -93.5 t96.5 -24.5t110.5 25t53.5 93h164q-32 -144 -123.5 -212t-243.5 -68q-306 0 -244 280z" />
<glyph unicode="&#x16e;" horiz-adv-x="1519" d="M130 304.5q2 57.5 17 127.5l213 995h273l-203 -954q-31 -142 29 -198t243 -56q180 0 267 54t118 200l203 954h269l-211 -995q-24 -111 -68.5 -192t-103.5 -132.5t-142.5 -82t-174 -42.5t-208.5 -12q-73 0 -132.5 4.5t-115 15t-97.5 28t-77 42.5t-56.5 60.5t-33 80.5 t-9.5 102.5zM752 1622q23 109 89.5 155t198.5 46q126 0 175 -46.5t26 -154.5t-92 -154.5t-195 -46.5t-175.5 46.5t-26.5 154.5zM895 1620q-11 -47 5.5 -67.5t76.5 -20.5t86 20.5t37 67.5q10 48 -7 68t-77 20t-85.5 -20.5t-35.5 -67.5z" />
<glyph unicode="&#x16f;" horiz-adv-x="1193" d="M103.5 265.5q1.5 82.5 25.5 195.5l125 581h254l-119 -555q-15 -72 -19 -119t2.5 -81.5t29 -53t57.5 -26.5t90 -8q99 0 194 26l175 817h253l-208 -983q-109 -38 -251.5 -64t-262.5 -26q-90 0 -153.5 15t-108.5 50t-65 92t-18.5 139.5zM530 1317q23 109 90 155t199 46 q126 0 175 -46.5t26 -154.5q-23 -110 -91.5 -155.5t-195.5 -45.5t-176.5 45.5t-26.5 155.5zM674 1313q-10 -47 7 -67.5t77 -20.5t85.5 21t35.5 67q10 48 -7 68t-77 20q-61 0 -86.5 -20t-34.5 -68z" />
<glyph unicode="&#x170;" horiz-adv-x="1519" d="M130 304.5q2 57.5 17 127.5l213 995h273l-203 -954q-31 -142 29 -198t243 -56q180 0 267 54t118 200l203 954h269l-211 -995q-24 -111 -68.5 -192t-103.5 -132.5t-142.5 -82t-174 -42.5t-208.5 -12q-73 0 -132.5 4.5t-115 15t-97.5 28t-77 42.5t-56.5 60.5t-33 80.5 t-9.5 102.5zM651 1530l244 264h223l-293 -264h-174zM987 1530l244 264h223l-291 -264h-176z" />
<glyph unicode="&#x171;" horiz-adv-x="1193" d="M103.5 265.5q1.5 82.5 25.5 195.5l125 581h254l-119 -555q-15 -72 -19 -119t2.5 -81.5t29 -53t57.5 -26.5t90 -8q99 0 194 26l175 817h253l-208 -983q-109 -38 -251.5 -64t-262.5 -26q-90 0 -153.5 15t-108.5 50t-65 92t-18.5 139.5zM406 1163l243 264h223l-292 -264 h-174zM741 1163l244 264h223l-290 -264h-177z" />
<glyph unicode="&#x172;" horiz-adv-x="1519" d="M130.5 290.5q-0.5 63.5 16.5 141.5l213 995h273l-203 -954q-31 -142 29 -198t243 -56q180 0 267 54t118 200l203 954h269l-211 -995q-27 -124 -77.5 -210.5t-126.5 -138t-167.5 -76.5t-212.5 -32q-65 -42 -92.5 -78.5t-36.5 -84.5q-9 -45 11.5 -63.5t92.5 -18.5 q108 0 183 55l45 -129q-54 -35 -133 -53.5t-152 -18.5q-151 0 -201 44t-30 139q26 125 178 204q-80 1 -144 7.5t-121.5 21t-99 38t-73 59.5t-46 83t-15 110.5z" />
<glyph unicode="&#x173;" horiz-adv-x="1193" d="M103.5 265.5q1.5 82.5 25.5 195.5l125 581h254l-119 -555q-15 -72 -19 -119t2.5 -81.5t29 -53t57.5 -26.5t90 -8q99 0 194 26l175 817h253l-208 -983q-90 -31 -158 -45q-106 -58 -146 -100.5t-51 -101.5q-9 -45 12 -63.5t93 -18.5q107 0 182 55l45 -129 q-54 -35 -133 -53.5t-152 -18.5q-151 0 -201 44t-30 139q14 65 64.5 120.5t134.5 94.5q-99 -13 -174 -13q-90 0 -153.5 15t-108.5 50t-65 92t-18.5 139.5z" />
<glyph unicode="&#x174;" horiz-adv-x="1996" d="M197 1427h295q61 -509 73 -1091q355 689 520 1091h250q51 -785 47 -1091q279 521 531 1091h278q-353 -763 -716 -1427h-345q11 437 -16 979q-158 -379 -469 -979h-342q-37 931 -106 1427zM852 1530l307 264h250l201 -264h-238l-112 160l-179 -160h-229z" />
<glyph unicode="&#x175;" horiz-adv-x="1699" d="M119 1042h268q57 -354 70 -782q84 150 205 392t188 390h248q18 -148 30.5 -379t12.5 -403q260 450 409 782h258q-265 -540 -577 -1042h-316q4 417 -20 698q-152 -344 -348 -698h-314q-42 609 -114 1042zM618 1163l308 264h250l200 -264h-239l-113 156l-174 -156h-232z " />
<glyph unicode="&#x176;" horiz-adv-x="1306" d="M123 1427h352q146 -253 281 -544q300 314 493 544h328q-370 -420 -750 -811l-129 -616h-270l129 614q-254 516 -434 813zM512 1530l307 264h250l201 -264h-238l-112 160l-179 -160h-229z" />
<glyph unicode="&#x177;" horiz-adv-x="1046" d="M12 -393q90 116 242 342q-37 592 -135 1093h264q63 -334 90 -790q267 450 426 790h258q-248 -491 -627 -1085q-129 -203 -235 -350h-283zM291 1163l307 264h250l201 -264h-240l-113 156l-174 -156h-231z" />
<glyph unicode="&#x178;" horiz-adv-x="1306" d="M123 1427h352q146 -253 281 -544q300 314 493 544h328q-370 -420 -750 -811l-129 -616h-270l129 614q-254 516 -434 813zM578 1655q14 71 44.5 92.5t102.5 21.5q71 0 91 -21.5t5 -92.5q-17 -77 -46.5 -101t-100.5 -24q-72 0 -92.5 24t-3.5 101zM1014 1655 q15 71 44.5 92.5t102.5 21.5q71 0 91 -21.5t5 -92.5q-17 -77 -46.5 -101t-100.5 -24q-73 0 -93 24t-3 101z" />
<glyph unicode="&#x179;" horiz-adv-x="1271" d="M-68 0l13 66q230 242 523 566t499 562h-738l52 233h1157l-15 -61q-216 -260 -519.5 -598t-502.5 -535h768l-49 -233h-1188zM666 1530l321 264h281l-381 -264h-221z" />
<glyph unicode="&#x17a;" horiz-adv-x="1017" d="M-168 0l10 51q180 180 389 408t320 362h-510l47 221h899l-12 -51q-144 -174 -354.5 -405t-346.5 -365h523l-45 -221h-920zM401 1163l306 264h272l-354 -264h-224z" />
<glyph unicode="&#x17b;" horiz-adv-x="1271" d="M-68 0l13 66q230 242 523 566t499 562h-738l52 233h1157l-15 -61q-216 -260 -519.5 -598t-502.5 -535h768l-49 -233h-1188zM778 1661q15 71 44.5 93t101.5 22t92.5 -22t5.5 -93q-17 -77 -47.5 -101t-102.5 -24q-71 0 -91 24t-3 101z" />
<glyph unicode="&#x17c;" horiz-adv-x="1017" d="M-168 0l10 51q180 180 389 408t320 362h-510l47 221h899l-12 -51q-144 -174 -354.5 -405t-346.5 -365h523l-45 -221h-920zM465 1282q15 71 43 92t100 21t93.5 -21t7.5 -92q-18 -79 -49 -103t-103 -24t-91 24t-1 103z" />
<glyph unicode="&#x17d;" horiz-adv-x="1271" d="M-68 0l13 66q230 242 523 566t499 562h-738l52 233h1157l-15 -61q-216 -260 -519.5 -598t-502.5 -535h768l-49 -233h-1188zM567 1794h236l115 -160l178 160h229l-307 -264h-250z" />
<glyph unicode="&#x17e;" horiz-adv-x="1017" d="M-168 0l10 51q180 180 389 408t320 362h-510l47 221h899l-12 -51q-144 -174 -354.5 -405t-346.5 -365h523l-45 -221h-920zM236 1427h239l111 -155l176 155h231l-307 -264h-250z" />
<glyph unicode="&#x192;" horiz-adv-x="770" d="M-401 -367l92 197q90 -41 207 -41q88 0 143.5 41t71.5 141l145 852h-184l49 219h184l10 70q14 89 46 156t74 107.5t98 65t110 33.5t119 9q169 0 289 -45l-103 -201q-82 29 -190 29q-82 0 -131.5 -37t-63.5 -131l-4 -56h348l-49 -219h-348l-145 -852q-17 -90 -53.5 -159.5 t-82.5 -111.5t-105 -69t-115.5 -37t-119.5 -10q-166 0 -292 49z" />
<glyph unicode="&#x1f5;" d="M-41 -356l94 204q148 -51 301 -51q155 0 242.5 54t116.5 192q-128 -68 -279 -68q-89 0 -152.5 15.5t-110.5 53.5t-68 100t-20 155t28 219q34 159 86 266.5t129.5 171t174.5 90.5t230 27q115 0 239 -21.5t199 -56.5l-194 -915q-26 -120 -72 -208.5t-104 -143.5t-137.5 -88 t-162.5 -45.5t-188 -12.5q-89 0 -189.5 18t-162.5 44zM350 359.5q-2 -61.5 19 -99t61 -51.5t109 -14q88 0 152.5 26t74.5 72l115 536q-84 35 -195 35q-58 0 -96.5 -7.5t-73 -28t-58.5 -59.5t-45 -99t-40 -150q-21 -99 -23 -160.5zM553 1163l305 264h272l-354 -264h-223z" />
<glyph unicode="&#x218;" horiz-adv-x="1273" d="M23 35l108 233q64 -22 166.5 -36.5t204.5 -14.5q176 0 261 41t109 148q11 40 3.5 72.5t-35.5 57t-90.5 42t-161.5 26.5q-239 24 -329 112t-50 281q53 246 226 355.5t480 109.5q115 0 230 -17.5t194 -45.5l-110 -234q-57 22 -158.5 37t-206.5 15q-172 0 -255.5 -42 t-106.5 -145q-12 -58 4.5 -91t80 -56t189.5 -35q246 -26 338.5 -126.5t50.5 -301.5q-27 -125 -82.5 -211.5t-145.5 -139t-206.5 -75.5t-275.5 -23q-118 0 -235 17.5t-197 46.5zM197 -446l219 342h274l-295 -342h-198z" />
<glyph unicode="&#x219;" horiz-adv-x="1005" d="M2 27l96 200q54 -21 138.5 -35t160.5 -14q112 0 164 25t68 102q13 58 -27.5 85.5t-169.5 39.5q-179 14 -250 78.5t-39 218.5q21 99 67.5 167.5t116.5 107t151.5 55t185.5 16.5q181 0 337 -57l-98 -199q-138 49 -293 49q-104 0 -150.5 -22.5t-62.5 -98.5q-12 -54 27 -77 t164 -35q189 -21 259 -91t38 -223q-21 -99 -67 -168t-115.5 -107.5t-151 -55.5t-186.5 -17q-88 0 -192.5 15.5t-170.5 40.5zM57 -446l219 342h275l-295 -342h-199z" />
<glyph unicode="&#x2c6;" horiz-adv-x="1351" d="M465 1163l307 264h250l201 -264h-240l-113 156l-174 -156h-231z" />
<glyph unicode="&#x2c7;" horiz-adv-x="1339" d="M522 1427h240l110 -155l177 155h231l-307 -264h-250z" />
<glyph unicode="&#x2d8;" horiz-adv-x="1073" d="M393 1427h174q-14 -69 12 -93.5t97 -24.5t110.5 25t53.5 93h164q-32 -144 -123.5 -212t-243.5 -68q-306 0 -244 280z" />
<glyph unicode="&#x2d9;" horiz-adv-x="946" d="M430 1282q15 71 43 92t100 21t93.5 -21t7.5 -92q-18 -79 -49 -103t-103 -24t-91 24t-1 103z" />
<glyph unicode="&#x2da;" horiz-adv-x="1462" d="M668 1317q23 109 89.5 155t198.5 46q126 0 175 -46.5t26 -154.5q-23 -110 -91.5 -155.5t-195.5 -45.5t-176 45.5t-26 155.5zM811 1313q-10 -47 7 -67.5t77 -20.5t85.5 21t35.5 67q10 48 -7 68t-77 20q-61 0 -86.5 -20t-34.5 -68z" />
<glyph unicode="&#x2db;" horiz-adv-x="1312" d="M487 -233q20 86 101.5 154.5t220.5 103.5h80q-117 -62 -160.5 -107t-56.5 -106q-9 -45 11.5 -63.5t92.5 -18.5q107 0 182 55l46 -129q-54 -35 -133 -53.5t-152 -18.5q-151 0 -201.5 44t-30.5 139z" />
<glyph unicode="&#x2dc;" horiz-adv-x="1464" d="M455 1262q65 82 126.5 123.5t133.5 41.5q47 0 86.5 -17t62.5 -37t54 -37t63 -17q37 0 66.5 25.5t68.5 93.5l105 -103q-48 -87 -120 -138.5t-161 -51.5q-41 0 -79 17t-62 37t-57 37t-66 17q-65 0 -129 -104z" />
<glyph unicode="&#x2dd;" horiz-adv-x="1126" d="M477 1163l244 264h223l-293 -264h-174zM813 1163l244 264h223l-291 -264h-176z" />
<glyph unicode="&#x3c0;" horiz-adv-x="1300" d="M57 90q82 42 105 156l119 555h-162l51 241h1198l-51 -241h-168l-170 -801h-254l170 801h-360l-119 -551q-52 -248 -234 -332z" />
<glyph unicode="&#x2000;" horiz-adv-x="911" />
<glyph unicode="&#x2001;" horiz-adv-x="1823" />
<glyph unicode="&#x2002;" horiz-adv-x="911" />
<glyph unicode="&#x2003;" horiz-adv-x="1823" />
<glyph unicode="&#x2004;" horiz-adv-x="607" />
<glyph unicode="&#x2005;" horiz-adv-x="455" />
<glyph unicode="&#x2006;" horiz-adv-x="303" />
<glyph unicode="&#x2007;" horiz-adv-x="303" />
<glyph unicode="&#x2008;" horiz-adv-x="227" />
<glyph unicode="&#x2009;" horiz-adv-x="364" />
<glyph unicode="&#x200a;" horiz-adv-x="101" />
<glyph unicode="&#x2010;" horiz-adv-x="622" d="M53 455l51 241h504l-51 -241h-504z" />
<glyph unicode="&#x2011;" horiz-adv-x="622" d="M53 455l51 241h504l-51 -241h-504z" />
<glyph unicode="&#x2012;" horiz-adv-x="622" d="M53 455l51 241h504l-51 -241h-504z" />
<glyph unicode="&#x2013;" horiz-adv-x="1183" d="M94 455l51 241h983l-51 -241h-983z" />
<glyph unicode="&#x2014;" horiz-adv-x="1771" d="M94 455l51 241h1571l-51 -241h-1571z" />
<glyph unicode="&#x2018;" horiz-adv-x="522" d="M166 1034l338 537h205l-275 -537h-268z" />
<glyph unicode="&#x2019;" horiz-adv-x="522" d="M162 1024l272 537h268l-335 -537h-205z" />
<glyph unicode="&#x201a;" horiz-adv-x="501" d="M-133 -326l270 537h269l-336 -537h-203z" />
<glyph unicode="&#x201c;" horiz-adv-x="921" d="M166 1034l338 537h205l-275 -537h-268zM563 1034l338 537h205l-275 -537h-268z" />
<glyph unicode="&#x201d;" horiz-adv-x="921" d="M162 1026l274 537h269l-338 -537h-205zM559 1026l275 537h268l-338 -537h-205z" />
<glyph unicode="&#x201e;" horiz-adv-x="921" d="M-125 -336l270 537h269l-336 -537h-203zM270 -336l273 537h268l-336 -537h-205z" />
<glyph unicode="&#x2020;" horiz-adv-x="913" d="M166 981l45 205h289l61 293h211l-61 -293h290l-45 -205h-290l-99 -467h-211l99 467h-289z" />
<glyph unicode="&#x2021;" horiz-adv-x="913" d="M80 578l45 206h289l41 197h-289l45 205h289l61 293h211l-61 -293h290l-45 -205h-290l-41 -197h290l-45 -206h-290l-62 -293h-211l62 293h-289z" />
<glyph unicode="&#x2022;" d="M116 448q0 94 27 222q27 127 67 220.5t92 156t122 100.5t149.5 54t182.5 16q86 0 151 -11t116.5 -36t83 -66.5t47 -102t11.5 -143t-26 -188.5q-33 -159 -86.5 -267t-131.5 -171.5t-174 -90t-227 -26.5q-103 0 -176 16.5t-126 55.5t-77.5 103t-24.5 158z" />
<glyph unicode="&#x2026;" horiz-adv-x="2336" d="M217 150q19 90 57 116.5t132 26.5q98 0 125.5 -26t7.5 -117q-21 -99 -61.5 -129.5t-137.5 -30.5q-92 0 -118 31t-5 129zM934 150q19 90 57.5 116.5t132.5 26.5q96 0 123.5 -26.5t7.5 -116.5q-21 -99 -61 -129.5t-135 -30.5q-93 0 -119.5 31t-5.5 129zM1655 150 q19 90 57.5 116.5t130.5 26.5q98 0 125.5 -26t7.5 -117q-21 -99 -61 -129.5t-137 -30.5q-91 0 -117.5 31t-5.5 129z" />
<glyph unicode="&#x202f;" horiz-adv-x="364" />
<glyph unicode="&#x2030;" horiz-adv-x="2772" d="M155.5 816.5q3.5 79.5 26.5 189.5q29 136 68 224t97 139.5t129.5 72t174.5 20.5q82 0 138 -13t95.5 -43.5t55.5 -83t13.5 -130t-25.5 -186.5q-29 -137 -69 -228t-98 -146t-131 -77.5t-175 -22.5q-81 0 -137.5 14.5t-95 47t-54.5 88t-12.5 135zM317 0l1180 1427h240 l-1182 -1427h-238zM381 823.5q3 -64.5 28.5 -86.5t84.5 -22q60 0 95 23t61 84t52 182q20 92 24.5 145t-7 83.5t-35.5 40t-70 9.5q-60 0 -94 -19.5t-61 -79t-53 -179.5q-28 -116 -25 -180.5zM1112 253.5q3 79.5 27 190.5q29 135 68 223t97 139.5t129.5 72t174.5 20.5 q82 0 137.5 -13t95 -43.5t55.5 -83t13.5 -130t-25.5 -185.5q-29 -138 -69 -229t-98.5 -145.5t-131 -76.5t-174.5 -22q-82 0 -137.5 14t-94.5 46.5t-54.5 87.5t-12.5 134.5zM1336 260.5q3 -64.5 28 -86.5t84 -22q60 0 95.5 23t62 84.5t51.5 182.5q16 74 21.5 121.5t3 79.5 t-17.5 48t-36.5 22t-58.5 6q-61 0 -94.5 -19t-61.5 -78.5t-53 -179.5q-27 -117 -24 -181.5zM1921 253.5q3 79.5 27 190.5q29 135 68 223t97 139.5t129.5 72t174.5 20.5q82 0 137.5 -13t95 -43.5t55.5 -83t13.5 -130t-25.5 -185.5q-29 -138 -69 -229t-98.5 -145.5t-131 -76.5 t-174.5 -22q-82 0 -137.5 14t-94.5 46.5t-54.5 87.5t-12.5 134.5zM2145 260.5q3 -64.5 28 -86.5t84 -22q60 0 95.5 23t62 84.5t51.5 182.5q16 74 21.5 121.5t3 79.5t-17.5 48t-36.5 22t-58.5 6q-61 0 -94.5 -19t-61.5 -78.5t-53 -179.5q-27 -117 -24 -181.5z" />
<glyph unicode="&#x2039;" horiz-adv-x="808" d="M88 639l674 571l115 -149l-451 -418l270 -426l-176 -154z" />
<glyph unicode="&#x203a;" horiz-adv-x="808" d="M-2 215l451 418l-271 428l174 151l436 -573l-675 -573z" />
<glyph unicode="&#x2044;" horiz-adv-x="1214" d="M-57 0l1200 1427h239l-1202 -1427h-237z" />
<glyph unicode="&#x205f;" horiz-adv-x="455" />
<glyph unicode="&#x20a3;" horiz-adv-x="1167" d="M45 240l39 180h82l215 1007h1016l-51 -233h-746l-84 -403h455l-49 -230h-455l-31 -141h185l-39 -180h-185l-49 -240h-270l49 240h-82z" />
<glyph unicode="&#x20ac;" horiz-adv-x="1212" d="M122.5 425q0.5 128 37.5 302q37 175 91 301t122.5 210t162.5 133.5t201 70t248 20.5q98 0 209.5 -15t189.5 -38l-110 -238q-50 20 -135 33t-158 13q-92 0 -154 -8.5t-119 -32t-98.5 -69t-74.5 -116.5h489l-37 -174h-518q-12 -46 -20 -92q-17 -70 -19 -92h518l-37 -174 h-489q1 -74 22.5 -122t67.5 -73.5t105 -35t151 -9.5q74 0 164 12.5t149 32.5l9 -241q-87 -23 -204 -37.5t-216 -14.5q-140 0 -239.5 23t-171 75.5t-104.5 140t-32.5 215.5z" />
<glyph unicode="&#x2122;" horiz-adv-x="1687" d="M180 1268l35 159h647l-35 -159h-231l-123 -576h-182l123 576h-234zM782 692l158 735h240l80 -497l286 497h230l-158 -735h-172l108 512l-280 -483h-141l-70 483l-109 -512h-172z" />
<glyph unicode="&#x2190;" horiz-adv-x="1550" d="M31 752l766 698l180 -182l-445 -398h988v-239h-988l445 -395l-178 -183z" />
<glyph unicode="&#x2191;" horiz-adv-x="1554" d="M78 727l700 768l697 -768l-181 -180l-397 446v-987h-240v987l-395 -446z" />
<glyph unicode="&#x2192;" horiz-adv-x="1550" d="M31 631v239h987l-447 398l181 180l768 -696l-768 -701l-181 185l447 395h-987z" />
<glyph unicode="&#x2193;" horiz-adv-x="1554" d="M78 772l182 180l397 -444v987h240v-987l395 444l183 -178l-699 -768z" />
<glyph unicode="&#x2202;" horiz-adv-x="1282" d="M96 446q51 241 185.5 336t433.5 95q64 0 176 -11q-67 234 -340 561h336q57 -70 102 -134.5t87.5 -140.5t69.5 -154t43.5 -163.5t14 -180.5t-23.5 -195q-25 -119 -58.5 -199.5t-81.5 -140t-119.5 -92t-165 -47.5t-225.5 -15q-297 0 -394.5 106.5t-39.5 374.5zM377 434 q-28 -126 12.5 -176.5t192.5 -50.5q64 0 104.5 5.5t77 21t59.5 47t42.5 81t35.5 125.5q17 87 12 148q-92 14 -217 14q-118 0 -178 -18t-91 -61.5t-50 -135.5z" />
<glyph unicode="&#x2206;" horiz-adv-x="1327" d="M-139 0q166 321 394 715t431 712h346q32 -354 90.5 -752t122.5 -675h-1384zM262 233h641q-88 503 -121 920q-252 -405 -520 -920z" />
<glyph unicode="&#x220f;" horiz-adv-x="1507" d="M78 0l303 1427h1147l-303 -1427h-267l250 1184h-610l-250 -1184h-270z" />
<glyph unicode="&#x2211;" horiz-adv-x="1273" d="M-94 0q170 180 633 709q-142 316 -299 718h1179l-51 -233h-731q98 -227 217 -487q-272 -306 -442 -476h759l-49 -231h-1216z" />
<glyph unicode="&#x221a;" horiz-adv-x="1183" d="M66 793l53 249h338q68 -370 90 -786q124 209 335 596.5t300 574.5h258q-133 -262 -391 -721t-412 -706h-313q-41 483 -91 793h-167z" />
<glyph unicode="&#x221e;" horiz-adv-x="1583" d="M81 539q1 76 23 180q28 129 68.5 215t100.5 136t133 70.5t174 20.5q63 0 109 -6t88 -23t66 -45.5t34.5 -76.5t3.5 -113q20 66 50.5 113.5t66 76.5t84.5 46t97 22.5t111 5.5q81 0 137 -12.5t97 -42.5t59 -81t17 -126.5t-23 -179.5q-28 -130 -68.5 -216.5t-100 -137 t-132.5 -71t-174 -20.5q-63 0 -109 6t-87.5 23.5t-65 47t-34 77.5t-1.5 113q-26 -82 -66.5 -136t-96 -82t-113.5 -38.5t-138 -10.5q-81 0 -137.5 13t-97 43.5t-58.5 81.5t-17 127zM338 719q-25 -115 7 -160t142 -45q113 0 170.5 48t81.5 157q23 108 -15 155.5t-151 47.5 q-109 0 -159.5 -44.5t-75.5 -158.5zM942 719q-23 -108 15 -155.5t151 -47.5q109 0 160.5 45t74.5 158q25 113 -7.5 158t-141.5 45q-113 0 -171 -47.5t-81 -155.5z" />
<glyph unicode="&#x222b;" horiz-adv-x="694" d="M-481 -367l94 197q93 -41 219 -41q79 0 135.5 44.5t77.5 137.5l242 1141q42 195 163 283t293 88q164 0 291 -45l-100 -201q-82 29 -193 29q-83 0 -132.5 -34.5t-71.5 -133.5l-238 -1127q-20 -90 -58 -159.5t-85 -111.5t-106.5 -69t-116.5 -37t-121 -10q-171 0 -293 49z " />
<glyph unicode="&#x2248;" horiz-adv-x="1191" d="M78 485q77 97 154.5 149t168.5 52q49 0 99 -17.5t91.5 -42.5t80 -50t78 -42.5t71.5 -17.5q48 0 86 30t84 109l135 -129q-60 -103 -155.5 -168t-206.5 -65q-43 0 -90 18t-87.5 43.5t-79.5 51t-80 43.5t-75 18q-39 0 -76 -27.5t-81 -95.5zM170 922q76 97 154.5 148.5 t169.5 51.5q59 0 122.5 -26.5t108.5 -58.5t97 -58.5t91 -26.5q48 0 87 30.5t83 109.5l136 -129q-60 -103 -156 -168.5t-207 -65.5q-43 0 -90 18t-87.5 43.5t-79.5 51t-80 43.5t-75 18q-39 0 -76 -27.5t-81 -95.5z" />
<glyph unicode="&#x2260;" horiz-adv-x="1191" d="M68 344l51 242h289l227 305h-451l52 242h573l147 194h254l-147 -194h168l-51 -242h-293l-228 -305h455l-51 -242h-578l-147 -197h-252l145 197h-163z" />
<glyph unicode="&#x2264;" horiz-adv-x="1191" d="M4 39l51 242h996l-52 -242h-995zM229 838l23 106l844 510l96 -166l-619 -395l451 -399l-166 -168z" />
<glyph unicode="&#x2265;" horiz-adv-x="1191" d="M6 39l51 242h996l-52 -242h-995zM174 494l617 399l-449 395l166 166l627 -510l-23 -106l-848 -512z" />
<glyph unicode="&#x25ca;" horiz-adv-x="1228" d="M51 543q221 371 567 889h424q50 -378 162 -889q-324 -501 -538 -887h-424q-120 484 -191 887zM317 545q31 -185 136 -695h55q41 76 113 198t170.5 284t128.5 213q-9 55 -38.5 213.5t-50 281t-28.5 199.5h-55q-328 -518 -431 -694z" />
<glyph unicode="&#x25fc;" horiz-adv-x="1044" d="M0 0v1044h1044v-1044h-1044z" />
<glyph unicode="&#xf6f9;" horiz-adv-x="884" d="M-8 186l47 220l100 75l121 561h254l-74 -348l228 170l-47 -221l-228 -168l-53 -248h491l-47 -227h-745l55 262z" />
<glyph unicode="&#xf6fa;" horiz-adv-x="1689" d="M86.5 304q-0.5 94 26.5 222q33 158 86 265t131 168.5t172 87.5t223 26q130 0 225 -31h781l-45 -206h-570q29 -78 12 -195h385l-40 -195h-386q-35 -152 -106 -239h571l-43 -207h-786q-101 -29 -231 -29q-103 0 -176 16.5t-126.5 55.5t-78 103t-25 158zM351.5 375 q-4.5 -59 2 -99t31 -61.5t59.5 -30t91 -8.5q96 0 150 26.5t92 100t69 219.5q19 91 24 151t-1.5 99.5t-32.5 60t-61 28t-93 7.5q-57 0 -94.5 -7.5t-71.5 -28t-57.5 -60t-44 -99.5t-39.5 -151q-19 -88 -23.5 -147z" />
<glyph unicode="&#xf6fd;" horiz-adv-x="1005" d="M2 27l96 200q54 -21 138.5 -35t160.5 -14q112 0 164 25t68 102q13 58 -27.5 85.5t-169.5 39.5q-179 14 -250 78.5t-39 218.5q21 99 67.5 167.5t116.5 107t151.5 55t185.5 16.5q181 0 337 -57l-98 -199q-138 49 -293 49q-104 0 -150.5 -22.5t-62.5 -98.5q-12 -54 27 -77 t164 -35q189 -21 259 -91t38 -223q-21 -99 -67 -168t-115.5 -107.5t-151 -55.5t-186.5 -17q-88 0 -192.5 15.5t-170.5 40.5zM336 1427h239l111 -155l176 155h232l-308 -264h-249z" />
<glyph unicode="&#xf6ff;" horiz-adv-x="1017" d="M-168 0l10 51q180 180 389 408t320 362h-510l47 221h899l-12 -51q-144 -174 -354.5 -405t-346.5 -365h523l-45 -221h-920zM236 1427h239l111 -155l176 155h231l-307 -264h-250z" />
<glyph unicode="&#xf721;" horiz-adv-x="669" d="M100 143q20 91 59 118.5t132 27.5q96 0 123.5 -27.5t7.5 -118.5q-21 -98 -60 -127.5t-135 -29.5q-93 0 -120.5 29.5t-6.5 127.5zM225 424l80 618h293l-188 -618h-185z" />
<glyph unicode="&#xf726;" horiz-adv-x="1429" d="M20 276q59 265 353 279q-72 5 -115 24t-58.5 53.5t-15.5 74t13 98.5q21 103 70 158.5t152.5 82.5t287.5 27q183 0 273.5 -27t114.5 -82.5t3 -158.5q-25 -115 -97 -179t-217 -75q125 -14 238 -141q95 92 143 202h275q-73 -184 -281 -352q69 -101 139 -260h-280 q-13 27 -66 131q-277 -160 -534 -160q-258 0 -346 64.5t-52 240.5zM297 311q-18 -82 20 -112.5t150 -30.5q102 0 205.5 34t181.5 91q-117 160 -303 160q-52 0 -87.5 -4.5t-73 -18t-60.5 -43.5t-33 -76zM444 766q-15 -68 22.5 -92.5t145.5 -24.5q109 0 162.5 25t67.5 92 q14 65 -21 90t-151 25q-117 0 -164.5 -25t-61.5 -90z" />
<glyph unicode="&#xf730;" horiz-adv-x="1282" d="M152 336.5q4 83.5 26 189.5q33 157 87.5 265t131 169t166.5 87t207 26q94 0 161.5 -16t118 -54t74 -100.5t23.5 -156t-27 -220.5q-33 -159 -85 -267t-126.5 -171t-163.5 -90t-208 -27q-78 0 -138 11.5t-109.5 37t-80 68.5t-46 104t-11.5 144.5zM414 374.5q-5 -59.5 1 -99 t28.5 -61t54 -30t82.5 -8.5q52 0 86.5 8.5t64 29.5t51 62t39.5 99t37 147q19 92 25.5 151.5t2 99.5t-25.5 60t-51.5 27.5t-81.5 7.5q-65 0 -105 -12t-75.5 -49t-60 -104.5t-48.5 -180.5q-19 -88 -24 -147.5z" />
<glyph unicode="&#xf731;" horiz-adv-x="1282" d="M322 809l706 264l-227 -1073h-256l155 741l-350 -145z" />
<glyph unicode="&#xf732;" horiz-adv-x="1282" d="M78 0l39 186q234 116 373 191.5t219 133.5t109 97t40 88q18 80 -25 113t-182 33q-73 0 -179 -15t-157 -36l-10 235q85 19 212.5 33t225.5 14q136 0 222.5 -19t132.5 -58.5t55.5 -101.5t-8.5 -149q-32 -153 -179 -280t-472 -258h559l-43 -207h-932z" />
<glyph unicode="&#xf733;" horiz-adv-x="1282" d="M-80 -360l103 233q62 -19 164 -30t192 -11q137 0 213 20.5t112.5 63.5t53.5 123q24 120 -23.5 164.5t-189.5 44.5h-203l49 229h199q131 0 192 38.5t84 141.5q14 68 -2.5 103.5t-79 53t-188.5 17.5q-85 0 -193 -12.5t-176 -32.5l-4 234q257 53 477 53q205 0 315 -38 t143 -116t5 -210q-13 -61 -30 -106t-46 -88t-69 -71t-99 -47.5t-135 -25.5q98 -4 159.5 -32.5t86.5 -76t28 -113.5t-16 -147q-49 -229 -201.5 -321.5t-461.5 -92.5q-108 0 -236 15t-223 37z" />
<glyph unicode="&#xf734;" horiz-adv-x="1282" d="M-55 0l16 82q192 245 417 514t396 446h359l-179 -831h191l-43 -211h-191l-84 -393h-258l84 393h-708zM315 211h381l129 606q-168 -170 -510 -606z" />
<glyph unicode="&#xf735;" horiz-adv-x="1282" d="M-49 -365l102 234q125 -41 340 -41q133 0 205.5 20.5t107 65t52.5 131.5q12 66 12 110t-28.5 70.5t-84.5 37.5t-155 11q-205 0 -357 -28l170 796h885l-51 -233h-631l-65 -313q110 8 174 8q200 0 303.5 -45t132.5 -144t-8 -256q-30 -137 -79 -227t-129.5 -146t-189 -79 t-264.5 -23q-104 0 -231.5 14.5t-210.5 36.5z" />
<glyph unicode="&#xf736;" horiz-adv-x="1282" d="M120 270q-10 85 1 196t43 259q31 147 69.5 257.5t90.5 193t113 137t142.5 88t173.5 47.5t212 14q95 0 201 -15t184 -40l-111 -238q-116 48 -326 48q-92 0 -154.5 -13.5t-118.5 -51t-94 -108.5t-65 -182q138 23 275 23q201 0 306 -44.5t135 -143.5t-7 -257 q-29 -137 -75.5 -226t-124.5 -144t-181 -77t-254 -22q-104 0 -179 15t-130.5 51t-85.5 92t-40 141zM403 454.5q-4 -74.5 6 -121.5t38 -73t65 -35.5t94 -9.5q105 0 164 21t88.5 64.5t46.5 125.5q19 80 10.5 131t-54.5 74.5t-140 23.5q-166 0 -293 -20q-21 -106 -25 -180.5z " />
<glyph unicode="&#xf737;" horiz-adv-x="1282" d="M100 -393q184 319 425.5 670.5t406.5 531.5h-737l51 233h1095l-18 -79q-193 -230 -475 -646t-442 -710h-306z" />
<glyph unicode="&#xf738;" horiz-adv-x="1282" d="M82 385q19 86 46.5 148t74.5 113t120 78.5t173 31.5q-92 8 -148 36.5t-77 72.5t-22.5 103.5t15.5 129.5q28 130 87.5 207t180 117t316.5 40t299 -39t130 -119.5t-1 -205.5q-16 -77 -39 -131t-65 -101t-109 -74.5t-162 -35.5q99 -4 160.5 -32.5t85.5 -77t26 -114.5 t-18 -147q-47 -228 -188 -321t-435 -93q-293 0 -395 93t-55 321zM371 412q-27 -124 17 -171.5t190 -47.5q147 0 212 47.5t91 171.5q26 126 -20 178.5t-187 52.5t-208.5 -52.5t-94.5 -178.5zM528 1055q-23 -108 22 -154.5t169 -46.5t187.5 46.5t86.5 154.5q23 104 -20 143 t-172 39q-131 0 -190.5 -39t-82.5 -143z" />
<glyph unicode="&#xf739;" horiz-adv-x="1282" d="M107.5 423q-3.5 72 19.5 167q57 270 199.5 376.5t439.5 106.5q110 0 188 -9.5t135.5 -33t89 -59.5t45 -92.5t8.5 -128t-26 -170.5q-26 -119 -77.5 -233.5t-116.5 -210t-152.5 -192.5t-173 -175t-190.5 -162h-336q417 330 583 563q-82 -10 -180 -10q-122 0 -206 14 t-140.5 45.5t-81 81.5t-28 122zM400 512q0 -35 10.5 -60.5t40.5 -38.5t74 -18.5t116 -5.5q125 0 223 14q31 64 51 148q16 76 17.5 125t-8.5 80.5t-39.5 47.5t-67.5 21.5t-102 5.5q-104 0 -165 -25t-90 -72t-48 -132q-12 -55 -12 -90z" />
<glyph unicode="&#xf73f;" horiz-adv-x="987" d="M203 831l6 211q204 39 352 39q242 0 330 -63t57 -209q-24 -120 -111 -207.5t-274 -187.5h-252q168 110 245 184t97 166q11 57 -22 80.5t-135 23.5q-161 0 -293 -37zM231 150q19 90 57 116.5t132 26.5q98 0 125.5 -26t7.5 -117q-21 -98 -60.5 -128t-136.5 -30 q-93 0 -119.5 30t-5.5 128z" />
<glyph unicode="&#xf761;" horiz-adv-x="1153" d="M-96 0q111 222 275 507t321 535h395q54 -665 143 -1042h-266q-25 107 -43 252h-436q-71 -130 -127 -252h-262zM391 438h314q-24 191 -41 400h-43q-91 -149 -230 -400z" />
<glyph unicode="&#xf762;" horiz-adv-x="1187" d="M39 0l221 1042h629q87 0 141.5 -17t78 -49.5t27.5 -78.5t-10 -104q-12 -55 -29.5 -94t-49.5 -71.5t-83.5 -51t-125.5 -23.5q76 -2 124 -22.5t68 -55.5t23 -83.5t-11 -106.5q-60 -285 -366 -285h-637zM334 197h311q60 0 92 27t45 91q15 70 -7.5 103t-82.5 33h-305z M428 637h301q54 0 82.5 25.5t40.5 80.5q12 59 -6 81t-74 22h-301z" />
<glyph unicode="&#xf763;" horiz-adv-x="962" d="M89 336q2 84 24 190q33 156 91.5 264.5t141.5 169.5t179 87t220 26q77 0 166 -14t142 -35l-105 -217q-106 45 -231 45q-76 0 -124 -11t-92 -45t-73.5 -100.5t-52.5 -173.5q-18 -82 -19.5 -140t11 -95t42.5 -57.5t68.5 -28.5t97.5 -8q123 0 254 49l11 -217 q-64 -24 -158 -39t-170 -15q-82 0 -146 11.5t-118 37t-88.5 68.5t-53.5 103.5t-17 144.5z" />
<glyph unicode="&#xf764;" horiz-adv-x="1196" d="M39 0l221 1042h442q86 0 151.5 -10t118.5 -33.5t85.5 -62.5t50 -96t14.5 -135t-24 -179q-32 -152 -84.5 -254.5t-131 -162t-174.5 -84.5t-227 -25h-442zM334 197h170q72 0 120 12.5t90.5 47t71 99t50.5 166.5q18 84 19.5 142t-10 94t-41.5 55.5t-67 26t-96 6.5h-170z" />
<glyph unicode="&#xf765;" horiz-adv-x="1034" d="M39 0l221 1042h815l-45 -206h-561l-41 -195h430l-41 -195h-430l-51 -239h561l-43 -207h-815z" />
<glyph unicode="&#xf766;" horiz-adv-x="970" d="M39 0l221 1042h815l-45 -206h-561l-51 -246h430l-43 -199h-430l-82 -391h-254z" />
<glyph unicode="&#xf767;" horiz-adv-x="1165" d="M89.5 336q1.5 84 23.5 190q26 125 72.5 220t105 156.5t135.5 100t159 54.5t181 16q79 0 180.5 -14t157.5 -35l-111 -209q-113 45 -264 45q-75 0 -125.5 -12.5t-96.5 -48t-78 -103.5t-54 -174q-17 -82 -18 -141t12 -97t43 -60.5t68.5 -31t94.5 -8.5q99 0 175 29l41 197 h-222l43 198h449l-121 -565q-92 -31 -210 -51.5t-218 -20.5q-81 0 -145 11.5t-117.5 37t-88.5 68.5t-54 103.5t-17.5 144.5z" />
<glyph unicode="&#xf768;" horiz-adv-x="1202" d="M39 0l221 1042h254l-82 -383h410l82 383h254l-222 -1042h-254l93 442h-410l-92 -442h-254z" />
<glyph unicode="&#xf769;" horiz-adv-x="536" d="M39 0l221 1042h254l-221 -1042h-254z" />
<glyph unicode="&#xf76a;" horiz-adv-x="847" d="M-100 18l96 218q93 -41 221 -41q176 0 215 184l141 663h254l-145 -682q-85 -389 -487 -389q-174 0 -295 47z" />
<glyph unicode="&#xf76b;" horiz-adv-x="1128" d="M39 0l221 1042h254l-104 -491q113 78 508 491h301q-178 -187 -312 -311.5t-188 -161.5q37 -27 120.5 -176.5t188.5 -392.5h-299q-247 516 -319 551l-117 -551h-254z" />
<glyph unicode="&#xf76c;" horiz-adv-x="884" d="M39 0l221 1042h254l-174 -815h491l-47 -227h-745z" />
<glyph unicode="&#xf76d;" horiz-adv-x="1542" d="M39 0l221 1042h371q70 -266 137 -620q185 312 397 620h355l-222 -1042h-251l159 760q-208 -310 -434 -699h-190q-80 500 -131 699l-160 -760h-252z" />
<glyph unicode="&#xf76e;" horiz-adv-x="1214" d="M39 0l221 1042h250q194 -351 293 -636l135 636h254l-221 -1042h-254q-146 417 -285 657l-139 -657h-254z" />
<glyph unicode="&#xf76f;" d="M86.5 304q-0.5 94 26.5 222q33 158 86 265t131 168.5t172 87.5t223 26q86 0 151 -11t116.5 -36t83 -66.5t47 -102t11.5 -143t-26 -188.5q-34 -159 -86.5 -267t-130 -171.5t-173 -90t-226.5 -26.5q-103 0 -176 16.5t-126.5 55.5t-78 103t-25 158zM351.5 375 q-4.5 -59 2 -98.5t31 -60.5t59.5 -29.5t91 -8.5q96 0 150 26t92 99t69 219q19 91 24 151t-2 99t-33 59t-61 27.5t-94 7.5q-72 0 -115 -11.5t-80 -48.5t-61.5 -103.5t-48.5 -180.5q-19 -88 -23.5 -147z" />
<glyph unicode="&#xf770;" horiz-adv-x="1153" d="M39 0l221 1042h606q172 0 232 -82.5t24 -252.5q-71 -328 -377 -328h-372l-80 -379h-254zM412 565h301q112 0 141 137q33 144 -82 144h-301z" />
<glyph unicode="&#xf771;" d="M87.5 336.5q3.5 83.5 25.5 189.5q33 158 86 265t131 168.5t172 87.5t223 26q86 0 151 -11t116.5 -36t83 -66.5t47 -102t11.5 -143t-26 -188.5q-46 -220 -132 -341t-222 -169q67 -17 135.5 -106.5t161.5 -282.5h-285q-74 168 -149.5 256t-145.5 88q-78 0 -137.5 11.5 t-108.5 37t-79.5 68.5t-46 104t-12 144.5zM351.5 375q-4.5 -59 2 -99t31 -61.5t59.5 -30t91 -8.5q96 0 150 26.5t92 100t69 219.5q19 91 24 151t-1.5 99.5t-32.5 60t-61 28t-93 7.5q-57 0 -94.5 -7.5t-71.5 -28t-57.5 -60t-44 -99.5t-39.5 -151q-19 -88 -23.5 -147z" />
<glyph unicode="&#xf772;" horiz-adv-x="1175" d="M39 0l221 1042h614q320 0 256 -305q-58 -276 -348 -286q54 -15 90 -49t81.5 -127t109.5 -275h-295q-37 116 -68.5 190t-62 113.5t-58 53.5t-63.5 14h-145l-78 -371h-254zM414 571h288q128 0 158 136q13 67 -11 99t-87 32h-293z" />
<glyph unicode="&#xf773;" horiz-adv-x="1005" d="M2 27l96 200q54 -21 138.5 -35t160.5 -14q112 0 164 25t68 102q13 58 -27.5 85.5t-169.5 39.5q-179 14 -250 78.5t-39 218.5q21 99 67.5 167.5t116.5 107t151.5 55t185.5 16.5q181 0 337 -57l-98 -199q-138 49 -293 49q-104 0 -150.5 -22.5t-62.5 -98.5q-12 -54 27 -77 t164 -35q189 -21 259 -91t38 -223q-21 -99 -67 -168t-115.5 -107.5t-151 -55.5t-186.5 -17q-88 0 -192.5 15.5t-170.5 40.5z" />
<glyph unicode="&#xf774;" horiz-adv-x="993" d="M82 821l47 221h973l-47 -221h-361l-174 -821h-254l174 821h-358z" />
<glyph unicode="&#xf775;" horiz-adv-x="1183" d="M121 422l133 620h254l-135 -634q-26 -115 6 -162t151 -47t170.5 47t77.5 162l135 634h252l-133 -620q-54 -253 -175.5 -352t-373.5 -99q-253 0 -334.5 99t-27.5 352z" />
<glyph unicode="&#xf776;" horiz-adv-x="1069" d="M137 1042h264q67 -379 91 -786q269 454 426 786h258q-240 -472 -596 -1042h-314q-46 616 -129 1042z" />
<glyph unicode="&#xf777;" horiz-adv-x="1699" d="M119 1042h268q57 -354 70 -782q84 150 205 392t188 390h248q18 -148 30.5 -379t12.5 -403q260 450 409 782h258q-265 -540 -577 -1042h-316q4 417 -20 698q-152 -344 -348 -698h-314q-42 609 -114 1042z" />
<glyph unicode="&#xf778;" horiz-adv-x="1067" d="M-90 0q209 197 514 520q-151 304 -291 522h303q84 -142 172 -319q108 116 283 319h283q-211 -238 -469 -514q121 -243 249 -528h-286q-45 111 -150 330q-166 -175 -325 -330h-283z" />
<glyph unicode="&#xf779;" horiz-adv-x="997" d="M68 1042h294q97 -159 191 -362q151 144 336 362h278q-278 -319 -534 -569l-101 -473h-253l100 473q-182 365 -311 569z" />
<glyph unicode="&#xf77a;" horiz-adv-x="1017" d="M-66 0l11 51q179 179 387.5 407t320.5 363h-510l47 221h900l-13 -51q-145 -175 -355 -406t-345 -364h522l-45 -221h-920z" />
<glyph unicode="&#xf7a1;" horiz-adv-x="669" d="M86 0l186 618h187l-80 -618h-293zM260 899q21 98 61.5 129t135.5 31q93 0 120.5 -31t6.5 -129q-19 -90 -58 -116.5t-133 -26.5q-97 0 -124.5 26.5t-8.5 116.5z" />
<glyph unicode="&#xf7bf;" horiz-adv-x="987" d="M41 248q26 123 112.5 211.5t276.5 189.5h252q-172 -113 -248 -186.5t-96 -167.5q-11 -55 24.5 -77.5t135.5 -22.5q162 0 293 36l-5 -211q-178 -34 -352 -34q-239 0 -330.5 60.5t-62.5 201.5zM440 913q21 98 61.5 129t135.5 31q93 0 119.5 -31t5.5 -129 q-19 -90 -58 -116.5t-133 -26.5q-96 0 -123.5 26.5t-7.5 116.5z" />
<glyph unicode="&#xf7e0;" horiz-adv-x="1153" d="M-96 0q111 222 275 507t321 535h395q54 -665 143 -1042h-266q-25 107 -43 252h-436q-71 -130 -127 -252h-262zM391 438h314q-24 191 -41 400h-43q-91 -149 -230 -400zM469 1427h270l193 -264h-225z" />
<glyph unicode="&#xf7e1;" horiz-adv-x="1153" d="M-96 0q111 222 275 507t321 535h395q54 -665 143 -1042h-266q-25 107 -43 252h-436q-71 -130 -127 -252h-262zM391 438h314q-24 191 -41 400h-43q-91 -149 -230 -400zM516 1163l305 264h273l-355 -264h-223z" />
<glyph unicode="&#xf7e2;" horiz-adv-x="1153" d="M-96 0q111 222 275 507t321 535h395q54 -665 143 -1042h-266q-25 107 -43 252h-436q-71 -130 -127 -252h-262zM340 1163l307 264h250l201 -264h-240l-113 156l-174 -156h-231zM391 438h314q-24 191 -41 400h-43q-91 -149 -230 -400z" />
<glyph unicode="&#xf7e3;" horiz-adv-x="1153" d="M-96 0q111 222 275 507t321 535h395q54 -665 143 -1042h-266q-25 107 -43 252h-436q-71 -130 -127 -252h-262zM360 1262q65 81 127 123t134 42q47 0 86.5 -17t62.5 -37t54 -37t63 -17q37 0 66.5 25.5t68.5 93.5l104 -103q-48 -88 -119.5 -139t-160.5 -51q-41 0 -79 17 t-62 37t-57 37t-66 17q-65 0 -129 -104zM391 438h314q-24 191 -41 400h-43q-91 -149 -230 -400z" />
<glyph unicode="&#xf7e4;" horiz-adv-x="1153" d="M-96 0q111 222 275 507t321 535h395q54 -665 143 -1042h-266q-25 107 -43 252h-436q-71 -130 -127 -252h-262zM391 438h314q-24 191 -41 400h-43q-91 -149 -230 -400zM401 1282q15 71 43.5 92t100.5 21t93 -21t7 -92q-18 -79 -48.5 -103t-102.5 -24t-91.5 24t-1.5 103z M838 1282q15 71 43.5 92t101.5 21q71 0 91.5 -21t6.5 -92q-18 -79 -48.5 -103t-100.5 -24q-73 0 -92.5 24t-1.5 103z" />
<glyph unicode="&#xf7e5;" horiz-adv-x="1153" d="M-96 0q111 222 275 507t321 535h395q54 -665 143 -1042h-266q-25 107 -43 252h-436q-71 -130 -127 -252h-262zM391 438h314q-24 191 -41 400h-43q-91 -149 -230 -400zM498 1317q23 109 89.5 155t198.5 46q126 0 175 -46.5t26 -154.5q-23 -110 -91.5 -155.5t-195.5 -45.5 t-176 45.5t-26 155.5zM641 1313q-10 -47 7 -67.5t77 -20.5t85.5 21t35.5 67q10 48 -7 68t-77 20q-61 0 -86.5 -20t-34.5 -68z" />
<glyph unicode="&#xf7e6;" horiz-adv-x="1654" d="M-240 0q189 224 451.5 510.5t501.5 531.5h983l-45 -206h-561l-41 -195h430l-41 -195h-430l-52 -239h562l-43 -207h-816l54 256h-459q-150 -172 -217 -256h-277zM418 444h336l86 410h-47q-169 -178 -375 -410z" />
<glyph unicode="&#xf7e7;" horiz-adv-x="962" d="M89 324.5q0 88.5 24 201.5q33 156 91.5 264.5t141.5 169.5t179 87t220 26q77 0 166 -14t142 -35l-105 -217q-106 45 -231 45q-76 0 -124 -11t-92 -45t-73.5 -100.5t-52.5 -173.5q-18 -82 -19.5 -140t11 -95t42.5 -57.5t68.5 -28.5t97.5 -8q123 0 254 49l11 -217 q-61 -23 -151 -37.5t-165 -16.5l-12 -57q122 0 166 -35.5t24 -124.5q-20 -96 -91 -133t-226 -37q-127 0 -192 33l67 111q48 -25 141 -25q48 0 68.5 11.5t26.5 41.5q9 38 -29 49t-152 5l101 167q-79 8 -138 30t-102.5 64t-65 103.5t-21.5 150z" />
<glyph unicode="&#xf7e8;" horiz-adv-x="1034" d="M39 0l221 1042h815l-45 -206h-561l-41 -195h430l-41 -195h-430l-51 -239h561l-43 -207h-815zM469 1427h270l193 -264h-225z" />
<glyph unicode="&#xf7e9;" horiz-adv-x="1034" d="M39 0l221 1042h815l-45 -206h-561l-41 -195h430l-41 -195h-430l-51 -239h561l-43 -207h-815zM508 1163l305 264h272l-354 -264h-223z" />
<glyph unicode="&#xf7ea;" horiz-adv-x="1034" d="M39 0l221 1042h815l-45 -206h-561l-41 -195h430l-41 -195h-430l-51 -239h561l-43 -207h-815zM342 1163l307 264h250l201 -264h-240l-112 156l-175 -156h-231z" />
<glyph unicode="&#xf7eb;" horiz-adv-x="1034" d="M39 0l221 1042h815l-45 -206h-561l-41 -195h430l-41 -195h-430l-51 -239h561l-43 -207h-815zM406 1282q15 71 43 92t100 21t93 -21t7 -92q-18 -79 -48.5 -103t-102.5 -24t-91 24t-1 103zM842 1282q15 71 43.5 92t101.5 21q71 0 91.5 -21t6.5 -92q-18 -79 -48.5 -103 t-100.5 -24q-73 0 -92.5 24t-1.5 103z" />
<glyph unicode="&#xf7ec;" horiz-adv-x="536" d="M39 0l221 1042h254l-221 -1042h-254zM119 1427h270l193 -264h-226z" />
<glyph unicode="&#xf7ed;" horiz-adv-x="536" d="M39 0l221 1042h254l-221 -1042h-254zM233 1163l306 264h272l-354 -264h-224z" />
<glyph unicode="&#xf7ee;" horiz-adv-x="536" d="M35 1163l307 264h250l201 -264h-240l-113 156l-174 -156h-231zM39 0l221 1042h254l-221 -1042h-254z" />
<glyph unicode="&#xf7ef;" horiz-adv-x="536" d="M39 0l221 1042h254l-221 -1042h-254zM100 1282q15 71 43.5 92t100.5 21t93 -21t7 -92q-18 -79 -48.5 -103t-102.5 -24t-91.5 24t-1.5 103zM537 1282q15 71 43.5 92t101.5 21q71 0 91.5 -21t6.5 -92q-18 -79 -48.5 -103t-100.5 -24q-73 0 -92.5 24t-1.5 103z" />
<glyph unicode="&#xf7f0;" horiz-adv-x="1196" d="M37 451l39 184h96l88 407h442q86 0 151.5 -10t118.5 -33.5t85.5 -62.5t50 -96t14.5 -135t-24 -179q-32 -152 -84.5 -254.5t-131 -162t-174.5 -84.5t-227 -25h-442l94 451h-96zM334 197h170q72 0 120 12.5t90.5 47t71 99t50.5 166.5q18 84 19.5 142t-10 94t-41.5 55.5 t-67 26t-96 6.5h-170l-45 -211h182l-39 -184h-182z" />
<glyph unicode="&#xf7f1;" horiz-adv-x="1214" d="M39 0l221 1042h250q194 -351 293 -636l135 636h254l-221 -1042h-254q-146 417 -285 657l-139 -657h-254zM410 1262q65 82 126.5 123.5t133.5 41.5q47 0 86.5 -17t62.5 -37t54 -37t63 -17q37 0 66.5 25.5t68.5 93.5l105 -103q-48 -87 -120 -138.5t-161 -51.5q-41 0 -79 17 t-62 37t-57 37t-66 17q-65 0 -129 -104z" />
<glyph unicode="&#xf7f2;" d="M86.5 304q-0.5 94 26.5 222q33 158 86 265t131 168.5t172 87.5t223 26q86 0 151 -11t116.5 -36t83 -66.5t47 -102t11.5 -143t-26 -188.5q-34 -159 -86.5 -267t-130 -171.5t-173 -90t-226.5 -26.5q-103 0 -176 16.5t-126.5 55.5t-78 103t-25 158zM351.5 375 q-4.5 -59 2 -99t31 -61.5t59.5 -30t91 -8.5q96 0 150 26.5t92 100t69 219.5q19 91 24 151t-1.5 99.5t-32.5 60t-61 28t-93 7.5q-57 0 -94.5 -7.5t-71.5 -28t-57.5 -60t-44 -99.5t-39.5 -151q-19 -88 -23.5 -147zM494 1427h270l192 -264h-225z" />
<glyph unicode="&#xf7f3;" d="M86.5 304q-0.5 94 26.5 222q33 158 86 265t131 168.5t172 87.5t223 26q86 0 151 -11t116.5 -36t83 -66.5t47 -102t11.5 -143t-26 -188.5q-34 -159 -86.5 -267t-130 -171.5t-173 -90t-226.5 -26.5q-103 0 -176 16.5t-126.5 55.5t-78 103t-25 158zM351.5 375 q-4.5 -59 2 -99t31 -61.5t59.5 -30t91 -8.5q96 0 150 26.5t92 100t69 219.5q19 91 24 151t-1.5 99.5t-32.5 60t-61 28t-93 7.5q-57 0 -94.5 -7.5t-71.5 -28t-57.5 -60t-44 -99.5t-39.5 -151q-19 -88 -23.5 -147zM549 1163l305 264h272l-354 -264h-223z" />
<glyph unicode="&#xf7f4;" d="M86.5 304q-0.5 94 26.5 222q33 158 86 265t131 168.5t172 87.5t223 26q86 0 151 -11t116.5 -36t83 -66.5t47 -102t11.5 -143t-26 -188.5q-34 -159 -86.5 -267t-130 -171.5t-173 -90t-226.5 -26.5q-103 0 -176 16.5t-126.5 55.5t-78 103t-25 158zM351.5 375 q-4.5 -59 2 -99t31 -61.5t59.5 -30t91 -8.5q96 0 150 26.5t92 100t69 219.5q19 91 24 151t-1.5 99.5t-32.5 60t-61 28t-93 7.5q-57 0 -94.5 -7.5t-71.5 -28t-57.5 -60t-44 -99.5t-39.5 -151q-19 -88 -23.5 -147zM362 1163l308 264h250l200 -264h-239l-113 156l-174 -156 h-232z" />
<glyph unicode="&#xf7f5;" d="M86.5 304q-0.5 94 26.5 222q33 158 86 265t131 168.5t172 87.5t223 26q86 0 151 -11t116.5 -36t83 -66.5t47 -102t11.5 -143t-26 -188.5q-34 -159 -86.5 -267t-130 -171.5t-173 -90t-226.5 -26.5q-103 0 -176 16.5t-126.5 55.5t-78 103t-25 158zM351.5 375 q-4.5 -59 2 -99t31 -61.5t59.5 -30t91 -8.5q96 0 150 26.5t92 100t69 219.5q19 91 24 151t-1.5 99.5t-32.5 60t-61 28t-93 7.5q-57 0 -94.5 -7.5t-71.5 -28t-57.5 -60t-44 -99.5t-39.5 -151q-19 -88 -23.5 -147zM387 1262q65 82 126.5 123.5t133.5 41.5q47 0 86.5 -17 t62.5 -37t54 -37t63 -17q37 0 67 25.5t69 93.5l104 -103q-48 -87 -120 -138.5t-161 -51.5q-41 0 -79 17t-62 37t-57 37t-66 17q-65 0 -129 -104z" />
<glyph unicode="&#xf7f6;" d="M86.5 304q-0.5 94 26.5 222q33 158 86 265t131 168.5t172 87.5t223 26q86 0 151 -11t116.5 -36t83 -66.5t47 -102t11.5 -143t-26 -188.5q-34 -159 -86.5 -267t-130 -171.5t-173 -90t-226.5 -26.5q-103 0 -176 16.5t-126.5 55.5t-78 103t-25 158zM351.5 375 q-4.5 -59 2 -99t31 -61.5t59.5 -30t91 -8.5q96 0 150 26.5t92 100t69 219.5q19 91 24 151t-1.5 99.5t-32.5 60t-61 28t-93 7.5q-57 0 -94.5 -7.5t-71.5 -28t-57.5 -60t-44 -99.5t-39.5 -151q-19 -88 -23.5 -147zM430 1282q15 71 43 92t100 21t93.5 -21t7.5 -92 q-18 -79 -49 -103t-103 -24t-91 24t-1 103zM866 1282q15 71 44 92t102 21q71 0 91.5 -21t6.5 -92q-18 -79 -48.5 -103t-100.5 -24q-73 0 -93 24t-2 103z" />
<glyph unicode="&#xf7f8;" d="M-61 0l167 156q-44 131 7 370q33 158 86 265t131 168.5t172 87.5t223 26q206 0 299 -67l41 36h219l-170 -155q45 -129 -6 -361q-34 -159 -86.5 -267t-130 -171.5t-173 -90t-226.5 -26.5q-197 0 -295 68l-43 -39h-215zM354 381l480 450q-40 35 -154 35q-68 0 -111.5 -11 t-81 -43.5t-62.5 -92t-46 -156.5q-22 -109 -25 -182zM387 213q38 -35 148 -35q142 0 204.5 71t104.5 269q18 76 18 139z" />
<glyph unicode="&#xf7f9;" horiz-adv-x="1183" d="M121 422l133 620h254l-135 -634q-26 -115 6 -162t151 -47t170.5 47t77.5 162l135 634h252l-133 -620q-54 -253 -175.5 -352t-373.5 -99q-253 0 -334.5 99t-27.5 352zM479 1427h271l192 -264h-225z" />
<glyph unicode="&#xf7fa;" horiz-adv-x="1183" d="M121 422l133 620h254l-135 -634q-26 -115 6 -162t151 -47t170.5 47t77.5 162l135 634h252l-133 -620q-54 -253 -175.5 -352t-373.5 -99q-253 0 -334.5 99t-27.5 352zM522 1163l305 264h273l-355 -264h-223z" />
<glyph unicode="&#xf7fb;" horiz-adv-x="1183" d="M121 422l133 620h254l-135 -634q-26 -115 6 -162t151 -47t170.5 47t77.5 162l135 634h252l-133 -620q-54 -253 -175.5 -352t-373.5 -99q-253 0 -334.5 99t-27.5 352zM354 1163l308 264h249l201 -264h-240l-112 156l-174 -156h-232z" />
<glyph unicode="&#xf7fc;" horiz-adv-x="1183" d="M121 422l133 620h254l-135 -634q-26 -115 6 -162t151 -47t170.5 47t77.5 162l135 634h252l-133 -620q-54 -253 -175.5 -352t-373.5 -99q-253 0 -334.5 99t-27.5 352zM424 1282q15 71 43 92t100 21t93.5 -21t7.5 -92q-18 -79 -49 -103t-103 -24t-91 24t-1 103zM860 1282 q15 71 44 92t102 21q71 0 91.5 -21t6.5 -92q-18 -79 -48.5 -103t-101.5 -24q-73 0 -92.5 24t-1.5 103z" />
<glyph unicode="&#xf7fd;" horiz-adv-x="997" d="M68 1042h294q97 -159 191 -362q151 144 336 362h278q-278 -319 -534 -569l-101 -473h-253l100 473q-182 365 -311 569zM463 1163l305 264h272l-354 -264h-223z" />
<glyph unicode="&#xf7fe;" horiz-adv-x="1153" d="M39 0l221 1042h254l-39 -180h352q172 0 232 -83t24 -253q-67 -327 -376 -327h-373l-41 -199h-254zM373 385h301q114 0 143 137q15 75 -5 109.5t-77 34.5h-301z" />
<glyph unicode="&#xf7ff;" horiz-adv-x="997" d="M68 1042h294q97 -159 191 -362q151 144 336 362h278q-278 -319 -534 -569l-101 -473h-253l100 473q-182 365 -311 569zM346 1282q15 71 43 92t100 21t93.5 -21t7.5 -92q-18 -79 -49 -103t-103 -24t-91 24t-1 103zM782 1282q15 71 44 92t102 21q71 0 91.5 -21t6.5 -92 q-18 -79 -48.5 -103t-100.5 -24q-73 0 -93 24t-2 103z" />
<glyph horiz-adv-x="1294" d="M121.5 428.5q5.5 129.5 42.5 304.5q37 172 85.5 297.5t108 208.5t137 132.5t163 70t196.5 20.5t188.5 -20.5t134.5 -70t81 -132.5t20 -208.5t-41 -297.5q-46 -218 -110.5 -366t-152.5 -235t-192.5 -124t-242.5 -37q-110 0 -187.5 23t-133 76.5t-79 141t-18 217z M389 365.5q4 -60.5 29.5 -92.5t65.5 -45t106 -13q83 0 136 20t98 78.5t77.5 156.5t67.5 263q23 111 34 187t9.5 132t-13 88.5t-40 51.5t-64 25t-92.5 6q-56 0 -94 -6t-74.5 -25t-61 -51.5t-50 -88.5t-46 -132.5t-43.5 -186.5q-28 -132 -38.5 -219.5t-6.5 -148z" />
<glyph horiz-adv-x="813" d="M129 1223l717 264l-316 -1487h-266l242 1139l-350 -138z" />
<glyph horiz-adv-x="1247" d="M-16 0l45 217q168 111 275 181.5t209 142t158 113t109 88.5t76.5 74t45.5 65t30.5 66.5t17.5 72.5q26 115 -24 157t-199 42q-95 0 -207 -16.5t-178 -39.5l-10 234q227 65 471 65q78 0 139.5 -6t114 -19.5t89.5 -36t63 -55t37.5 -76t10.5 -100t-16 -127.5 q-16 -77 -36.5 -133t-62 -117t-95.5 -113t-148.5 -122.5t-210 -144.5t-289.5 -179h670l-49 -233h-1036z" />
<glyph horiz-adv-x="1226" d="M-18 23l100 233q62 -19 164 -30t192 -11q137 0 213 20.5t111.5 63t52.5 123.5q26 120 -21.5 166.5t-187.5 46.5h-203l50 229h196q132 0 195 40t84 143q15 67 -2 103t-80 53.5t-189 17.5q-87 0 -194 -12.5t-172 -32.5l-4 233q253 53 473 53q205 0 315 -38t143 -116t5 -210 q-16 -76 -40 -130.5t-66 -101.5t-109.5 -74.5t-161.5 -35.5q98 -4 159.5 -32.5t86 -77t26.5 -114.5t-18 -147q-49 -229 -200 -321.5t-460 -92.5q-237 0 -458 52z" />
<glyph horiz-adv-x="1241" d="M8 367l17 84q181 234 412.5 513t406.5 463h360l-178 -837h191l-48 -223h-190l-78 -367h-258l78 367h-713zM383 590h385l127 604q-120 -124 -270.5 -303.5t-241.5 -300.5z" />
<glyph horiz-adv-x="1245" d="M25 23l102 233q125 -41 340 -41q134 0 205 19t105.5 62t53.5 130q12 67 12 111t-29 70.5t-84.5 37t-154.5 10.5q-207 0 -356 -28l170 800h885l-51 -233h-631l-68 -317q114 8 174 8q200 0 303.5 -44.5t132.5 -143.5t-8 -257q-29 -137 -77 -226t-128.5 -144t-187.5 -77 t-264 -22q-104 0 -232 15t-212 37z" />
<glyph horiz-adv-x="1288" d="M118 270q-10 85 1 196t43 259q31 147 69.5 257.5t90.5 193t113 137t142.5 88t173.5 47.5t212 14q95 0 201 -15t184 -40l-111 -238q-116 48 -326 48q-71 0 -123 -8t-102.5 -30.5t-87 -61.5t-67.5 -102.5t-52 -152.5q138 23 275 23q201 0 306 -44.5t135 -143.5t-7 -257 q-29 -137 -75.5 -226t-124.5 -144t-181 -77t-254 -22q-104 0 -179 15t-130.5 51t-85.5 92t-40 141zM401 454.5q-4 -74.5 6 -121.5t38 -73t65 -35.5t94 -9.5q105 0 164 21t88.5 64.5t46.5 125.5q19 80 10.5 131t-54.5 74.5t-140 23.5q-155 0 -293 -20q-21 -106 -25 -180.5z " />
<glyph horiz-adv-x="1081" d="M94 0q190 330 422 673t395 521h-737l51 233h1096l-18 -81q-190 -227 -466 -637.5t-438 -708.5h-305z" />
<glyph horiz-adv-x="1292" d="M86 385q19 86 46.5 148t74.5 113t120 78.5t173 31.5q-92 8 -148 36.5t-77 72.5t-22.5 103.5t15.5 129.5q28 130 87.5 207t180 117t316.5 40t299.5 -39t131 -119.5t-0.5 -205.5q-16 -77 -39 -131t-65 -101t-109 -74.5t-162 -35.5q98 -4 159 -32.5t85 -77t26 -114.5 t-18 -147q-47 -228 -187 -321t-433 -93h-2q-293 0 -395.5 93t-55.5 321zM375 412q-27 -124 17 -171.5t192 -47.5q146 0 210.5 47.5t90.5 171.5q26 126 -19.5 178.5t-185.5 52.5q-141 0 -210 -52.5t-95 -178.5zM535 1055q-23 -108 21.5 -154.5t168.5 -46.5q122 0 186.5 46.5 t87.5 154.5q23 104 -20 143t-172 39q-131 0 -190 -38.5t-82 -143.5z" />
<glyph horiz-adv-x="1282" d="M185.5 812q-3.5 72 19.5 167q58 270 200.5 376.5t438.5 106.5q110 0 187 -9.5t134.5 -33t89 -59.5t45 -92.5t8.5 -128t-26 -170.5q-25 -119 -76 -233t-114.5 -209t-150.5 -191.5t-171.5 -173.5t-189.5 -162h-338q414 328 579 559q-85 -10 -180 -10q-122 0 -206 14 t-140.5 45.5t-81 81.5t-28 122zM487 991q-28 -132 16 -172.5t216 -40.5q117 0 225 15q30 62 47 147q13 63 17.5 107t-2.5 76t-21 50.5t-43 29.5t-62.5 14.5t-86.5 3.5q-104 0 -166 -25.5t-91.5 -72.5t-48.5 -132z" />
<glyph d="M-49 -362l98 223q145 -60 359 -60q164 0 238.5 27t88.5 88q3 15 3 25t-3.5 20t-10.5 16t-21.5 11.5t-32.5 9t-46 6.5t-60.5 4.5t-78.5 3.5q-126 4 -202.5 18t-118 42t-49.5 71t4 105q19 94 98 180q-102 77 -59 281q38 179 176.5 271.5t402.5 92.5q115 0 245 -18t206 -47 l-53 -250q-42 -197 -195 -299.5t-383 -102.5q-86 0 -158 21q-15 -24 -24 -60q-11 -51 45 -72.5t221 -27.5q221 -6 306.5 -72.5t56.5 -207.5q-41 -192 -200 -273.5t-435 -81.5q-252 0 -418 56zM420 711q-18 -86 24.5 -117t165.5 -31q230 0 267 176l22 101q-86 24 -217 24 q-130 0 -186 -32t-76 -121z" />
<glyph horiz-adv-x="1751" d="M89 336q2 84 24 190q33 156 91.5 264.5t140.5 169.5t176.5 87t213.5 26q43 0 208.5 -15.5t268.5 -15.5l37 177l277 104l-60 -281h346l-47 -221h-346l-96 -448q-21 -99 6 -141t117 -42q84 0 180 29l2 -201q-132 -47 -291 -47q-61 0 -106 6.5t-82.5 23t-60 44.5t-34 69.5 t-8.5 100t19 135.5l100 471q-109 0 -272.5 16.5t-187.5 16.5q-59 0 -99 -7t-77.5 -26.5t-64 -56.5t-49 -96t-40.5 -146q-18 -83 -20.5 -140.5t8 -95.5t39 -59t66 -29t95.5 -8q129 0 240 43l12 -208q-144 -54 -313 -54q-79 0 -142 11.5t-115.5 37t-86.5 68.5t-52.5 103.5 t-16.5 144.5z" />
<glyph horiz-adv-x="1234" d="M62.5 229q-3.5 78 19.5 203q47 217 145 327.5t238 110.5q104 0 223 -61q145 59 254 59q141 0 191.5 -108t5.5 -324q-25 -117 -67.5 -202.5t-93 -133.5t-107 -79.5t-114.5 -51.5t-109 -38.5t-98 -50.5t-75 -79q-12 46 -47.5 78t-79 48.5t-93 39t-89.5 49.5t-70 81 t-33.5 132zM141 1153l45 207h1235l-45 -207h-502q24 -37 11 -94q-13 -63 -63.5 -125.5t-127.5 -97.5q30 56 39 108q21 94 -21 151.5t-139 57.5h-432zM328 300q5 -53 21 -77.5t43.5 -42t53 -26.5t50.5 -30.5t36 -53.5q23 32 55.5 53t63 29.5t64.5 26.5t62.5 42.5t55 78.5 t44.5 134q24 122 10.5 173.5t-66.5 51.5q-52 0 -176 -57q-83 60 -139 60q-115 0 -164 -230q-19 -79 -14 -132z" />
<glyph horiz-adv-x="1234" d="M53.5 253.5q-3.5 77.5 20.5 182.5q45 215 143 323.5t240 108.5q101 0 225 -59q146 61 250 61q140 0 191.5 -110.5t4.5 -327.5q-25 -117 -66 -202.5t-90 -133t-103.5 -79t-111.5 -51t-108 -38t-99.5 -50t-80.5 -77.5q-8 41 -35.5 71.5t-63.5 47t-79 35t-83 37.5 t-75.5 53.5t-55.5 82.5t-23.5 125.5zM141 1153l45 207h1235l-45 -207h-432q-97 0 -164 -57.5t-88 -151.5q-10 -56 -4 -108q-63 35 -87 97t-11 126q12 53 53 94h-502z" />
<glyph horiz-adv-x="1234" d="M-143 -197l43 207h432q96 0 161.5 57t86.5 152q11 49 8 109q61 -36 84 -98.5t10 -125.5q-9 -57 -49 -94h502l-45 -207h-1233zM145 731q25 117 66.5 202.5t90.5 133t103.5 79t112 51t108.5 37.5t100 49t81 77q9 -46 42 -78.5t76 -49t93 -39.5t92 -50.5t72.5 -81t36 -132 t-18.5 -202.5q-45 -217 -142.5 -325.5t-238.5 -108.5q-106 0 -227 59q-148 -59 -250 -59q-140 0 -191 109.5t-6 328.5zM406 731q-48 -229 67 -229q53 0 164 57q93 -55 151 -55q53 0 88.5 52t61.5 173q19 81 14 134t-21.5 78t-44 42.5t-53.5 27t-50 30.5t-33 53 q-29 -37 -70.5 -59.5t-78.5 -35.5t-74 -37t-69 -81t-52 -150z" />
<glyph horiz-adv-x="1234" d="M-143 -197l43 207h501q-24 34 -14 94q13 63 64 125.5t131 98.5q-30 -50 -43 -109q-21 -94 22.5 -151.5t140.5 -57.5h433l-45 -207h-1233zM135 727q25 117 67 202t92.5 133t106.5 80t114.5 51.5t110 38t99 50.5t76.5 78q12 -46 47.5 -77.5t78.5 -48t92.5 -39t89.5 -49.5 t70 -80.5t33.5 -131.5t-20.5 -203q-45 -218 -144 -328t-239 -110q-102 0 -223 59q-148 -59 -252 -59q-141 0 -192.5 108.5t-6.5 325.5z" />
<glyph horiz-adv-x="1726" d="M49 578q51 22 91 64.5t68.5 89.5t59 100t72 100.5t97.5 86.5t146.5 62t207.5 23q218 0 312 -74.5t64 -214.5q-20 -100 -110 -237q31 -136 10 -240q-64 -289 -496 -289q-92 0 -161 15t-110.5 41t-69.5 60t-41 73.5t-21.5 80t-15 80.5t-16.5 74t-31.5 62t-55.5 43zM315 578 q29 -16 44.5 -44.5t18.5 -57t14.5 -59t31.5 -53.5t70.5 -38t130.5 -15q121 0 177.5 24.5t67.5 78.5q12 54 -20 164q79 95 90 151q12 56 -36 85.5t-169 29.5q-93 0 -154 -19.5t-91.5 -51.5t-51 -66t-50.5 -71t-73 -58zM1081 578q52 -17 107 -17q94 0 162.5 54t89.5 151 l92 432h207l-262 -1235h-207l106 502q-42 -31 -100 -31q-63 0 -118 37t-77 107z" />
<glyph horiz-adv-x="1726" d="M51 584q50 19 90.5 59.5t69.5 88t60 101.5t73.5 103t99 89.5t146.5 64.5t207 24q217 0 309.5 -74.5t62.5 -216.5q-19 -95 -110 -239q30 -134 10 -236q-30 -140 -157 -215.5t-345 -75.5q-92 0 -161.5 14.5t-111 39.5t-69 58t-41 71.5t-21 78t-13.5 79.5t-15.5 74.5 t-30 64.5t-53.5 47zM1083 584q51 71 121 108t133 37q58 0 88 -33l107 502h207l-262 -1235h-207l92 432q20 97 -26 152t-140 55q-52 0 -113 -18z" />
<glyph horiz-adv-x="1726" d="M27 -35l262 1235h207l-93 -432q-20 -97 26 -152t140 -55q48 0 113 19q-51 -71 -121 -108.5t-133 -37.5q-55 0 -88 33l-107 -502h-206zM598 340q20 102 111 240q-34 130 -13 235q30 140 156.5 215.5t343.5 75.5q117 0 197.5 -23t120 -62t61 -87t29.5 -101t16.5 -100 t31 -89t64.5 -64q-51 -19 -91.5 -59.5t-69 -88t-59.5 -101.5t-73.5 -103.5t-99 -90t-147 -64.5t-207.5 -24q-216 0 -309 75t-62 216zM823 416q-12 -55 35.5 -80t167.5 -25q95 0 157 20.5t92.5 53.5t51 68t50 71.5t71.5 55.5q-29 18 -44 47t-18 57t-14.5 57.5t-31.5 52 t-70 36.5t-129 14q-228 0 -254 -113q-11 -58 28 -151q-82 -114 -92 -164z" />
<glyph horiz-adv-x="1726" d="M27 -35l262 1235h207l-107 -502q45 31 100 31q63 0 117.5 -37t75.5 -106q-44 16 -104 16q-94 0 -163 -54.5t-89 -150.5l-93 -432h-206zM598 348q20 99 111 238q-30 133 -9 239q64 289 494 289q92 0 161.5 -15t111 -41t69.5 -60t41 -73.5t21 -79.5t14.5 -80t16.5 -74 t31.5 -62t55.5 -43q-45 -20 -82 -55t-61 -75t-53 -86.5t-55.5 -89.5t-70.5 -84t-97.5 -71t-136 -48t-185.5 -18q-217 0 -312 74.5t-65 214.5z" />
<glyph horiz-adv-x="1576" d="M123 466q6 114 37 261q46 215 117.5 359t177.5 226.5t234.5 116t305.5 33.5q117 0 205 -14t159 -47.5t114 -88.5t64.5 -136.5t16.5 -193t-36 -255.5q-46 -219 -118.5 -366.5t-178.5 -233t-235 -121t-306 -35.5q-117 0 -205.5 15t-159 50t-113 92t-64 140.5t-15.5 197.5z M420 508q-4 -94 13 -157.5t57 -102.5t96 -55.5t135 -16.5q100 0 175.5 26.5t139.5 90t111 171t80 265.5q27 124 30 215t-14 151.5t-58.5 96t-97.5 50.5t-137 15q-100 0 -174 -24t-137 -83t-109 -162.5t-79 -258.5q-27 -127 -31 -221zM611.5 537.5q6.5 71.5 31.5 191.5 q26 121 49 189.5t55.5 107.5t68.5 50t97 11q50 0 79.5 -7.5t50.5 -27.5t24.5 -61t-3.5 -103.5t-28 -158.5q-25 -120 -49 -191.5t-57 -115t-72 -58t-100 -14.5q-60 0 -92 15t-46.5 58t-8 114.5z" />
<glyph horiz-adv-x="1576" d="M123 466q6 114 37 261q46 215 117.5 359t177.5 226.5t234.5 116t305.5 33.5q117 0 205 -14t159 -47.5t114 -88.5t64.5 -136.5t16.5 -193t-36 -255.5q-46 -219 -118.5 -366.5t-178.5 -233t-235 -121t-306 -35.5q-117 0 -205.5 15t-159 50t-113 92t-64 140.5t-15.5 197.5z M567 1092l19 -158l256 100l-176 -829h188l229 1077z" />
<glyph horiz-adv-x="1576" d="M123 466q6 114 37 261q46 215 117.5 359t177.5 226.5t234.5 116t305.5 33.5q117 0 205 -14t159 -47.5t114 -88.5t64.5 -136.5t16.5 -193t-36 -255.5q-46 -219 -118.5 -366.5t-178.5 -233t-235 -121t-306 -35.5q-117 0 -205.5 15t-159 50t-113 92t-64 140.5t-15.5 197.5z M332 201h749l37 166h-489q190 116 295.5 187t175.5 139.5t97.5 124t45.5 138.5q36 173 -40.5 239.5t-278.5 66.5q-179 0 -338 -50l6 -163q51 15 132 26.5t148 11.5q108 0 145 -31.5t19 -115.5q-9 -43 -18.5 -68.5t-38.5 -63.5t-65 -69.5t-117.5 -91.5t-175 -122.5 t-256.5 -170.5z" />
<glyph horiz-adv-x="1576" d="M123 466q6 114 37 261q46 215 117.5 359t177.5 226.5t234.5 116t305.5 33.5q117 0 205 -14t159 -47.5t114 -88.5t64.5 -136.5t16.5 -193t-36 -255.5q-46 -219 -118.5 -366.5t-178.5 -233t-235 -121t-306 -35.5q-117 0 -205.5 15t-159 50t-113 92t-64 140.5t-15.5 197.5z M356 215q146 -39 330 -39q224 0 334 67t145 234q15 78 10.5 136t-52.5 93t-142 39q68 6 116.5 26t78.5 54.5t46.5 73.5t28.5 94q30 142 -43.5 203t-292.5 61q-161 0 -340 -38l3 -166q113 30 264 30q92 0 138 -12.5t58 -38.5t2 -74q-17 -76 -61 -105.5t-139 -29.5h-144 l-34 -166h145q106 0 141.5 -33.5t16.5 -121.5q-19 -87 -75.5 -119.5t-203.5 -32.5q-160 0 -258 31z" />
<glyph horiz-adv-x="1576" d="M123 466q6 114 37 261q46 215 117.5 359t177.5 226.5t234.5 116t305.5 33.5q117 0 205 -14t159 -47.5t114 -88.5t64.5 -136.5t16.5 -193t-36 -255.5q-46 -219 -118.5 -366.5t-178.5 -233t-235 -121t-306 -35.5q-117 0 -205.5 15t-159 50t-113 92t-64 140.5t-15.5 197.5z M328 463h516l-58 -266h187l57 266h137l33 160h-137l129 608h-260q-130 -138 -301.5 -344.5t-290.5 -364.5zM594 623q208 270 377 442l-94 -442h-283z" />
<glyph horiz-adv-x="1576" d="M123 466q6 114 37 261q46 215 117.5 359t177.5 226.5t234.5 116t305.5 33.5q117 0 205 -14t159 -47.5t114 -88.5t64.5 -136.5t16.5 -193t-36 -255.5q-46 -219 -118.5 -366.5t-178.5 -233t-235 -121t-306 -35.5q-117 0 -205.5 15t-159 50t-113 92t-64 140.5t-15.5 197.5z M358 209q61 -15 153.5 -26t166.5 -11q225 0 330.5 73t146.5 265q38 177 -28.5 250.5t-280.5 73.5q-55 0 -127 -7l49 230h457l37 170h-639l-123 -578q126 21 258 21q139 0 175 -34t15 -134q-14 -64 -40 -96t-78.5 -46t-151.5 -14q-155 0 -246 31z" />
<glyph horiz-adv-x="1576" d="M123 466q6 114 37 261q46 215 117.5 359t177.5 226.5t234.5 116t305.5 33.5q117 0 205 -14t159 -47.5t114 -88.5t64.5 -136.5t16.5 -193t-36 -255.5q-46 -219 -118.5 -366.5t-178.5 -233t-235 -121t-306 -35.5q-117 0 -205.5 15t-159 50t-113 92t-64 140.5t-15.5 197.5z M406 458.5q-2 -103.5 33.5 -167.5t103.5 -89.5t182 -25.5q215 0 316.5 73t142.5 267q27 115 4.5 186.5t-98.5 103.5t-222 32q-111 0 -200 -17q22 85 49 136.5t67.5 78.5t85 36t115.5 9q149 0 236 -34l79 170q-122 40 -278 40q-130 0 -220 -24t-161.5 -85t-118.5 -163.5 t-80 -261.5q-34 -161 -36 -264.5zM610.5 500q1.5 61 20.5 159q99 15 182 15q123 0 156 -35t12 -133q-19 -89 -63.5 -122.5t-155.5 -33.5q-53 0 -84 11.5t-50 44.5t-17.5 94z" />
<glyph horiz-adv-x="1576" d="M123 466q6 114 37 261q46 215 117.5 359t177.5 226.5t234.5 116t305.5 33.5q117 0 205 -14t159 -47.5t114 -88.5t64.5 -136.5t16.5 -193t-36 -255.5q-46 -219 -118.5 -366.5t-178.5 -233t-235 -121t-306 -35.5q-117 0 -205.5 15t-159 50t-113 92t-64 140.5t-15.5 197.5z M500 197h207q310 541 671 1034h-803l-34 -170h520q-129 -175 -287.5 -418t-273.5 -446z" />
<glyph horiz-adv-x="1576" d="M123 466q6 114 37 261q46 215 117.5 359t177.5 226.5t234.5 116t305.5 33.5q117 0 205 -14t159 -47.5t114 -88.5t64.5 -136.5t16.5 -193t-36 -255.5q-46 -219 -118.5 -366.5t-178.5 -233t-235 -121t-306 -35.5q-117 0 -205.5 15t-159 50t-113 92t-64 140.5t-15.5 197.5z M397 477q-35 -166 38.5 -233.5t285.5 -67.5h2q212 0 314 67.5t137 233.5q15 78 10 136t-53 93t-142 39q132 11 191.5 72.5t83.5 175.5q19 94 -1.5 149.5t-95.5 85t-217 29.5t-229 -29.5t-130.5 -85t-62.5 -149.5q-13 -50 -11.5 -93t16.5 -75.5t56 -53t107 -26.5 q-141 -6 -206.5 -73t-92.5 -195zM602 496q19 92 68.5 130t154.5 38q103 0 137 -38t15 -130q-20 -92 -67.5 -127t-153.5 -35q-108 0 -141 35.5t-13 126.5zM717 963q17 76 61 104.5t140 28.5q95 0 125.5 -28.5t13.5 -104.5q-17 -79 -63.5 -113.5t-135.5 -34.5 q-91 0 -124.5 34.5t-16.5 113.5z" />
<glyph horiz-adv-x="1576" d="M123 466q6 114 37 261q46 215 117.5 359t177.5 226.5t234.5 116t305.5 33.5q117 0 205 -14t159 -47.5t114 -88.5t64.5 -136.5t16.5 -193t-36 -255.5q-46 -219 -118.5 -366.5t-178.5 -233t-235 -121t-306 -35.5q-117 0 -205.5 15t-159 50t-113 92t-64 140.5t-15.5 197.5z M492 911q-37 -175 30.5 -243t284.5 -68q37 0 135 8q-127 -174 -426 -407h242q97 76 172.5 148t147.5 159.5t121.5 187.5t72.5 207q18 87 19 145.5t-16 101.5t-59 67t-105 34.5t-159 10.5q-213 0 -316 -77.5t-144 -273.5zM685 842q1 31 9 80q20 93 66 130.5t158 37.5 q46 0 74 -4t50 -16t29.5 -35.5t6.5 -60t-13 -91.5q-12 -53 -37 -109q-80 -12 -166 -12q-65 0 -100.5 6.5t-56.5 24.5t-20 49z" />
<glyph horiz-adv-x="2203" d="M2 27l96 200q54 -21 138.5 -35t160.5 -14q112 0 164 25t68 102q13 58 -27.5 85.5t-169.5 39.5q-179 14 -250 78.5t-39 218.5q21 99 67.5 167.5t116.5 107t151.5 55t185.5 16.5q138 0 297.5 -21.5t287.5 -56.5q91 35 224 56.5t249 21.5q106 0 181 -16.5t128 -54.5 t77.5 -102t24 -157t-27.5 -221q-33 -156 -86.5 -264.5t-127.5 -170.5t-160 -89t-195 -27q-132 0 -238 60l-90 -424h-254l248 1167q-333 92 -592 92q-104 0 -150.5 -22.5t-62.5 -98.5q-12 -54 27 -77t164 -35q189 -21 259 -91t38 -223q-21 -99 -67 -168t-115.5 -107.5 t-151 -55.5t-186.5 -17q-88 0 -192.5 15.5t-170.5 40.5zM1352 287q-9 -45 44 -73t140 -28q135 0 200.5 69t106.5 261q19 87 23 145.5t-3.5 97t-33.5 59t-61.5 28.5t-92.5 8q-121 0 -209 -31z" />
<glyph horiz-adv-x="1931" d="M96 279.5q3 114.5 35 265.5q32 149 78 263t110 196.5t139.5 138t175 88.5t207.5 47t244 14q89 0 154.5 -8t116.5 -26.5t82.5 -48.5t47.5 -74t15.5 -102.5t-16.5 -135.5l-133 -621q-99 -37 -233.5 -59t-244.5 -22q-81 0 -139.5 6.5t-103.5 22.5t-71.5 41t-39.5 64.5 t-11 91t17 120.5q18 87 50 149.5t71.5 99t96 57.5t111 27.5t128.5 6.5q121 0 250 -29q10 48 13.5 80t-1 59.5t-19 43.5t-42 27t-67 15t-97.5 4q-112 0 -189 -7.5t-145.5 -29.5t-113 -57.5t-83.5 -96.5t-66 -142.5t-52 -198.5q-25 -118 -31 -200.5t9 -146.5t50 -102.5 t101 -63t152 -33.5t212 -9q154 0 261 17t188 53.5t135 103.5t90 157t64 224q48 220 32 342h224q9 -144 -33 -346q-39 -184 -97 -314t-137 -218t-193 -139t-251 -72t-326 -21q-154 0 -268 14.5t-204.5 49.5t-145 92t-82.5 142.5t-25 200zM780 551q-20 -93 12 -127.5 t142 -34.5q100 0 207 35l55 258q-82 18 -188 18t-157.5 -28t-70.5 -121z" />
<glyph horiz-adv-x="1550" d="M104 385q15 68 35 120.5t53 99t77.5 78t107.5 50.5t143 23q-88 8 -142 35t-75 73.5t-21 100.5t17 131q41 191 182 278.5t391 87.5q160 0 326 -49l-123 -233q-100 41 -217 41q-140 0 -200.5 -38t-82.5 -136q-22 -101 19.5 -143t163.5 -42h338l37 174l280 103l-59 -277h274 l-47 -225h-274l-121 -567q-122 -45 -291 -72t-315 -27q-276 0 -399.5 96t-76.5 318zM406 422q-25 -116 30.5 -161.5t227.5 -45.5q169 0 301 33l84 389h-355q-131 0 -196.5 -47.5t-91.5 -167.5z" />
<glyph horiz-adv-x="1153" d="M-96 0q111 222 275 507t321 535h395q54 -665 143 -1042h-266q-25 107 -43 252h-436q-71 -130 -127 -252h-262zM391 438h314q-24 191 -41 400h-43q-91 -149 -230 -400zM467 1427h174q-14 -69 12 -93.5t97 -24.5t110 25t53 93h164q-32 -144 -123 -212t-243 -68 q-306 0 -244 280z" />
<glyph horiz-adv-x="1153" d="M-96 0q111 222 275 507t321 535h395q54 -665 143 -1042h-266q-25 107 -43 252h-436q-71 -130 -127 -252h-262zM391 438h314q-24 191 -41 400h-43q-91 -149 -230 -400zM430 1180l39 184h569l-39 -184h-569z" />
<glyph horiz-adv-x="1153" d="M-96 0q111 222 275 507t321 535h395q54 -665 143 -1042h-114q-90 -52 -125.5 -92.5t-46.5 -95.5q-9 -45 11.5 -63.5t92.5 -18.5q107 0 182 55l45 -129q-54 -35 -132.5 -53.5t-151.5 -18.5q-151 0 -201.5 44t-30.5 139q15 73 77 133.5t167 99.5h-39q-25 107 -43 252h-436 q-71 -130 -127 -252h-262zM391 438h314q-24 191 -41 400h-43q-91 -149 -230 -400z" />
<glyph horiz-adv-x="774" d="M14 -309l353 1655h553l-48 -222h-288l-258 -1214h288l-47 -219h-553z" />
<glyph horiz-adv-x="1196" d="M39 0l221 1042h442q86 0 151.5 -10t118.5 -33.5t85.5 -62.5t50 -96t14.5 -135t-24 -179q-32 -152 -84.5 -254.5t-131 -162t-174.5 -84.5t-227 -25h-442zM334 197h170q72 0 120 12.5t90.5 47t71 99t50.5 166.5q18 84 19.5 142t-10 94t-41.5 55.5t-67 26t-96 6.5h-170z M393 1427h240l110 -155l177 155h231l-307 -264h-250z" />
<glyph horiz-adv-x="1196" d="M37 451l39 184h96l88 407h442q86 0 151.5 -10t118.5 -33.5t85.5 -62.5t50 -96t14.5 -135t-24 -179q-32 -152 -84.5 -254.5t-131 -162t-174.5 -84.5t-227 -25h-442l94 451h-96zM334 197h170q72 0 120 12.5t90.5 47t71 99t50.5 166.5q18 84 19.5 142t-10 94t-41.5 55.5 t-67 26t-96 6.5h-170l-45 -211h182l-39 -184h-182z" />
<glyph horiz-adv-x="1034" d="M39 0l221 1042h815l-45 -206h-561l-41 -195h430l-41 -195h-430l-51 -239h561l-43 -207h-815zM422 1180l39 184h569l-39 -184h-569z" />
<glyph horiz-adv-x="960" d="M89 336q2 84 24 190q27 125 70.5 220t99 156.5t128 100t151 54.5t173.5 16q76 0 159.5 -13.5t137.5 -35.5l-96 -188q-90 38 -225 38q-97 0 -158.5 -29.5t-103.5 -107.5h382l-30 -141h-410q-4 -12 -16 -74q-11 -46 -13 -65h410l-31 -140h-385q9 -81 59 -114t146 -33 q129 0 244 43l14 -188q-65 -24 -153.5 -39t-163.5 -15q-79 0 -142 11.5t-115.5 37t-86.5 68.5t-52.5 103.5t-16.5 144.5z" />
<glyph horiz-adv-x="1034" d="M39 0l221 1042h815l-45 -206h-561l-41 -195h430l-41 -195h-430l-51 -239h561l-43 -207h-125q-90 -52 -125.5 -92.5t-46.5 -95.5q-9 -45 12 -63.5t93 -18.5q107 0 182 55l45 -129q-54 -35 -133 -53.5t-152 -18.5q-151 0 -201 44t-30 139q15 73 77 133.5t166 99.5h-577z " />
<glyph horiz-adv-x="1034" d="M39 0l221 1042h815l-45 -206h-561l-41 -195h430l-41 -195h-430l-51 -239h561l-43 -207h-815zM412 1427h239l111 -155l176 155h231l-307 -264h-250z" />
<glyph horiz-adv-x="1034" d="M39 0l221 1042h815l-45 -206h-561l-41 -195h430l-41 -195h-430l-51 -239h561l-43 -207h-815zM625 1282q15 71 43 92t100 21t93 -21t7 -92q-18 -79 -48.5 -103t-102.5 -24t-91 24t-1 103z" />
<glyph horiz-adv-x="1034" d="M39 0l221 1042h815l-45 -206h-561l-41 -195h430l-41 -195h-430l-51 -239h561l-43 -207h-815zM469 1427h174q-14 -69 12 -93.5t97 -24.5t110 25t53 93h164q-32 -144 -123 -212t-243 -68q-306 0 -244 280z" />
<glyph horiz-adv-x="1165" d="M89.5 336q1.5 84 23.5 190q26 125 72.5 220t105 156.5t135.5 100t159 54.5t181 16q79 0 180.5 -14t157.5 -35l-111 -209q-113 45 -264 45q-75 0 -125.5 -12.5t-96.5 -48t-78 -103.5t-54 -174q-17 -82 -18 -141t12 -97t43 -60.5t68.5 -31t94.5 -8.5q99 0 175 29l41 197 h-222l43 198h449l-121 -565q-92 -31 -210 -51.5t-218 -20.5q-81 0 -145 11.5t-117.5 37t-88.5 68.5t-54 103.5t-17.5 144.5zM530 1427h175q-14 -69 11.5 -93.5t96.5 -24.5t110.5 25t53.5 93h164q-32 -144 -123.5 -212t-243.5 -68q-306 0 -244 280z" />
<glyph horiz-adv-x="1165" d="M89.5 336q1.5 84 23.5 190q26 125 72.5 220t105 156.5t135.5 100t159 54.5t181 16q79 0 180.5 -14t157.5 -35l-111 -209q-113 45 -264 45q-75 0 -125.5 -12.5t-96.5 -48t-78 -103.5t-54 -174q-17 -82 -18 -141t12 -97t43 -60.5t68.5 -31t94.5 -8.5q99 0 175 29l41 197 h-222l43 198h449l-121 -565q-92 -31 -210 -51.5t-218 -20.5q-81 0 -145 11.5t-117.5 37t-88.5 68.5t-54 103.5t-17.5 144.5zM397 1163l308 264h249l201 -264h-240l-112 156l-174 -156h-232z" />
<glyph horiz-adv-x="1165" d="M89.5 336q1.5 84 23.5 190q26 125 72.5 220t105 156.5t135.5 100t159 54.5t181 16q79 0 180.5 -14t157.5 -35l-111 -209q-113 45 -264 45q-75 0 -125.5 -12.5t-96.5 -48t-78 -103.5t-54 -174q-17 -82 -18 -141t12 -97t43 -60.5t68.5 -31t94.5 -8.5q99 0 175 29l41 197 h-222l43 198h449l-121 -565q-92 -31 -210 -51.5t-218 -20.5q-81 0 -145 11.5t-117.5 37t-88.5 68.5t-54 103.5t-17.5 144.5zM162 -446l219 342h274l-295 -342h-198z" />
<glyph horiz-adv-x="1165" d="M89.5 336q1.5 84 23.5 190q26 125 72.5 220t105 156.5t135.5 100t159 54.5t181 16q79 0 180.5 -14t157.5 -35l-111 -209q-113 45 -264 45q-75 0 -125.5 -12.5t-96.5 -48t-78 -103.5t-54 -174q-17 -82 -18 -141t12 -97t43 -60.5t68.5 -31t94.5 -8.5q99 0 175 29l41 197 h-222l43 198h449l-121 -565q-92 -31 -210 -51.5t-218 -20.5q-81 0 -145 11.5t-117.5 37t-88.5 68.5t-54 103.5t-17.5 144.5zM676 1282q15 71 43 92t100 21t93.5 -21t7.5 -92q-18 -79 -49 -103t-103 -24t-91 24t-1 103z" />
<glyph horiz-adv-x="2009" d="M2 27l96 200q54 -21 138.5 -35t160.5 -14q112 0 164 25t68 102q13 58 -27.5 85.5t-169.5 39.5q-179 14 -250 78.5t-39 218.5q21 99 67.5 167.5t116.5 107t151.5 55t185.5 16.5q181 0 337 -57l-98 -199q-138 49 -293 49q-104 0 -150.5 -22.5t-62.5 -98.5q-12 -54 27 -77 t164 -35q189 -21 259 -91t38 -223q-21 -99 -67 -168t-115.5 -107.5t-151 -55.5t-186.5 -17q-88 0 -192.5 15.5t-170.5 40.5zM1006 27l96 200q54 -21 138.5 -35t160.5 -14q112 0 163.5 25t67.5 102q13 58 -27 85.5t-169 39.5q-179 14 -250 78.5t-39 218.5q21 99 67.5 167.5 t116 107t151 55t185.5 16.5q182 0 338 -57l-98 -199q-138 49 -293 49q-104 0 -150.5 -22.5t-62.5 -98.5q-12 -54 27 -77t163 -35q189 -21 259 -91t38 -223q-21 -99 -67 -168t-115.5 -107.5t-151 -55.5t-186.5 -17q-87 0 -191.5 15.5t-170.5 40.5z" />
<glyph horiz-adv-x="1202" d="M39 0l164 780h-115l35 162h115l22 100h254l-22 -100h409l23 100h254l-23 -100h117l-35 -162h-117l-164 -780h-254l93 442h-410l-92 -442h-254zM432 659h410l24 121h-409z" />
<glyph horiz-adv-x="1202" d="M39 0l221 1042h254l-82 -383h410l82 383h254l-222 -1042h-254l93 442h-410l-92 -442h-254zM369 1163l307 264h250l200 -264h-239l-113 156l-174 -156h-231z" />
<glyph horiz-adv-x="1382" d="M39 0l221 1042h254l-221 -1042h-254zM434 18l96 218q93 -41 222 -41q176 0 215 184l141 663h254l-145 -682q-85 -389 -488 -389q-174 0 -295 47z" />
<glyph horiz-adv-x="536" d="M39 0l221 1042h254l-221 -1042h-254zM133 1180l39 184h569l-39 -184h-569z" />
<glyph horiz-adv-x="536" d="M-150 -233q18 73 79 134t165 99h-55l221 1042h254l-221 -1042h-86q-90 -52 -125.5 -92.5t-46.5 -95.5q-9 -45 11.5 -63.5t92.5 -18.5q108 0 183 55l45 -129q-54 -35 -133 -53.5t-152 -18.5q-151 0 -201.5 44t-30.5 139z" />
<glyph horiz-adv-x="536" d="M39 0l221 1042h254l-221 -1042h-254zM63 1262q65 81 127 123t134 42q47 0 86.5 -17t62.5 -37t54 -37t63 -17q37 0 66.5 25.5t68.5 93.5l104 -103q-48 -88 -119.5 -139t-160.5 -51q-41 0 -79 17t-62 37t-57 37t-66 17q-65 0 -129 -104z" />
<glyph horiz-adv-x="847" d="M-100 18l96 218q93 -41 221 -41q176 0 215 184l141 663h254l-145 -682q-85 -389 -487 -389q-174 0 -295 47zM340 1163l307 264h250l201 -264h-240l-113 156l-174 -156h-231z" />
<glyph horiz-adv-x="1128" d="M39 0l221 1042h254l-104 -491q113 78 508 491h301q-178 -187 -312 -311.5t-188 -161.5q37 -27 120.5 -176.5t188.5 -392.5h-299q-247 516 -319 551l-117 -551h-254zM154 -446l219 342h274l-295 -342h-198z" />
<glyph horiz-adv-x="884" d="M39 0l221 1042h254l-174 -815h491l-47 -227h-745zM330 1163l305 264h272l-354 -264h-223z" />
<glyph horiz-adv-x="884" d="M39 0l221 1042h254l-174 -815h491l-47 -227h-745zM563 713l125 393h225l-200 -393h-150z" />
<glyph horiz-adv-x="884" d="M35 -446l219 342h274l-295 -342h-198zM39 0l221 1042h254l-174 -815h491l-47 -227h-745z" />
<glyph horiz-adv-x="884" d="M39 0l221 1042h254l-174 -815h491l-47 -227h-745zM551 670q14 71 42.5 91.5t100.5 20.5q73 0 94 -20.5t7 -91.5q-18 -79 -49 -103t-103 -24t-91 24t-1 103z" />
<glyph horiz-adv-x="1214" d="M39 0l221 1042h250q194 -351 293 -636l135 636h254l-221 -1042h-254q-146 417 -285 657l-139 -657h-254zM575 1163l306 264h272l-354 -264h-224z" />
<glyph horiz-adv-x="1214" d="M39 0l221 1042h250q194 -351 293 -636l135 636h254l-221 -1042h-254q-146 417 -285 657l-139 -657h-254zM434 1427h240l110 -155l177 155h231l-307 -264h-250z" />
<glyph horiz-adv-x="1214" d="M39 0l221 1042h250q194 -351 293 -636l135 636h254l-221 -1042h-254q-146 417 -285 657l-139 -657h-254zM145 -446l220 342h274l-295 -342h-199z" />
<glyph d="M86.5 304q-0.5 94 26.5 222q33 158 86 265t131 168.5t172 87.5t223 26q86 0 151 -11t116.5 -36t83 -66.5t47 -102t11.5 -143t-26 -188.5q-34 -159 -86.5 -267t-130 -171.5t-173 -90t-226.5 -26.5q-103 0 -176 16.5t-126.5 55.5t-78 103t-25 158zM351.5 375 q-4.5 -59 2 -98.5t31 -60.5t59.5 -29.5t91 -8.5q96 0 150 26t92 99t69 219q19 91 24 151t-2 99t-33 59t-61 27.5t-94 7.5q-72 0 -115 -11.5t-80 -48.5t-61.5 -103.5t-48.5 -180.5q-19 -88 -23.5 -147zM496 1427h174q-14 -69 11.5 -93.5t98.5 -24.5q71 0 109.5 25t52.5 93 h164q-32 -144 -122.5 -212t-242.5 -68q-307 0 -245 280z" />
<glyph d="M86.5 304q-0.5 94 26.5 222q33 158 86 265t131 168.5t172 87.5t223 26q86 0 151 -11t116.5 -36t83 -66.5t47 -102t11.5 -143t-26 -188.5q-34 -159 -86.5 -267t-130 -171.5t-173 -90t-226.5 -26.5q-103 0 -176 16.5t-126.5 55.5t-78 103t-25 158zM351.5 375 q-4.5 -59 2 -98.5t31 -60.5t59.5 -29.5t91 -8.5q96 0 150 26t92 99t69 219q19 91 24 151t-2 99t-33 59t-61 27.5t-94 7.5q-72 0 -115 -11.5t-80 -48.5t-61.5 -103.5t-48.5 -180.5q-19 -88 -23.5 -147zM432 1163l244 264h223l-293 -264h-174zM768 1163l244 264h223l-291 -264 h-176z" />
<glyph d="M86.5 304q-0.5 94 26.5 222q33 158 86 265t131 168.5t172 87.5t223 26q86 0 151 -11t116.5 -36t83 -66.5t47 -102t11.5 -143t-26 -188.5q-34 -159 -86.5 -267t-130 -171.5t-173 -90t-226.5 -26.5q-103 0 -176 16.5t-126.5 55.5t-78 103t-25 158zM351.5 375 q-4.5 -59 2 -98.5t31 -60.5t59.5 -29.5t91 -8.5q96 0 150 26t92 99t69 219q19 91 24 151t-2 99t-33 59t-61 27.5t-94 7.5q-72 0 -115 -11.5t-80 -48.5t-61.5 -103.5t-48.5 -180.5q-19 -88 -23.5 -147zM467 1180l39 184h569l-39 -184h-569z" />
<glyph horiz-adv-x="1175" d="M39 0l221 1042h614q320 0 256 -305q-58 -276 -348 -286q54 -15 90 -49t81.5 -127t109.5 -275h-295q-37 116 -68.5 190t-62 113.5t-58 53.5t-63.5 14h-145l-78 -371h-254zM414 571h288q128 0 158 136q13 67 -11 99t-87 32h-293zM498 1163l305 264h272l-354 -264h-223z" />
<glyph horiz-adv-x="1175" d="M39 0l221 1042h614q320 0 256 -305q-58 -276 -348 -286q54 -15 90 -49t81.5 -127t109.5 -275h-295q-37 116 -68.5 190t-62 113.5t-58 53.5t-63.5 14h-145l-78 -371h-254zM414 571h288q128 0 158 136q13 67 -11 99t-87 32h-293zM418 1427h239l111 -155l176 155h232 l-308 -264h-250z" />
<glyph horiz-adv-x="1175" d="M39 0l221 1042h614q320 0 256 -305q-58 -276 -348 -286q54 -15 90 -49t81.5 -127t109.5 -275h-295q-37 116 -68.5 190t-62 113.5t-58 53.5t-63.5 14h-145l-78 -371h-254zM141 -446l219 342h275l-295 -342h-199zM414 571h288q128 0 158 136q13 67 -11 99t-87 32h-293z" />
<glyph horiz-adv-x="1050" d="M51 416l39 184h103l20 102q39 184 175.5 277.5t383.5 93.5q186 0 338 -49l-98 -207q-47 17 -129 28t-158 11q-131 0 -190.5 -41t-77.5 -127l-19 -88h316l-39 -184h-316l-43 -203h545l-45 -213h-790l88 416h-103z" />
<glyph horiz-adv-x="1017" d="M-66 0l11 51q169 171 440 475q-124 258 -209 465l12 51h899l-47 -221h-508q39 -93 134 -293q-198 -219 -289 -307h522l-45 -221h-920z" />
<glyph horiz-adv-x="993" d="M82 821l47 221h973l-47 -221h-361l-59 -272h160l-39 -184h-160l-76 -365h-254l76 365h-156l39 184h156l59 272h-358z" />
<glyph horiz-adv-x="993" d="M43 -446l219 342h275l-295 -342h-199zM82 821l47 221h973l-47 -221h-361l-174 -821h-254l174 821h-358z" />
<glyph horiz-adv-x="993" d="M82 821l47 221h973l-47 -221h-361l-174 -821h-254l174 821h-358zM322 1427h239l111 -155l176 155h231l-307 -264h-250z" />
<glyph horiz-adv-x="1183" d="M121 422l133 620h254l-135 -634q-26 -115 6 -162t151 -47t170.5 47t77.5 162l135 634h252l-133 -620q-54 -253 -175.5 -352t-373.5 -99q-253 0 -334.5 99t-27.5 352zM381 1262q65 82 126.5 123.5t133.5 41.5q47 0 86.5 -17t62.5 -37t54 -37t63 -17q37 0 66.5 25.5 t68.5 93.5l105 -103q-48 -87 -120 -138.5t-161 -51.5q-41 0 -79 17t-62 37t-57 37t-66 17q-65 0 -129 -104z" />
<glyph horiz-adv-x="1183" d="M121 422l133 620h254l-135 -634q-26 -115 6 -162t151 -47t170.5 47t77.5 162l135 634h252l-133 -620q-54 -253 -175.5 -352t-373.5 -99q-253 0 -334.5 99t-27.5 352zM524 1317q23 109 90 155t199 46q126 0 175 -46.5t26 -154.5q-23 -110 -91.5 -155.5t-195.5 -45.5 t-176.5 45.5t-26.5 155.5zM668 1313q-10 -47 7 -67.5t77 -20.5t85 21t35 67q10 48 -7 68t-77 20q-61 0 -86 -20t-34 -68z" />
<glyph horiz-adv-x="1183" d="M99 246q0 74 22 176l133 620h254l-135 -634q-26 -115 6 -162t151 -47t170.5 47t77.5 162l135 634h252l-133 -620q-46 -220 -141.5 -321t-278.5 -121q-67 -42 -96 -80t-39 -88q-9 -45 12 -63.5t93 -18.5q107 0 182 55l45 -129q-54 -35 -133 -53.5t-152 -18.5 q-151 0 -201 44t-30 139q26 125 178 204q-99 1 -168 16.5t-116 47t-67.5 84.5t-20.5 127z" />
<glyph horiz-adv-x="1183" d="M121 422l133 620h254l-135 -634q-26 -115 6 -162t151 -47t170.5 47t77.5 162l135 634h252l-133 -620q-54 -253 -175.5 -352t-373.5 -99q-253 0 -334.5 99t-27.5 352zM461 1180l39 184h569l-39 -184h-569z" />
<glyph horiz-adv-x="1183" d="M121 422l133 620h254l-135 -634q-26 -115 6 -162t151 -47t170.5 47t77.5 162l135 634h252l-133 -620q-54 -253 -175.5 -352t-373.5 -99q-253 0 -334.5 99t-27.5 352zM494 1427h174q-14 -69 11.5 -93.5t96.5 -24.5t110.5 25t53.5 93h164q-32 -144 -123.5 -212t-243.5 -68 q-305 0 -243 280z" />
<glyph horiz-adv-x="1183" d="M121 422l133 620h254l-135 -634q-26 -115 6 -162t151 -47t170.5 47t77.5 162l135 634h252l-133 -620q-54 -253 -175.5 -352t-373.5 -99q-253 0 -334.5 99t-27.5 352zM424 1163l244 264h223l-293 -264h-174zM760 1163l244 264h223l-291 -264h-176z" />
<glyph horiz-adv-x="997" d="M41 197l27 127h278l27 127h-279l27 124h207q-142 284 -258 467h290q95 -152 193 -362q151 144 336 362h276q-227 -258 -436 -467h184l-26 -124h-260l-27 -127h260l-26 -127h-261l-41 -197h-253l40 197h-278z" />
<glyph horiz-adv-x="997" d="M68 1042h294q97 -159 191 -362q151 144 336 362h278q-278 -319 -534 -569l-101 -473h-253l100 473q-182 365 -311 569zM279 1163l307 264h250l200 -264h-239l-113 156l-174 -156h-231z" />
<glyph horiz-adv-x="1148" d="M99.5 304q0.5 95 27.5 222q33 157 85.5 264.5t126 169t160 87.5t199.5 26q91 0 157 -16t115 -54t72 -100.5t23 -156.5t-27 -220q-33 -158 -85 -266.5t-125.5 -171.5t-160.5 -90t-202 -27q-91 0 -156.5 16.5t-114.5 55.5t-72 102.5t-22.5 158.5zM360 346q-4 -68 13 -105.5 t48.5 -51t86.5 -13.5q76 0 121 26t81 101t66 219q19 90 24.5 151t0.5 100t-25.5 59.5t-48 28t-72.5 7.5q-75 0 -119 -23.5t-81 -99t-68 -223.5q-23 -108 -27 -176z" />
<glyph horiz-adv-x="1148" d="M225 809l707 264l-227 -1073h-254l155 741l-350 -145z" />
<glyph horiz-adv-x="1148" d="M16 0l39 186q195 105 312.5 172.5t198 118t118.5 87.5t54.5 65.5t25.5 68.5q18 79 -23.5 111.5t-167.5 32.5q-71 0 -169 -15t-150 -36l-12 235q86 19 206.5 33t217.5 14q171 0 263.5 -34.5t120.5 -105t3 -188.5q-22 -102 -78 -179.5t-186 -165.5t-357 -193h524l-43 -207 h-897z" />
<glyph horiz-adv-x="1148" d="M6 248l21 96q123 145 312 344.5t349 353.5h336l-127 -593h184l-43 -201h-184l-51 -248h-244l51 248h-604zM356 449h297l86 401q-233 -229 -383 -401z" />
<glyph horiz-adv-x="1148" d="M25 10l92 209q48 -16 142 -26.5t167 -10.5q150 0 217 29t82 104q19 84 -29.5 116t-191.5 32q-154 0 -326 -21l129 600h793l-45 -211h-539l-41 -188q123 6 152 6q235 0 314.5 -73.5t41.5 -253.5q-42 -197 -177.5 -274t-404.5 -77q-96 0 -204.5 10t-171.5 29z" />
<glyph horiz-adv-x="1148" d="M102 287.5q0 97.5 29 234.5q33 156 92.5 264.5t146 170.5t190 89t239.5 27q184 0 356 -51l-102 -209q-150 47 -293 47q-171 0 -248.5 -49.5t-112.5 -189.5q147 24 275 24q230 0 314 -73t44 -263q-21 -98 -63 -164t-110 -104t-155 -54t-210 -16q-99 0 -166.5 13t-122 48.5 t-79 96.5t-24.5 158.5zM348 343q-2 -46 6 -76.5t22 -51t38.5 -31t50 -14.5t61.5 -4q125 0 177 31.5t69 115.5q20 92 -17.5 123t-162.5 31q-117 0 -230 -18q-12 -60 -14 -106z" />
<glyph horiz-adv-x="1148" d="M174 0q143 216 312.5 436t316.5 385h-629l47 221h991l-10 -49q-191 -214 -383.5 -476t-349.5 -517h-295z" />
<glyph horiz-adv-x="1148" d="M34 171q1 46 11 105q28 127 106 197.5t230 77.5q-96 8 -146.5 41.5t-57.5 87t7 125.5q21 102 71.5 158t155 83t287.5 27q139 0 223 -14t130 -46t53.5 -83t-6.5 -125q-25 -117 -91.5 -180t-209.5 -74q149 -7 196 -77.5t19 -197.5q-36 -177 -154 -241t-393 -64 q-92 0 -159.5 6t-120.5 20t-83.5 37t-49.5 57t-18 80zM313 311q-18 -80 22 -110.5t171 -30.5q132 0 185 30.5t71 110.5q17 80 -28.5 111t-168.5 31q-121 0 -178 -31t-74 -111zM428 766q-13 -66 27.5 -91.5t152.5 -25.5q115 0 167 25.5t65 91.5q14 66 -24 90.5t-159 24.5 q-119 0 -167 -24.5t-62 -90.5z" />
<glyph horiz-adv-x="1148" d="M139 717q40 193 171 274.5t378 81.5q91 0 158 -8.5t120 -28t84.5 -51.5t48 -79.5t15 -110.5t-19.5 -146q-17 -78 -56.5 -153.5t-87.5 -135t-123 -127t-139.5 -116.5t-159.5 -117h-338q195 128 338 237t177 158q-168 -20 -232 -20q-216 0 -295 75.5t-39 266.5zM403 717 q-20 -90 14.5 -117t164.5 -27q98 0 209 15q34 47 38 76q27 126 -11.5 170.5t-160.5 44.5q-129 0 -181.5 -36.5t-72.5 -125.5z" />
<glyph horiz-adv-x="1148" d="M23 10l100 228q128 -50 315 -50q145 0 201.5 30t71.5 108q15 72 -29.5 100.5t-165.5 28.5h-160l39 190h160q113 0 164 22.5t63 82.5t-27.5 83t-168.5 23q-187 0 -334 -45l-4 221q179 41 389 41q184 0 282 -26.5t130.5 -83.5t11.5 -158q-25 -116 -93 -179.5t-212 -74.5 q149 -7 196 -77.5t19 -197.5q-36 -174 -165 -239.5t-407 -65.5q-217 0 -376 39z" />
<glyph horiz-adv-x="874" d="M102 1042h279l410 -1042h-277z" />
<glyph horiz-adv-x="874" d="M-119 0l852 1042h279l-854 -1042h-277z" />
<glyph horiz-adv-x="759" d="M76 -315l354 1665h268l-354 -1665h-268z" />
<glyph horiz-adv-x="774" d="M-131 -309l45 219h289l258 1214h-289l47 222h553l-352 -1655h-551z" />
<glyph horiz-adv-x="962" d="M89 336q2 84 24 190q33 156 91.5 264.5t141.5 169.5t179 87t220 26q77 0 166 -14t142 -35l-105 -217q-106 45 -231 45q-76 0 -124 -11t-92 -45t-73.5 -100.5t-52.5 -173.5q-18 -82 -19.5 -140t11 -95t42.5 -57.5t68.5 -28.5t97.5 -8q123 0 254 49l11 -217 q-64 -24 -158 -39t-170 -15q-82 0 -146 11.5t-118 37t-88.5 68.5t-53.5 103.5t-17 144.5zM651 1282q15 71 43.5 92t100.5 21t93 -21t7 -92q-18 -79 -49 -103t-103 -24t-91 24t-1 103z" />
<glyph horiz-adv-x="962" d="M89 336q2 84 24 190q33 156 91.5 264.5t141.5 169.5t179 87t220 26q77 0 166 -14t142 -35l-105 -217q-106 45 -231 45q-76 0 -124 -11t-92 -45t-73.5 -100.5t-52.5 -173.5q-18 -82 -19.5 -140t11 -95t42.5 -57.5t68.5 -28.5t97.5 -8q123 0 254 49l11 -217 q-64 -24 -158 -39t-170 -15q-82 0 -146 11.5t-118 37t-88.5 68.5t-53.5 103.5t-17 144.5zM545 1163l305 264h272l-354 -264h-223z" />
<glyph horiz-adv-x="962" d="M89 336q2 84 24 190q33 156 91.5 264.5t141.5 169.5t179 87t220 26q77 0 166 -14t142 -35l-105 -217q-106 45 -231 45q-76 0 -124 -11t-92 -45t-73.5 -100.5t-52.5 -173.5q-18 -82 -19.5 -140t11 -95t42.5 -57.5t68.5 -28.5t97.5 -8q123 0 254 49l11 -217 q-64 -24 -158 -39t-170 -15q-82 0 -146 11.5t-118 37t-88.5 68.5t-53.5 103.5t-17 144.5zM418 1427h239l111 -155l176 155h232l-308 -264h-250z" />
<glyph horiz-adv-x="866" d="M115 535q39 186 139 275t256 105l33 158h137l-33 -155q100 -8 172 -31l-80 -152q-46 21 -127 25l-96 -459q74 8 137 29l15 -150q-67 -26 -187 -39l-35 -170h-137l37 174q-148 18 -209 109.5t-22 280.5zM312.5 380q18.5 -53 70.5 -61l90 424q-116 -16 -158 -213 q-21 -97 -2.5 -150z" />
<glyph horiz-adv-x="913" d="M135 838l45 204h289l61 293h211l-61 -293h291l-45 -204h-291l-98 -467h-211l98 467h-289z" />
<glyph horiz-adv-x="706" d="M91.5 615q0.5 57 17.5 135q27 127 75 198t116.5 98t176.5 27q65 0 109.5 -9t77 -31t46.5 -59t14 -92t-17 -132q-40 -190 -125 -263t-246 -73q-64 0 -108.5 10t-76.5 33.5t-46 62t-13.5 95.5zM286 592.5q15 -39.5 81 -39.5q68 0 97 38.5t54 156.5q25 117 12.5 152.5 t-81.5 35.5q-67 0 -98.5 -36.5t-55.5 -151.5q-24 -116 -9 -155.5z" />
<glyph horiz-adv-x="970" d="M25 10l81 162q93 -39 254 -39q47 0 91 6.5t84.5 27t46.5 52.5q9 39 -27 56t-154 26q-176 14 -252.5 67.5t-52.5 166.5q19 87 92 151q-32 46 -16 127q30 138 153 199t337 61q170 0 301 -41l-84 -160q-113 37 -254 37q-99 0 -155.5 -18t-66.5 -66q-8 -40 27.5 -56.5 t155.5 -25.5q176 -14 252 -67.5t51 -165.5q-15 -78 -94 -150q37 -45 20 -129q-30 -138 -152.5 -199t-336.5 -61q-176 0 -301 39zM317 553q-9 -39 32 -59t136 -29q74 -8 156 -29q25 29 31 60q7 36 -33 55t-143 31q-94 10 -146 28q-28 -28 -33 -57z" />
<glyph horiz-adv-x="1005" d="M2 27l96 200q54 -21 138.5 -35t160.5 -14q112 0 164 25t68 102q13 58 -27.5 85.5t-169.5 39.5q-179 14 -250 78.5t-39 218.5q21 99 67.5 167.5t116.5 107t151.5 55t185.5 16.5q181 0 337 -57l-98 -199q-138 49 -293 49q-104 0 -150.5 -22.5t-62.5 -98.5q-12 -54 27 -77 t164 -35q189 -21 259 -91t38 -223q-21 -99 -67 -168t-115.5 -107.5t-151 -55.5t-186.5 -17q-88 0 -192.5 15.5t-170.5 40.5zM446 1163l306 264h272l-354 -264h-224z" />
<glyph horiz-adv-x="1005" d="M2 27l96 200q54 -21 138.5 -35t160.5 -14q112 0 164 25t68 102q13 58 -27.5 85.5t-169.5 39.5q-179 14 -250 78.5t-39 218.5q21 99 67.5 167.5t116.5 107t151.5 55t185.5 16.5q181 0 337 -57l-98 -199q-138 49 -293 49q-104 0 -150.5 -22.5t-62.5 -98.5q-12 -54 27 -77 t164 -35q189 -21 259 -91t38 -223q-38 -178 -154.5 -257t-304.5 -89l-12 -59q122 0 166 -35.5t24 -124.5q-20 -96 -91 -133t-226 -37q-128 0 -193 33l68 111q48 -25 141 -25q48 0 68 11t26 42q9 38 -29 49t-151 5l98 163q-80 3 -168 18t-145 36z" />
<glyph horiz-adv-x="1005" d="M2 27l96 200q54 -21 138.5 -35t160.5 -14q112 0 164 25t68 102q13 58 -27.5 85.5t-169.5 39.5q-179 14 -250 78.5t-39 218.5q21 99 67.5 167.5t116.5 107t151.5 55t185.5 16.5q181 0 337 -57l-98 -199q-138 49 -293 49q-104 0 -150.5 -22.5t-62.5 -98.5q-12 -54 27 -77 t164 -35q189 -21 259 -91t38 -223q-21 -99 -67 -168t-115.5 -107.5t-151 -55.5t-186.5 -17q-88 0 -192.5 15.5t-170.5 40.5zM293 1163l307 264h250l201 -264h-240l-113 156l-174 -156h-231z" />
<glyph horiz-adv-x="1005" d="M2 27l96 200q54 -21 138.5 -35t160.5 -14q112 0 164 25t68 102q13 58 -27.5 85.5t-169.5 39.5q-179 14 -250 78.5t-39 218.5q21 99 67.5 167.5t116.5 107t151.5 55t185.5 16.5q181 0 337 -57l-98 -199q-138 49 -293 49q-104 0 -150.5 -22.5t-62.5 -98.5q-12 -54 27 -77 t164 -35q189 -21 259 -91t38 -223q-21 -99 -67 -168t-115.5 -107.5t-151 -55.5t-186.5 -17q-88 0 -192.5 15.5t-170.5 40.5zM57 -446l219 342h275l-295 -342h-199z" />
<glyph horiz-adv-x="1699" d="M119 1042h268q57 -354 70 -782q84 150 205 392t188 390h248q18 -148 30.5 -379t12.5 -403q260 450 409 782h258q-265 -540 -577 -1042h-316q4 417 -20 698q-152 -344 -348 -698h-314q-42 609 -114 1042zM618 1163l308 264h250l200 -264h-239l-113 156l-174 -156h-232z " />
<glyph horiz-adv-x="1017" d="M-168 0l10 51q180 180 389 408t320 362h-510l47 221h899l-12 -51q-144 -174 -354.5 -405t-346.5 -365h523l-45 -221h-920zM401 1163l306 264h272l-354 -264h-224z" />
<glyph horiz-adv-x="1017" d="M-168 0l10 51q180 180 389 408t320 362h-510l47 221h899l-12 -51q-144 -174 -354.5 -405t-346.5 -365h523l-45 -221h-920zM465 1282q15 71 43 92t100 21t93.5 -21t7.5 -92q-18 -79 -49 -103t-103 -24t-91 24t-1 103z" />
<glyph horiz-adv-x="962" d="M89 336q2 84 24 190q33 156 91.5 264.5t141.5 169.5t179 87t220 26q77 0 166 -14t142 -35l-105 -217q-106 45 -231 45q-76 0 -124 -11t-92 -45t-73.5 -100.5t-52.5 -173.5q-18 -82 -19.5 -140t11 -95t42.5 -57.5t68.5 -28.5t97.5 -8q123 0 254 49l11 -217 q-64 -24 -158 -39t-170 -15q-82 0 -146 11.5t-118 37t-88.5 68.5t-53.5 103.5t-17 144.5zM362 1163l308 264h250l200 -264h-239l-113 156l-174 -156h-232z" />
<glyph horiz-adv-x="1751" d="M89 336q2 84 24 190q33 156 91.5 264.5t140.5 169.5t176.5 87t213.5 26q43 0 208.5 -15.5t268.5 -15.5l37 177l277 104l-60 -281h346l-47 -221h-346l-96 -448q-21 -99 6 -141t117 -42q84 0 180 29l2 -201q-132 -47 -291 -47q-61 0 -106 6.5t-82.5 23t-60 44.5t-34 69.5 t-8.5 100t19 135.5l100 471q-109 0 -272.5 16.5t-187.5 16.5q-59 0 -99 -7t-77.5 -26.5t-64 -56.5t-49 -96t-40.5 -146q-18 -83 -20.5 -140.5t8 -95.5t39 -59t66 -29t95.5 -8q129 0 240 43l12 -208q-144 -54 -313 -54q-79 0 -142 11.5t-115.5 37t-86.5 68.5t-52.5 103.5 t-16.5 144.5zM428 1427h240l110 -155l176 155h232l-307 -264h-250z" />
<glyph horiz-adv-x="1830" d="M2 27l96 200q54 -21 138.5 -35t160.5 -14q112 0 164 25t68 102q13 58 -27.5 85.5t-169.5 39.5q-179 14 -250 78.5t-39 218.5q21 99 67.5 167.5t116.5 107t151.5 55t185.5 16.5q40 0 269 -15.5t359 -15.5l37 177l277 104l-60 -281h346l-47 -221h-346l-96 -448 q-21 -99 6 -141t117 -42q84 0 180 29l2 -201q-132 -47 -291 -47q-61 0 -106 6.5t-82.5 23t-60 44.5t-34 69.5t-8.5 100t19 135.5l100 471q-155 1 -378 23t-257 22q-104 0 -150.5 -22.5t-62.5 -98.5q-12 -54 27 -77t164 -35q189 -21 259 -91t38 -223q-21 -99 -67 -168 t-115.5 -107.5t-151 -55.5t-186.5 -17q-88 0 -192.5 15.5t-170.5 40.5zM352 1427h240l110 -155l177 155h231l-307 -264h-250z" />
<glyph horiz-adv-x="1073" d="M102 369v397q0 59 7.5 100t27.5 73t50 51t81 31t114 16.5t155 4.5q138 0 217.5 -10.5t130.5 -42.5t68.5 -83.5t17.5 -139.5v-397h-193v391q0 58 -13 77.5t-58 20.5v-1251h-156v762h-27v-762h-155v1251q-45 -1 -59.5 -20.5t-14.5 -77.5v-391h-193zM319 1294q0 60 10 95.5 t37.5 55t65.5 26t105 6.5q125 0 168 -34t43 -149q0 -67 -10 -107t-36.5 -62.5t-63.5 -30t-101 -7.5q-66 0 -104.5 7.5t-66 30t-37.5 62.5t-10 107z" />
<glyph horiz-adv-x="1073" d="M41 -393q260 569 369 762v489q-74 -1 -94.5 -20t-20.5 -78v-391h-152v397q0 71 11.5 117t36.5 78.5t73.5 49.5t111.5 24t161 7q97 0 160.5 -7t111.5 -24.5t73 -50t36.5 -78.5t11.5 -116v-397h-152v391q0 59 -20 78t-94 20v-489q214 -496 368 -762h-991zM319 1294 q0 60 10 95.5t37.5 55t65.5 26t105 6.5q125 0 168 -34t43 -149q0 -67 -10 -107t-36.5 -62.5t-63.5 -30t-101 -7.5q-66 0 -104.5 7.5t-66 30t-37.5 62.5t-10 107z" />
<glyph horiz-adv-x="2594" d="M45 -303l37 158q53 0 96 10.5t85 36.5t75 69.5t61 112t47 160.5l134 630q-80 0 -153.5 -85t-107.5 -271h-167q25 100 50.5 174t64 143t85 112.5t112.5 69t148 25.5h301q12 -54 49 -115t91 -116.5t131.5 -92t158.5 -36.5l-28 -164q-150 0 -274 75.5t-181 203.5l-100 -469 q84 -2 150 -23t116.5 -66t76.5 -113t26.5 -168.5t-29.5 -227.5h-172q43 163 29.5 263t-93.5 144.5t-248 44.5q-75 -261 -208 -373t-363 -112zM717 1294q0 60 10 95.5t37 55.5t65 26t105 6q128 0 174 -36.5t22 -146.5l-45 -207h-151q-66 0 -104.5 7.5t-65.5 30t-37 62.5 t-10 107zM1419 518l27 164h768l-334 326l111 116l559 -524l-559 -524l-111 117l334 325h-795z" />
<glyph horiz-adv-x="1746" d="M31 0l407 414v352q0 145 58 203l-457 458h272l383 -391q76 6 178 6q112 0 177 -8l387 393h272l-459 -460q58 -55 58 -201v-350l409 -416h-254l-440 440v-833h-135v762h-27v-762h-135v833l-440 -440h-254zM631 610l94 97v32l-86 84q-8 -14 -8 -63v-150zM655 1294 q0 60 10 95.5t37 55.5t65 26t105 6q125 0 168 -34t43 -149q0 -67 -10 -107t-36.5 -62.5t-63.5 -30t-101 -7.5q-66 0 -104.5 7.5t-65.5 30t-37 62.5t-10 107zM1022 707l92 -95v148q0 44 -8 63l-84 -84v-32z" />
<glyph horiz-adv-x="2594" d="M45 600l559 -524l111 117l-334 325h795l-27 164h-768l334 326l-111 116zM1251 682l29 -164q150 0 274 75.5t181 203.5l100 -469q-84 -2 -150 -23t-116.5 -66t-76.5 -113t-26.5 -168.5t29.5 -227.5h172q-43 163 -30 263t93 144.5t248 44.5q75 -261 208.5 -373t363.5 -112 l-37 158q-67 0 -119.5 17.5t-100.5 59.5t-84.5 120t-60.5 192l-133 630q80 0 153 -85t107 -271h168q-25 100 -50.5 174t-64 143t-85.5 112.5t-113 69t-148 25.5h-301q-12 -54 -49 -115t-91 -116.5t-131.5 -92t-158.5 -36.5zM1464 1294l45 -207h152q66 0 104.5 7.5t65.5 30 t37 62.5t10 107q0 60 -10 95.5t-37 55.5t-65 26t-105 6q-128 0 -174.5 -36.5t-22.5 -146.5z" />
<glyph horiz-adv-x="1400" d="M61 -268v1644q0 115 43 149t168 34h856q125 0 168 -34t43 -149v-1644q0 -67 -10 -107t-36.5 -62.5t-63.5 -30t-101 -7.5h-856q-64 0 -101 7.5t-63.5 30t-36.5 62.5t-10 107zM268 369h193v391q0 58 14.5 77.5t59.5 20.5v-1251h155v762h27v-762h155v1251q45 -1 58.5 -20.5 t13.5 -77.5v-391h193v397q0 88 -17.5 139.5t-69 83.5t-131 42.5t-217.5 10.5q-92 0 -155 -4.5t-114 -16.5t-80.5 -31t-49.5 -51t-27.5 -73t-7.5 -100v-397zM485 1294q0 -67 10 -107t37 -62.5t65.5 -30t104.5 -7.5q64 0 101 7.5t63.5 30t36.5 62.5t10 107q0 115 -43 149 t-168 34q-67 0 -105 -6t-65 -26t-37 -55.5t-10 -95.5z" />
<glyph horiz-adv-x="1400" d="M61 -268v1644q0 115 43 149t168 34h856q125 0 168 -34t43 -149v-1644q0 -67 -10 -107t-36.5 -62.5t-63.5 -30t-101 -7.5h-856q-64 0 -101 7.5t-63.5 30t-36.5 62.5t-10 107zM207 -393h991q-158 273 -369 762v489q74 -1 94.5 -20t20.5 -78v-391h152v397q0 70 -11.5 116 t-37 78.5t-73 50t-111.5 24.5t-161 7q-122 0 -193.5 -10.5t-119 -42t-64 -83.5t-16.5 -140v-397h152v391q0 59 20 78t94 20v-489q-103 -184 -368 -762zM485 1294q0 -67 10 -107t37 -62.5t65.5 -30t104.5 -7.5q64 0 101 7.5t63.5 30t36.5 62.5t10 107q0 115 -43 149t-168 34 q-67 0 -105 -6t-65 -26t-37 -55.5t-10 -95.5z" />
<glyph horiz-adv-x="2811" d="M61 -268v1644q0 115 43 149t168 34h2268q125 0 167.5 -34t42.5 -149v-1644q0 -67 -9.5 -107t-36 -62.5t-63.5 -30t-101 -7.5h-2268q-64 0 -101 7.5t-63.5 30t-36.5 62.5t-10 107zM166 -303q230 0 363 112t208 373q168 0 248 -44.5t93.5 -144.5t-29.5 -263h172 q30 127 29.5 227.5t-26.5 168.5t-76.5 113t-116.5 66t-150 23l100 469q57 -128 181 -203.5t274 -75.5l28 164q-81 0 -158.5 36.5t-131.5 92t-91 116.5t-49 115h-301q-82 0 -148 -25.5t-113 -69t-85.5 -112.5t-64 -143t-50.5 -174h168q34 186 107 271t153 85l-133 -630 q-19 -92 -47 -160.5t-61 -112t-75 -69.5t-85 -36.5t-96 -10.5zM838 1294q0 -67 10 -107t37 -62.5t65.5 -30t104.5 -7.5h151l45 207q24 110 -22 146.5t-174 36.5q-67 0 -105 -6t-65 -26t-37 -55.5t-10 -95.5zM1540 518h795l-334 -325l110 -117l560 524l-560 524l-110 -116 l334 -326h-768z" />
<glyph horiz-adv-x="2811" d="M61 -268q0 -67 10 -107t36.5 -62.5t63.5 -30t101 -7.5h2268q64 0 101 7.5t63.5 30t36 62.5t9.5 107v1644q0 115 -42.5 149t-167.5 34h-2268q-125 0 -168 -34t-43 -149v-1644zM141 600l559 524l111 -116l-334 -326h768l27 -164h-795l334 -325l-111 -117zM1348 682 q81 0 158.5 36.5t131.5 92t91 116.5t49 115h301q82 0 148 -25.5t113 -69t85.5 -112.5t64 -143t50.5 -174h-168q-34 186 -107.5 271t-153.5 85l134 -630q19 -92 47 -160.5t61 -112t75 -69.5t85 -36.5t96 -10.5l37 -158q-230 0 -363 112t-208 373q-168 0 -248 -44.5 t-93.5 -144.5t29.5 -263h-172q-30 127 -29.5 227.5t26.5 168.5t76.5 113t116.5 66t150 23l-100 469q-57 -128 -181 -203.5t-274 -75.5zM1561 1294q-24 110 22 146.5t174 36.5q67 0 105 -6t65 -26t37 -55.5t10 -95.5q0 -67 -10 -107t-37 -62.5t-65.5 -30t-104.5 -7.5h-151z " />
<glyph horiz-adv-x="1966" d="M61 -268v1644q0 115 43 149t168 34h1422q125 0 168 -34t43 -149v-1644q0 -67 -10 -107t-36.5 -62.5t-63.5 -30t-101 -7.5h-1422q-64 0 -101 7.5t-63.5 30t-36.5 62.5t-10 107zM139 0h254l441 440v-833h135v762h26v-762h135v833l441 -440h254l-410 416v350q0 147 -57 201 l459 460h-273l-387 -393q-65 8 -176 8q-102 0 -178 -6l-383 391h-273l457 -458q-57 -57 -57 -203v-352zM739 610v150q0 47 9 63l86 -84v-32zM764 1294q0 -67 10 -107t37 -62.5t65.5 -30t104.5 -7.5q64 0 101 7.5t63.5 30t36.5 62.5t10 107q0 115 -43 149t-168 34 q-67 0 -105 -6t-65 -26t-37 -55.5t-10 -95.5zM1130 707v32l84 84q9 -21 9 -63v-148z" />
<glyph horiz-adv-x="2187" d="M350 684h94l41 -260h602l43 260h95l-174 -1077h-527zM502 332l39 -250h200v250h-239zM557 -10l47 -291h137v291h-184zM608 709q0 19 14.5 43.5t31.5 43t32 33.5l16 15q85 -94 328 -94l-170 -250q-46 4 -93.5 28.5t-81.5 57.5t-55.5 67t-21.5 56zM612 1042l29 -163h743 l119 -510l-123 -762h136l122 762h27v-762h135v762l-155 673h-1033zM834 -10v-291h137l47 291h-184zM834 82h198l41 250h-239v-250zM1204 1294l45 -207h152q66 0 104.5 7.5t65.5 30t37 62.5t10 107q0 60 -10 95.5t-37 55.5t-65 26t-105 6q-128 0 -174.5 -36.5t-22.5 -146.5z " />
<glyph horiz-adv-x="2187" d="M61 524q0 210 82 401t220.5 329t329.5 220t401 82t401 -82t329 -220t220 -329t82 -401t-82 -401t-220 -329t-329 -220t-401 -82t-401 82t-329.5 220t-220.5 329t-82 401zM100 524q0 -196 74 -373.5t205 -312.5q-80 86 -135.5 189t-82.5 211t-21.5 218.5t41 212.5 t112.5 193t185 160.5t266 113t350 52.5v325q-201 0 -384.5 -78t-317 -210.5t-213 -316t-79.5 -384.5zM475 111q137 -183 280.5 -317.5t338.5 -260.5v326q235 11 418.5 74t292 161.5t174.5 222.5t66.5 259t-32.5 269t-120.5 254t-200 212.5t-269 147t-329.5 54.5 q195 -126 338 -260t280 -317q-286 -368 -618 -578v330q-336 -212 -619 -577zM963 -459q86 -8 129 -8q-43 0 -129 8z" />
<glyph horiz-adv-x="2187" d="M172 -205v1501q0 104 43 135t168 31h1421q125 0 168 -31t43 -135v-1501q0 -118 -43 -153t-168 -35h-1421q-125 0 -168 35t-43 153zM236 -172q0 -39 1.5 -63t9 -43t16.5 -28t30 -15.5t43.5 -7.5t62.5 -1h1389q40 0 62.5 1t43.5 7.5t30 15t16 28t8.5 43t1.5 63.5v1434 q0 35 -1.5 56t-9 38t-16 25t-29.5 13t-43 6t-63 1h-1389q-41 0 -63 -1t-43.5 -6t-30 -13t-16 -25t-9 -38t-1.5 -56v-1434zM436 436q58 26 109.5 28.5t88 -10t74 -46t60.5 -64t55 -78.5q-19 51 -34 144.5t-27 180.5t-29.5 171.5t-50.5 139.5t-80 63q70 11 126 -9.5t91 -54 t66 -98t46 -112t36 -126.5q-5 56 3.5 151.5t17.5 180.5t11 170t-19.5 144.5t-70.5 78.5q80 -6 136 -37.5t85 -81.5t44 -109.5t19.5 -129t6.5 -132t9.5 -127.5t23.5 -108q89 197 112 264q56 169 -4 228q66 -33 103 -83t45 -108t1 -120.5t-26 -130t-38 -126.5t-33.5 -119.5 t-14.5 -101.5q0 -8 -4 -24q18 15 50.5 40.5t51.5 40.5t43.5 37.5t36.5 39t22 36.5t7.5 39.5t-14.5 38.5q59 -40 81.5 -85.5t15 -86.5t-32 -89.5t-54 -90t-57 -93.5t-35.5 -94q-3 -35 -37 -59h293v-80h-1284v80h323q-41 18 -70 59t-44.5 90t-28.5 104t-27.5 105t-34.5 89 t-56 59t-87 12zM874 188q51 -72 93 -104q33 -28 9.5 -84t-79.5 -82h379q-50 29 -53 90q-5 87 88 180q-48 -17 -95.5 4t-66.5 84q-13 46 25 148q-27 -15 -56.5 -17.5t-62.5 13t-58 49.5q-1 1 -3 4t-3 4q31 -108 68 -158q11 -15 12.5 -34t-5.5 -37.5t-19.5 -36.5t-32 -29.5 t-41 -17t-48 0t-51.5 23.5z" />
<glyph horiz-adv-x="2187" d="M125 543q0 215 137.5 398t372 289.5t508.5 106.5q227 0 435 -47.5t339 -140.5v-186q-78 10 -191 10q-179 0 -320.5 -46.5t-228.5 -145t-87 -236.5t87 -236t228.5 -144t320.5 -46q113 0 191 10v-188q-133 -92 -341.5 -140.5t-432.5 -48.5q-274 0 -508.5 106.5t-372 289 t-137.5 395.5zM332 127l164 -125v739q0 133 38 177.5t158 44.5q90 0 130 -49.5t40 -168.5t-46 -168t-161 -49q-83 0 -129 37v-135q65 -35 144 -35q174 0 267 86.5t93 266.5q0 176 -91 263t-261 87q-73 0 -133 -17t-109 -54t-76.5 -102t-27.5 -153v-645zM1516 711v149h598 v-149h-197v-492h-205v492h-196z" />
<glyph horiz-adv-x="2187" d="M72 -117q0 61 37 125l815 1411q70 117 174 117q49 0 95 -30t79 -87l807 -1411q37 -59 37 -125q0 -77 -56.5 -125.5t-154.5 -48.5h-1620q-98 0 -155.5 48.5t-57.5 125.5zM973 25q0 -73 26 -96t95 -23q71 0 95.5 22.5t24.5 96.5q0 70 -24 90t-96 20q-70 0 -95.5 -20.5 t-25.5 -89.5zM977 1194l51 -897h129l49 897h-229z" />
<glyph horiz-adv-x="2187" d="M72 -117q0 -77 57.5 -125.5t155.5 -48.5h1620q98 0 154.5 48.5t56.5 125.5q0 66 -37 125l-807 1411q-33 57 -79 87t-95 30q-104 0 -174 -117l-815 -1411q-37 -64 -37 -125zM145 -94q0 42 39 106l785 1356q23 35 31 47t24.5 29t33 21.5t40.5 4.5q44 0 67 -21t62 -81 l776 -1356q41 -62 41 -106q0 -68 -32 -99.5t-111 -31.5h-1612q-79 0 -111.5 31.5t-32.5 99.5zM551 387h387q0 -43 21.5 -78.5t58.5 -58.5l-193 -334q-125 70 -199.5 195.5t-74.5 275.5zM825 856q125 72 269 72q147 0 270 -74l-190 -334q-34 21 -80 21q-42 0 -76 -21z M1174 254q34 21 54.5 56.5t20.5 76.5h387q0 -146 -73.5 -270.5t-196.5 -196.5z" />
<glyph horiz-adv-x="2187" d="M305 518q0 -180 88 -330.5t239 -237.5t331 -87v205q-189 0 -320 131t-131 319t131.5 320.5t319.5 132.5v207q-134 0 -256 -52t-210 -140.5t-140 -210.5t-52 -257zM1214 518q0 -180 88 -330.5t239 -237.5t331 -87v205q-163 0 -286 100t-154 254h378v194h-378 q34 153 156.5 254t283.5 101v207q-134 0 -256 -52t-210 -140.5t-140 -210.5t-52 -257z" />
<glyph horiz-adv-x="2187" d="M82 -190v1165q0 130 60 196t206 66h488v-178h-478q-44 0 -63 -21t-19 -63v-379h480q18 188 119 341t264 241t356 88q231 0 421.5 -130t266.5 -333h-190q-65 140 -198 222.5t-300 82.5q-120 0 -226.5 -48t-180.5 -128t-117 -188t-43 -226q0 -160 72.5 -294.5t203.5 -214 t291 -79.5q166 0 298.5 80.5t197.5 218.5h192q-77 -200 -267.5 -327t-420.5 -127q-194 0 -357 86t-264.5 238t-119.5 341h-478v-630h-194zM1020 518q0 213 133 352.5t342 139.5q173 0 297 -105.5t162 -271.5h-180q-20 97 -97.5 153t-181.5 56q-136 0 -226.5 -93.5 t-90.5 -230.5t90.5 -229t226.5 -92q104 0 181 54t98 150h178q-37 -165 -161 -268.5t-296 -103.5q-209 0 -342 138.5t-133 350.5z" />
<glyph horiz-adv-x="2187" d="M31 516q0 272 21 460t59 230q46 40 302.5 61t680.5 21q429 0 687 -22.5t302 -63.5q30 -30 52 -228t22 -458q0 -269 -21 -459t-57 -229q-44 -39 -306 -62.5t-679 -23.5q-421 0 -683 22.5t-305 61.5q-30 32 -52.5 232t-22.5 458zM113 516q0 -239 16 -424.5t39 -208.5 q81 -67 926 -67q842 0 923 69q28 30 43 205.5t15 425.5q0 235 -15.5 420t-36.5 209q-83 69 -929 69q-838 0 -922 -65q-59 -65 -59 -633zM256 516q0 199 16.5 337.5t46.5 168.5q36 32 245 52t530 20q325 0 535.5 -21.5t242.5 -54.5q24 -21 41.5 -166.5t17.5 -335.5 q0 -201 -16.5 -339t-46.5 -165q-31 -31 -244 -53t-530 -22q-320 0 -532.5 21t-244.5 52q-24 22 -42.5 169t-18.5 337zM334 516q0 -174 14.5 -303.5t36.5 -144.5q31 -25 220 -39.5t489 -14.5q297 0 486.5 15.5t219.5 40.5q51 34 51 446q0 176 -13 303t-34 144q-62 53 -710 53 q-643 0 -705 -53q-55 -35 -55 -447zM549 289v456h80v-362l211 362h94l-279 -456h-106zM961 518q0 141 89 237.5t238 96.5q83 0 148 -39l-29 -65q-49 28 -119 28q-105 0 -175.5 -76.5t-70.5 -181.5q0 -108 70 -184t176 -76q66 0 119 27l29 -64q-76 -39 -148 -39 q-149 0 -238 96.5t-89 239.5zM1122 518q0 76 48.5 129t127.5 53q31 0 72 -18l-24 -61q-18 6 -48 6q-49 0 -72.5 -25.5t-23.5 -83.5q0 -59 23 -82.5t73 -23.5q33 0 45 4l27 -64q-32 -14 -72 -14q-80 0 -128 51.5t-48 128.5zM1534 289v456h76v-456h-76z" />
<glyph horiz-adv-x="2187" d="M393 518q0 190 93.5 351.5t254.5 255.5t351 94q163 0 305 -70.5t239 -192.5q-51 -88 -220 -267t-222 -179q-13 0 -31.5 50t-31 121t-5.5 120q3 23 -15 40t-54 17q-54 0 -117 -60.5t-63 -123.5q0 -84 18 -234t43 -200q26 -53 75.5 -82t98.5 -29q34 0 121.5 75.5t190 186 t186 206.5t139.5 165q43 -121 43 -244q0 -143 -55.5 -272t-149 -222.5t-223 -148.5t-272.5 -55q-190 0 -351 93t-254.5 254t-93.5 351z" />
</font>
</defs>
</svg>
